<?xml version="1.0" encoding="iso-8859-1"?>
<!-- Generator: Adobe Illustrator 19.0.0, SVG Export Plug-In . SVG Version: 6.00 Build 0)  -->
<svg version="1.1" id="Capa_1" xmlns="http://www.w3.org/2000/svg" xmlns:xlink="http://www.w3.org/1999/xlink" x="0px" y="0px"
	 viewBox="0 0 512 512" style="enable-background:new 0 0 512 512;" xml:space="preserve">
<g>
	<g transform="translate(1 1)">
		<rect x="186.733" y="412.52" style="fill:#2296F3;" width="136.533" height="77.397"/>
		<path style="fill:#283593;" d="M41.667,84.328h426.667c18.851,0,34.133,15.282,34.133,34.133v281.6
			c0,18.851-15.282,34.133-34.133,34.133H41.667c-18.851,0-34.133-15.282-34.133-34.133v-281.6
			C7.533,99.61,22.815,84.328,41.667,84.328z"/>
		<path style="fill:#3F51B5;" d="M41.667,84.328h401.067c18.851,0,34.133,15.282,34.133,34.133v281.6
			c0,18.851-15.282,34.133-34.133,34.133H41.667c-18.851,0-34.133-15.282-34.133-34.133v-281.6
			C7.533,99.61,22.815,84.328,41.667,84.328z"/>
		<path style="fill:#607D8B;" d="M502.467,118.461v247.467H7.533l0-247.467c-0.003-9.054,3.593-17.737,9.995-24.139
			c6.402-6.402,15.085-9.997,24.139-9.995h426.667c9.054-0.003,17.737,3.593,24.139,9.995
			C498.874,100.725,502.469,109.408,502.467,118.461z"/>
		<path style="fill:#CFD8DC;" d="M476.867,118.461v247.467H7.533l0-247.467c-0.003-9.054,3.593-17.737,9.995-24.139
			c6.402-6.402,15.085-9.997,24.139-9.995h401.067c9.053-0.003,17.737,3.593,24.139,9.995
			C473.274,100.725,476.869,109.408,476.867,118.461z"/>
		<path style="fill:#3F51B5;" d="M127,468.328h256c4.713,0,8.533,3.821,8.533,8.533v17.067c0,4.713-3.82,8.533-8.533,8.533H127
			c-4.713,0-8.533-3.82-8.533-8.533v-17.067C118.467,472.149,122.287,468.328,127,468.328z"/>
		<path style="fill:#02A9F4;" d="M432.323,161.128h-34.56c-1.371-8.048-3.455-15.959-6.229-23.637l29.867-17.323
			c-6.329-15.932-14.954-30.852-25.6-44.288l-29.952,17.323c-5.251-6.275-11.048-12.072-17.323-17.323l17.323-29.952
			c-13.436-10.646-28.357-19.271-44.288-25.6l-17.323,29.867c-7.679-2.774-15.589-4.858-23.637-6.229V9.405
			c-16.975-2.503-34.225-2.503-51.2,0v34.56c-8.048,1.371-15.959,3.456-23.637,6.229L188.44,20.328
			c-15.932,6.329-30.852,14.954-44.288,25.6l17.323,29.952c-6.275,5.251-12.072,11.048-17.323,17.323L114.2,75.88
			c-10.646,13.436-19.271,28.356-25.6,44.288l29.867,17.323c-2.774,7.679-4.859,15.589-6.229,23.637h-34.56
			c-1.274,8.473-1.901,17.031-1.878,25.6h68.268c0-61.267,49.667-110.933,110.934-110.933s110.934,49.667,110.934,110.933h68.268
			C434.225,178.16,433.597,169.602,432.323,161.128z"/>
		<path style="fill:#FFEB3A;" d="M161.133,280.595c0.004,18.887-10.393,36.242-27.047,45.15c-16.655,8.908-36.861,7.92-52.569-2.568
			l28.416-42.581l50.432-8.448C160.882,274.933,161.14,277.761,161.133,280.595z"/>
		<path style="fill:#E91E63;" d="M109.933,229.395v51.2l-28.416,42.581c-18.766-12.518-27.126-35.844-20.584-57.433
			C67.474,244.155,87.376,229.392,109.933,229.395z"/>
		<path style="fill:#3F51B5;" d="M160.365,272.147l-50.432,8.448v-51.2C134.927,229.422,156.247,247.495,160.365,272.147z"/>
		<rect x="263.533" y="229.395" style="fill:#AD1457;" width="187.733" height="34.133"/>
		<g>
			<rect x="203.8" y="263.528" style="fill:#607D8B;" width="59.733" height="68.267"/>
			<rect x="203.8" y="229.395" style="fill:#607D8B;" width="59.733" height="34.133"/>
			<rect x="263.533" y="263.528" style="fill:#607D8B;" width="187.733" height="68.267"/>
		</g>
		<rect x="263.533" y="229.395" style="fill:#E91E63;" width="162.133" height="34.133"/>
		<g>
			<rect x="263.533" y="263.528" style="fill:#CFD8DC;" width="162.133" height="68.267"/>
			<path style="fill:#CFD8DC;" d="M365.933,186.728H144.067c0-61.267,49.667-110.933,110.933-110.933
				S365.933,125.461,365.933,186.728z"/>
		</g>
	</g>
	<g>
		<path d="M469.333,76.795h-62.008c-1.284-1.741-2.501-3.533-3.846-5.225c-2.629-3.313-7.29-4.198-10.95-2.079l-23.896,13.821
			c-2.633-2.854-5.363-5.583-8.217-8.217l13.821-23.896c2.117-3.661,1.232-8.32-2.079-10.95
			c-14.086-11.167-29.731-20.212-46.437-26.846c-3.933-1.577-8.427-0.023-10.546,3.646l-13.833,23.858
			c-3.725-1.146-7.462-2.135-11.209-2.967V10.407c0-4.212-3.074-7.794-7.237-8.433c-17.834-2.625-35.957-2.625-53.792,0
			c-4.164,0.639-7.238,4.221-7.238,8.433v27.533c-3.742,0.833-7.478,1.822-11.208,2.967l-13.833-23.858
			c-2.122-3.666-6.613-5.218-10.546-3.646c-16.706,6.634-32.351,15.679-46.437,26.846c-3.311,2.63-4.196,7.289-2.079,10.95
			l13.821,23.896c-2.854,2.633-5.583,5.363-8.217,8.217L119.471,69.49c-3.661-2.115-8.319-1.23-10.95,2.079
			c-1.345,1.692-2.562,3.484-3.846,5.225H42.667C19.114,76.822,0.028,95.908,0,119.461v281.6
			c0.028,23.553,19.114,42.639,42.667,42.667H179.2v17.067h-59.733c-4.713,0-8.533,3.82-8.533,8.533v34.133
			c0,4.713,3.821,8.533,8.533,8.533h273.067c4.713,0,8.533-3.821,8.533-8.533v-34.133c0-4.713-3.82-8.533-8.533-8.533H332.8v-17.067
			h136.533c23.553-0.028,42.639-19.114,42.667-42.667v-281.6C511.972,95.909,492.886,76.823,469.333,76.795z M140.879,101.591
			c3.588,2.08,8.153,1.274,10.813-1.908c4.927-5.893,10.369-11.336,16.262-16.262c3.178-2.662,3.984-7.223,1.908-10.813
			l-13.558-23.433c9.237-6.677,19.133-12.392,29.533-17.054l13.542,23.354c2.066,3.568,6.388,5.146,10.267,3.75
			c7.203-2.599,14.622-4.554,22.171-5.842c4.108-0.694,7.116-4.251,7.117-8.417v-27.05c11.35-1.133,22.784-1.133,34.133,0v27.05
			c0.001,4.166,3.009,7.723,7.117,8.417c7.548,1.288,14.968,3.243,22.171,5.842c3.879,1.399,8.203-0.181,10.267-3.75l13.542-23.354
			c10.401,4.662,20.297,10.377,29.533,17.054l-13.558,23.433c-2.075,3.589-1.27,8.151,1.908,10.813
			c5.893,4.927,11.336,10.369,16.262,16.262c2.662,3.178,7.223,3.982,10.813,1.908l23.433-13.558
			c6.677,9.237,12.392,19.133,17.054,29.533l-23.354,13.542c-3.566,2.067-5.144,6.388-3.75,10.267
			c2.599,7.203,4.554,14.622,5.842,22.171c0.694,4.108,4.251,7.116,8.417,7.117h27.05c0.283,2.758,0.284,5.685,0.427,8.533h-51.205
			C370.626,116.704,318.646,68.261,256,68.261s-114.626,48.443-119.034,110.934H85.76c0.143-2.848,0.144-5.775,0.427-8.533h27.051
			c4.166-0.001,7.723-3.009,8.417-7.117c1.288-7.548,3.243-14.968,5.842-22.171c1.394-3.879-0.184-8.199-3.75-10.267l-23.354-13.542
			c4.662-10.401,10.377-20.297,17.054-29.533L140.879,101.591z M357.968,179.195H154.032c4.397-53.05,48.736-93.866,101.968-93.866
			S353.571,126.145,357.968,179.195z M42.667,93.861h50.707c-4.473,7.758-8.383,15.828-11.699,24.146
			c-1.57,3.933-0.018,8.422,3.646,10.546l23.858,13.833c-1.146,3.725-2.135,7.461-2.966,11.208H78.679
			c-4.212,0-7.794,3.074-8.433,7.237c-0.881,6.087-1.439,12.216-1.67,18.363h-8.843c-4.713,0-8.533,3.821-8.533,8.533
			s3.821,8.533,8.533,8.533h392.533c4.713,0,8.533-3.821,8.533-8.533s-3.82-8.533-8.533-8.533h-8.843
			c-0.231-6.146-0.788-12.276-1.67-18.363c-0.639-4.164-4.221-7.238-8.433-7.237h-27.533c-0.833-3.742-1.822-7.478-2.967-11.208
			l23.858-13.833c3.664-2.124,5.216-6.613,3.646-10.546c-3.317-8.318-7.226-16.388-11.699-24.146h50.707
			c14.132,0.015,25.585,11.468,25.6,25.6v238.933H17.067V119.461C17.082,105.329,28.535,93.877,42.667,93.861z M384,494.928H128
			v-17.067h256V494.928z M315.733,460.795H196.267v-17.067h119.467V460.795z M469.333,426.661H42.667
			c-14.132-0.015-25.585-11.468-25.6-25.6v-25.6h477.867v25.6C494.918,415.194,483.465,426.646,469.333,426.661z"/>
		<path d="M77.701,331.199l0.079,0.079c0.071,0.047,0.153,0.061,0.225,0.106c19.792,13.277,45.596,13.466,65.58,0.479
			s30.293-36.643,26.199-60.122v-0.005l-0.002-0.004c-4.495-26.869-26.608-47.287-53.75-49.629
			c-27.142-2.342-52.426,13.987-61.456,39.689C45.545,287.494,55.059,316.049,77.701,331.199z M110.933,324.262
			c-5.516-0.009-10.977-1.096-16.077-3.198l21.129-31.662l37.46-6.277C152.638,306.036,133.859,324.207,110.933,324.262z
			 M150.642,266.289l-31.175,5.222v-31.721C133.686,242.751,145.429,252.732,150.642,266.289z M102.4,239.791v39.215l-21.749,32.591
			C69.607,300.48,65.554,284.2,70.097,269.203C74.639,254.206,87.044,242.911,102.4,239.791z"/>
		<path d="M204.8,341.328h247.467c4.713,0,8.533-3.82,8.533-8.533v-102.4c0-4.713-3.82-8.533-8.533-8.533H204.8
			c-4.713,0-8.533,3.821-8.533,8.533v102.4C196.267,337.508,200.087,341.328,204.8,341.328z M213.333,273.061H256v51.2h-42.667
			V273.061z M273.067,324.262v-51.2h170.667v51.2H273.067z M443.733,255.995H273.067v-17.067h170.667V255.995z M256,238.928v17.067
			h-42.667v-17.067H256z"/>
		<path d="M315.733,290.128h-17.067c-4.713,0-8.533,3.821-8.533,8.533s3.82,8.533,8.533,8.533h17.067
			c4.713,0,8.533-3.82,8.533-8.533S320.446,290.128,315.733,290.128z"/>
		<path d="M366.933,290.128h-17.067c-4.713,0-8.533,3.821-8.533,8.533s3.821,8.533,8.533,8.533h17.067
			c4.713,0,8.533-3.82,8.533-8.533S371.646,290.128,366.933,290.128z"/>
		<path d="M418.133,290.128h-17.067c-4.713,0-8.533,3.821-8.533,8.533s3.82,8.533,8.533,8.533h17.067
			c4.713,0,8.533-3.82,8.533-8.533S422.846,290.128,418.133,290.128z"/>
	</g>
</g>
<g>
</g>
<g>
</g>
<g>
</g>
<g>
</g>
<g>
</g>
<g>
</g>
<g>
</g>
<g>
</g>
<g>
</g>
<g>
</g>
<g>
</g>
<g>
</g>
<g>
</g>
<g>
</g>
<g>
</g>
</svg>
