<?xml version="1.0" encoding="UTF-8"?>
<svg width="36px" height="36px" viewBox="0 0 36 36" version="1.1" xmlns="http://www.w3.org/2000/svg" xmlns:xlink="http://www.w3.org/1999/xlink">
    <!-- Generator: Sketch 47.1 (45422) - http://www.bohemiancoding.com/sketch -->
    <title>appIcon</title>
    <desc>Created with Sketch.</desc>
    <defs></defs>
    <g id="Page-1" stroke="none" stroke-width="1" fill="none" fill-rule="evenodd">
        <g id="appIcon" stroke="#0B8FFF">
            <path d="M18.0002247,4.96153846 C9.26322469,4.96153846 0.772058824,17.8351648 0.772058824,17.8351648 C0.772058824,17.8351648 9.26322469,30.7087912 18.0002247,30.7087912 C26.7372247,30.7087912 35.2279412,17.8351648 35.2279412,17.8351648 C35.2279412,17.8351648 26.7372247,4.96153846 18.0002247,4.96153846 M26.2416451,17.6965602 C26.2416451,22.192413 22.5968736,25.8370071 18.1010839,25.8370071 C13.6048371,25.8370071 9.96029412,22.192413 9.96029412,17.6965602 C9.96029412,13.2004788 13.6048371,9.55565611 18.1010839,9.55565611 C22.5968736,9.55565611 26.2416451,13.2004788 26.2416451,17.6965602 Z M20.9501988,17.8323465 C19.7105572,17.8323465 18.7054362,16.8271971 18.7054362,15.5872945 C18.7054362,14.7290915 19.1871178,13.9837504 19.8947428,13.6058883 C19.4543676,13.4379496 18.9787804,13.3420168 18.4797185,13.3420168 C16.283711,13.3420168 14.503927,15.1220771 14.503927,17.3179213 C14.503927,19.5133139 16.283711,21.2933743 18.4797185,21.2933743 C20.6750489,21.2933743 22.4552844,19.5133139 22.4552844,17.3179213 C22.4552844,17.2958003 22.4521244,17.2745822 22.4516729,17.252687 C22.0537326,17.6118141 21.5284875,17.8323465 20.9501988,17.8323465 Z" id="Combined-Shape"></path>
        </g>
    </g>
</svg>