<?xml version="1.0" encoding="UTF-8"?>
<svg width="24px" height="24px" viewBox="0 0 24 24" version="1.1" xmlns="http://www.w3.org/2000/svg" xmlns:xlink="http://www.w3.org/1999/xlink">
    <!-- Generator: Sketch 47.1 (45422) - http://www.bohemiancoding.com/sketch -->
    <title>build</title>
    <desc>Created with Sketch.</desc>
    <defs></defs>
    <g id="Page-1" stroke="none" stroke-width="1" fill="none" fill-rule="evenodd">
        <g id="build" stroke="#0080FF" stroke-width="0.4" fill="#0080FF" fill-rule="nonzero">
            <g id="wrench" transform="translate(2.000000, 3.000000)">
                <path d="M17.4705791,1.55269916 L16.4459043,0.527826266 C15.7776642,-0.140543026 14.6516743,-0.179417975 13.9358074,0.441215413 L12.1349496,2.0025426 C12.1119022,2.02252972 12.0921188,2.0460479 12.0763986,2.07219772 L10.3233674,4.99284894 L9.19777717,5.36810711 C9.10265686,5.39982001 9.03075044,5.47853595 9.00773639,5.57610641 C8.98472234,5.67367687 9.01383129,5.77621079 9.08470524,5.84713176 L12.1523017,8.91528792 C12.2071891,8.97015257 12.2810272,9 12.3568304,9 C12.3789785,9 12.4012598,8.9974683 12.4232747,8.99227165 C12.5208263,8.96925315 12.599527,8.89733283 12.6312338,8.80219414 L13.0065193,7.67601986 L15.9695368,5.88650638 C15.9956149,5.87071656 16.0190619,5.85096262 16.0389786,5.82784419 L17.563035,4.06134921 C18.1800847,3.34621006 18.1385528,2.22083526 17.4705791,1.55269916 Z M17.1251352,3.68335946 L15.6311536,5.41497691 L12.6163462,7.23577023 C12.5574956,7.27131399 12.5132326,7.32667831 12.4914842,7.39196957 L12.2304696,8.17519818 L11.5392154,7.48381039 C11.5390822,7.48367714 11.5389823,7.48351058 11.538849,7.48337734 L10.5162725,6.46066972 C10.5161725,6.46056978 10.5160393,6.46050316 10.5159394,6.46040322 L9.82461863,5.76894881 L10.6076959,5.50788371 C10.6731743,5.48603112 10.7286945,5.44152647 10.7641981,5.38236459 L12.5486363,2.40951368 L14.31469,0.878367039 C14.8060449,0.452308264 15.5785977,0.478558015 16.036847,0.936962612 L17.0615552,1.9618355 C17.5200377,2.42034003 17.5485471,3.19264235 17.1251352,3.68335946 Z" id="Shape"></path>
                <path d="M16.0406113,12.4103415 C15.1667118,11.5364807 13.8805069,11.2327289 12.715159,11.6105164 L6.38946456,5.2848543 C6.76721977,4.11951236 6.46346633,2.83327977 5.58963536,1.95938471 C4.66898344,1.03880605 3.29071337,0.75082102 2.07823605,1.22602031 C1.98476555,1.26266111 1.916008,1.34396324 1.89547671,1.44226615 C1.87494542,1.54053479 1.90534818,1.64257376 1.97636794,1.71359315 L3.86980548,3.60698675 L2.6069768,4.86977471 L0.713573532,2.97634684 C0.642519495,2.90536172 0.540617107,2.87502766 0.442245142,2.89545602 C0.343941728,2.9159872 0.262604908,2.98471013 0.225998197,3.07821443 C-0.249134969,4.290617 0.0387487032,5.66891431 0.959366342,6.5895958 C1.83326587,7.46345658 3.11947075,7.76727702 4.28481864,7.38942092 L6.65013313,9.75472333 L3.70456115,12.7003488 L1.83110648,13.7478164 C1.77900704,13.7769508 1.73684763,13.821098 1.71014667,13.8744996 L0.868295153,15.5581941 C0.810985771,15.672778 0.833436515,15.8111835 0.924027841,15.9018087 L1.97633366,16.9541434 C2.03347167,17.0112811 2.1096671,17.0413067 2.1868908,17.0413067 C2.23210077,17.0413067 2.27765351,17.031024 2.31995003,17.0098758 L4.00365305,16.1680286 C4.05705498,16.1413278 4.1012024,16.0991686 4.13033695,16.0470694 L5.17780987,14.17359 L8.1234504,11.2280674 L10.6105473,13.7151516 C10.2327579,14.8804935 10.5365456,16.1667261 11.4104108,17.0406212 C12.0363924,17.6665653 12.8738566,18 13.7269849,18 C14.1285619,17.9999657 14.5337036,17.9260672 14.9217758,17.7740198 C15.0152463,17.737379 15.0840039,17.6560769 15.1045352,17.557774 C15.1250665,17.4595054 15.0946637,17.3574664 15.023644,17.286447 L13.1302064,15.3930191 L14.3930008,14.1302654 L16.2864041,16.023659 C16.3574238,16.0946784 16.4593948,16.1251496 16.5577325,16.1045499 C16.6560359,16.0840187 16.7373727,16.0152958 16.7739794,15.9217914 C17.2491469,14.7093203 16.9612632,13.331023 16.0406113,12.4103415 Z M4.72762959,13.781818 C4.70826368,13.8011838 4.6917084,13.8231203 4.67834078,13.8470447 L3.65544372,15.6765483 L2.2456055,16.3814638 L1.49667607,15.6325382 L2.20156091,14.2226729 L4.03103953,13.1998154 C4.05496414,13.1864478 4.07690075,13.1698926 4.09626666,13.1505268 L7.07104175,10.1757326 L7.70243896,10.8071266 L4.72762959,13.781818 Z M16.353345,15.2486496 L14.6034894,13.4988029 C14.4872254,13.382608 14.2988105,13.382608 14.1825465,13.4988029 L12.4988435,15.1824973 C12.4430422,15.2383326 12.4116798,15.3140135 12.4116798,15.3929848 C12.4116798,15.4719562 12.4430422,15.5476029 12.4988435,15.6034724 L14.2487334,17.3533533 C13.3810721,17.5257604 12.4711485,17.259472 11.8313537,16.6196804 C11.0780712,15.8664018 10.8424927,14.7385576 11.2312847,13.7464454 C11.2744381,13.636283 11.2482856,13.5110394 11.1646523,13.4273722 L4.57259948,6.83538735 C4.51570141,6.77852385 4.43957454,6.74822407 4.36204235,6.74822407 C4.32557274,6.74822407 4.28876037,6.75494212 4.2535247,6.76875526 C3.26144171,7.1575796 2.13359171,6.92193368 1.38027496,6.16872361 C0.740445873,5.52886351 0.474121772,4.61891034 0.646632609,3.75132202 L2.39648821,5.50120296 C2.51275222,5.6174321 2.7011671,5.61736355 2.81743111,5.50120296 L4.50113414,3.81750854 C4.61736387,3.70124512 4.61736387,3.51283121 4.50113414,3.39656779 L2.75127853,1.64668685 C3.61893983,1.47393696 4.52879482,1.74046536 5.16865819,2.38035973 C5.92194066,3.13363835 6.15751923,4.2614826 5.76872718,5.25359479 C5.72557376,5.36375712 5.75172631,5.48900079 5.83535962,5.57266795 L12.4273439,12.1645842 C12.5110457,12.2482171 12.6363586,12.2743695 12.7464186,12.2312163 C13.7385702,11.8425291 14.8663516,12.0780036 15.6196684,12.831248 C16.259566,13.4711081 16.5258216,14.3810955 16.353345,15.2486496 Z" id="Shape"></path>
            </g>
        </g>
    </g>
</svg>