<?xml version="1.0" encoding="utf-8"?>
<!-- Generator: Adobe Illustrator 21.1.0, SVG Export Plug-In . SVG Version: 6.00 Build 0)  -->
<svg version="1.1" id="Layer_1" xmlns="http://www.w3.org/2000/svg" xmlns:xlink="http://www.w3.org/1999/xlink" x="0px" y="0px"
	 viewBox="0 0 24 24" style="enable-background:new 0 0 24 24;" xml:space="preserve">
<style type="text/css">
	.st0{fill:none;}
</style>
<title>clean</title>
<desc>Created with Sketch.</desc>
<g id="Page-1">
	<g id="clean">
		<g id="eraser" transform="translate(2.000000, 4.000000)">
			
				<rect id="Rectangle-path" x="7.4" y="2.8" transform="matrix(0.7071 -0.7071 0.7071 0.7071 -1.3229 10.4062)" class="st0" width="9.1" height="7.9"/>
			<g>
				<path id="Shape_1_" d="M18.7,15.9h-7.9l8.3-8.5c0.2-0.2,0.2-0.6,0-0.8l-6.3-6.4C12.7,0.1,12.6,0,12.4,0c-0.1,0-0.3,0.1-0.4,0.2
					L0.2,12.3c-0.2,0.2-0.2,0.6,0,0.8l3.6,3.7C3.9,16.9,4,17,4.2,17h14.6c0.3,0,0.6-0.3,0.6-0.6C19.3,16.1,19,15.9,18.7,15.9z
					 M12.4,1.4L17.9,7l-6.5,6.7L5.9,8L12.4,1.4z M9.3,15.9H4.4l-3-3.1l3.8-3.9l5.5,5.6L9.3,15.9z"/>
				<path d="M18.7,17.2H4.1c-0.2,0-0.4-0.1-0.5-0.2L0,13.3c-0.3-0.3-0.3-0.8,0-1.1L11.9,0c0.3-0.3,0.8-0.3,1.1,0l6.3,6.4
					c0.3,0.3,0.3,0.8,0,1.1l-7.9,8.1h7.4c0.4,0,0.8,0.3,0.8,0.8C19.5,16.9,19.1,17.2,18.7,17.2z M12.4,0.2c-0.1,0-0.2,0-0.2,0.1
					L0.3,12.5c-0.1,0.1-0.1,0.4,0,0.5l3.6,3.7c0.1,0.1,0.2,0.1,0.2,0.1h14.6c0.2,0,0.4-0.2,0.4-0.4c0-0.2-0.2-0.4-0.4-0.4h-8.4
					L19,7.3c0.1-0.1,0.1-0.4,0-0.5l-6.3-6.4C12.6,0.2,12.5,0.2,12.4,0.2z M9.4,16.1H4.3l-3.2-3.3l4.1-4.2l5.8,5.9L9.4,16.1z
					 M4.5,15.7h4.7l1.2-1.2L5.2,9.1l-3.5,3.6L4.5,15.7z M11.4,13.9L5.7,8l6.8-6.9L18.2,7L11.4,13.9z M6.2,8l5.2,5.3L17.7,7l-5.2-5.3
					L6.2,8z"/>
			</g>
		</g>
	</g>
</g>
</svg>
