<?xml version="1.0" encoding="UTF-8"?>
<svg width="24px" height="24px" viewBox="0 0 24 24" version="1.1" xmlns="http://www.w3.org/2000/svg" xmlns:xlink="http://www.w3.org/1999/xlink">
    <!-- Generator: Sketch 47.1 (45422) - http://www.bohemiancoding.com/sketch -->
    <title>clean</title>
    <desc>Created with Sketch.</desc>
    <defs></defs>
    <g id="Page-1" stroke="none" stroke-width="1" fill="none" fill-rule="evenodd">
        <g id="clean">
            <g id="eraser" transform="translate(2.000000, 4.000000)">
                <rect id="Rectangle-path" transform="translate(11.900000, 6.800000) rotate(45.000000) translate(-11.900000, -6.800000) " x="7.93333333" y="2.26666667" width="7.93333333" height="9.06666667"></rect>
                <path d="M18.7145396,15.8685366 L10.8364865,15.8685366 L19.1049827,7.39569064 C19.3205613,7.17468734 19.3205613,6.81654696 19.1049827,6.59563795 L12.8301523,0.16565819 C12.7265494,0.0595879205 12.5861886,0 12.4397552,0 C12.2933678,0 12.152961,0.0595879205 12.0494501,0.16565819 L0.161753023,12.3473337 C-0.0539176744,12.5682427 -0.0539176744,12.9263831 0.161753023,13.1473864 L3.75974568,16.8342475 C3.86325658,16.9404121 4.00370936,17 4.15005076,17 L18.7145396,17 C19.0194136,17 19.2665977,16.7467042 19.2665977,16.4342919 C19.2665977,16.1218325 19.0194136,15.8685366 18.7145396,15.8685366 Z M12.4397092,1.36576079 L17.9337914,6.99568786 L11.4362516,13.6538837 L5.94221537,8.02395663 L12.4397092,1.36576079 Z M9.27499012,15.8685366 L4.37874083,15.8685366 L1.33280627,12.7472893 L5.1614672,8.82396218 L10.6555494,14.4538892 L9.27499012,15.8685366 Z" id="Shape" stroke="#0080FF" stroke-width="0.4" fill="#0080FF" fill-rule="nonzero"></path>
            </g>
        </g>
    </g>
</svg>