<?xml version="1.0" encoding="utf-8"?>
<!-- Generator: Adobe Illustrator 21.1.0, SVG Export Plug-In . SVG Version: 6.00 Build 0)  -->
<svg version="1.1" id="Layer_1" xmlns="http://www.w3.org/2000/svg" xmlns:xlink="http://www.w3.org/1999/xlink" x="0px" y="0px"
	 viewBox="0 0 16 16" style="enable-background:new 0 0 16 16;" xml:space="preserve">
<title>closeIcon</title>
<desc>Created with Sketch.</desc>
<g id="Page-1">
	<g id="closeIcon">
		<path id="Shape" d="M9.2,8l5.2-5.2c0.3-0.3,0.3-0.8,0-1.2c-0.3-0.3-0.8-0.3-1.2,0L8,6.8L2.8,1.6C2.5,1.3,2,1.3,1.6,1.6
			C1.3,2,1.3,2.5,1.6,2.8L6.8,8l-5.2,5.2c-0.3,0.3-0.3,0.8,0,1.2c0.2,0.2,0.4,0.2,0.6,0.2c0.2,0,0.4-0.1,0.6-0.2L8,9.2l5.2,5.2
			c0.2,0.2,0.4,0.2,0.6,0.2c0.2,0,0.4-0.1,0.6-0.2c0.3-0.3,0.3-0.8,0-1.2L9.2,8z"/>
	</g>
</g>
</svg>
