<?xml version="1.0" encoding="UTF-8"?>
<svg width="16px" height="16px" viewBox="0 0 16 16" version="1.1" xmlns="http://www.w3.org/2000/svg" xmlns:xlink="http://www.w3.org/1999/xlink">
    <!-- Generator: Sketch 47.1 (45422) - http://www.bohemiancoding.com/sketch -->
    <title>closeIcon</title>
    <desc>Created with Sketch.</desc>
    <defs></defs>
    <g id="Page-1" stroke="none" stroke-width="1" fill="none" fill-rule="evenodd">
        <g id="closeIcon" fill-rule="nonzero" fill="#4A4A4A">
            <path d="M8.88438848,8.00010423 L12.8167643,4.06756447 C13.0610786,3.82344848 13.0610786,3.42735934 12.8167643,3.18324334 C12.57245,2.93891889 12.1767943,2.93891889 11.93248,3.18324334 L8.00010423,7.11578311 L4.06751996,3.18324334 C3.82320569,2.93891889 3.42754998,2.93891889 3.1832357,3.18324334 C2.93892143,3.42735934 2.93892143,3.82344848 3.1832357,4.06756447 L7.11581997,8.00010423 L3.1832357,11.932644 C2.93892143,12.17676 2.93892143,12.5728491 3.1832357,12.8169651 C3.30539284,12.9389189 3.46548957,13 3.62537783,13 C3.7852661,13 3.94536282,12.9389189 4.06751996,12.8167567 L8.00010423,8.88421689 L11.93248,12.8167567 C12.0546372,12.9389189 12.2147339,13 12.3746222,13 C12.5345104,13 12.6946072,12.9389189 12.8167643,12.8167567 C13.0610786,12.5726407 13.0610786,12.1765515 12.8167643,11.9324355 L8.88438848,8.00010423 Z" id="Shape"></path>
        </g>
    </g>
</svg>