<?xml version="1.0" encoding="iso-8859-1"?>
<!-- Generator: Adobe Illustrator 19.0.0, SVG Export Plug-In . SVG Version: 6.00 Build 0)  -->
<svg version="1.1" id="Capa_1" xmlns="http://www.w3.org/2000/svg" xmlns:xlink="http://www.w3.org/1999/xlink" x="0px" y="0px"
	 viewBox="0 0 512 512" style="enable-background:new 0 0 512 512;" xml:space="preserve">
<g>
	<g transform="translate(1 1)">
		<path style="fill:#CFD8DC;" d="M502.467,41.667v452.267c-0.014,4.707-3.826,8.52-8.533,8.533H16.067
			c-4.707-0.014-8.52-3.826-8.533-8.533V41.667H502.467z"/>
		<path style="fill:#F5F5F5;" d="M476.869,41.667l-0.002,452.267c0.105,4.585-3.508,8.395-8.092,8.533H15.625
			c-4.584-0.138-8.197-3.949-8.092-8.533L7.531,41.667H476.869z"/>
		<path style="fill:#00838F;" d="M502.467,16.067v42.667H7.533V16.067c0.014-4.707,3.826-8.52,8.533-8.533h477.867
			C498.641,7.547,502.453,11.36,502.467,16.067z"/>
		<path style="fill:#00BCD4;" d="M476.867,16.067l0.002,42.667H7.531l0.002-42.667c-0.105-4.585,3.508-8.395,8.092-8.533h453.149
			C473.358,7.671,476.972,11.482,476.867,16.067z"/>
		<path style="fill:#02A9F4;" d="M41.667,144.067H152.6c4.713,0,8.533,3.82,8.533,8.533v68.267c0,4.713-3.821,8.533-8.533,8.533
			H50.2c-4.713,0-8.533-3.821-8.533-8.533V144.067z"/>
		<path style="fill:#3F51B5;" d="M50.2,109.933h42.667c4.713,0,8.533,3.821,8.533,8.533v25.6H41.667v-25.6
			C41.667,113.754,45.487,109.933,50.2,109.933z"/>
		<path style="fill:#FEC108;" d="M50.2,365.933h110.933c4.713,0,8.533,3.821,8.533,8.533V459.8c0,4.713-3.821,8.533-8.533,8.533
			H50.2c-4.713,0-8.533-3.82-8.533-8.533v-85.333C41.667,369.754,45.487,365.933,50.2,365.933z"/>
		<path style="fill:#E4C05C;" d="M75.8,400.067c-4.024-0.039-7.462-2.911-8.218-6.863c-0.756-3.953,1.38-7.89,5.105-9.412
			c3.726-1.522,8.007-0.205,10.235,3.146c2.227,3.352,1.783,7.809-1.063,10.654C80.222,399.15,78.059,400.033,75.8,400.067z"/>
		<path style="fill:#8BC34A;" d="M169.667,451.267v8.533c-0.014,4.707-3.826,8.52-8.533,8.533H50.2
			c-4.707-0.014-8.52-3.826-8.533-8.533v-8.533L75.8,417.133l21.333,21.333L127,408.6L169.667,451.267z"/>
		<path style="fill:#FFEB3A;" d="M348.867,109.933H459.8c4.713,0,8.533,3.82,8.533,8.533V203.8c0,4.713-3.82,8.533-8.533,8.533
			H348.867c-4.713,0-8.533-3.821-8.533-8.533v-85.333C340.333,113.754,344.154,109.933,348.867,109.933z"/>
		<ellipse style="fill:#CFD8DC;" cx="404.333" cy="374.467" rx="55.467" ry="17.067"/>
		<g>
			<path style="fill:#607D8B;" d="M459.8,408.6v34.133c0,9.387-24.831,17.067-55.467,17.067s-55.467-7.68-55.467-17.067V408.6
				c0,9.387,24.831,17.067,55.467,17.067S459.8,417.987,459.8,408.6z"/>
			<path style="fill:#607D8B;" d="M459.8,374.467V408.6c0,9.387-24.831,17.067-55.467,17.067s-55.467-7.68-55.467-17.067v-34.133
				c0,9.387,24.831,17.067,55.467,17.067S459.8,383.853,459.8,374.467z"/>
		</g>
		<circle style="fill:#02A9F4;" cx="259.267" cy="284.867" r="64"/>
	</g>
	<g>
		<path d="M494.933,0H17.067C7.645,0.011,0.011,7.645,0,17.067v477.867c0.011,9.421,7.645,17.056,17.067,17.067h477.867
			c9.421-0.011,17.056-7.645,17.067-17.067V17.067C511.989,7.645,504.355,0.011,494.933,0z M494.933,17.067V51.2H17.067V17.067
			H494.933z M17.067,494.933V68.267h477.868l0.008,426.667H17.067z"/>
		<path d="M42.667,42.667h51.2c4.713,0,8.533-3.821,8.533-8.533S98.579,25.6,93.867,25.6h-51.2c-4.713,0-8.533,3.821-8.533,8.533
			S37.954,42.667,42.667,42.667z"/>
		<path d="M128,42.667h17.067c4.713,0,8.533-3.821,8.533-8.533s-3.821-8.533-8.533-8.533H128c-4.713,0-8.533,3.821-8.533,8.533
			S123.287,42.667,128,42.667z"/>
		<path d="M179.2,42.667h17.067c4.713,0,8.533-3.821,8.533-8.533s-3.821-8.533-8.533-8.533H179.2c-4.713,0-8.533,3.821-8.533,8.533
			S174.487,42.667,179.2,42.667z"/>
		<path d="M230.4,42.667h17.067c4.713,0,8.533-3.821,8.533-8.533s-3.82-8.533-8.533-8.533H230.4c-4.713,0-8.533,3.821-8.533,8.533
			S225.687,42.667,230.4,42.667z"/>
		<path d="M281.6,42.667h17.067c4.713,0,8.533-3.821,8.533-8.533s-3.82-8.533-8.533-8.533H281.6c-4.713,0-8.533,3.821-8.533,8.533
			S276.887,42.667,281.6,42.667z"/>
		<path d="M469.333,42.667h8.533c4.713,0,8.533-3.821,8.533-8.533s-3.82-8.533-8.533-8.533h-8.533c-4.713,0-8.533,3.821-8.533,8.533
			S464.621,42.667,469.333,42.667z"/>
		<path d="M460.8,102.4H349.867c-9.421,0.011-17.056,7.645-17.067,17.067v34.622c-25.87,2.597-63.391,17.259-67.777,59.485
			c-1.579-0.103-3.151-0.241-4.756-0.241c-4.689,0.007-9.365,0.469-13.965,1.379c-1.842-16.24-9.455-31.279-21.452-42.379
			c-15.291-12.479-34.474-19.202-54.21-18.996c-0.145-9.311-7.727-16.788-17.04-16.804h-42.667v-17.067
			c-0.011-9.421-7.645-17.056-17.067-17.067H51.2c-9.421,0.011-17.056,7.645-17.067,17.067v102.4
			c0.011,9.421,7.645,17.056,17.067,17.067h102.4c9.421-0.011,17.056-7.645,17.067-17.067v-51.443
			c15.559-0.175,30.703,5.015,42.883,14.697c9.609,9.226,15.404,21.724,16.237,35.019c-21.498,10.002-36.764,29.865-40.897,53.213
			c-21.427,0.184-41.869,9.028-56.674,24.518c-14.044,17.03-21.652,38.456-21.493,60.529H51.2
			c-9.421,0.011-17.056,7.645-17.067,17.067V460.8c0.011,9.421,7.645,17.056,17.067,17.067h110.933
			c9.421-0.011,17.056-7.645,17.067-17.067v-85.333c-0.011-9.421-7.645-17.056-17.067-17.067h-34.317
			c-0.136-17.871,5.915-35.24,17.125-49.158c11.333-11.648,26.777-18.394,43.023-18.796c2.274,36.518,31.416,65.61,67.937,67.822
			c36.522,2.212,68.961-23.152,75.625-59.128c16.612,1.783,55.8,10.426,60.434,51.211c-25.644,1.802-50.628,9.031-50.628,25.116
			v68.267c0,20.208,40.233,25.6,64,25.6c23.767,0,64-5.392,64-25.6v-68.267c0-18.098-31.616-24.995-60.227-25.546
			c-4.531-48.775-47.573-65.268-76.5-67.881c-1.612-30.211-21.783-56.258-50.629-65.378c3.006-34.736,35.07-43.267,50.823-45.309
			V204.8c0.011,9.421,7.645,17.056,17.067,17.067H460.8c9.421-0.011,17.056-7.645,17.067-17.067v-85.333
			C477.856,110.045,470.221,102.411,460.8,102.4z M51.2,119.467h42.667v17.067H51.2V119.467z M51.2,221.867V153.6h102.4
			l0.009,68.267H51.2z M51.2,460.8v-5l25.6-25.6l9.623,9.623c-1.771,3.263-1.198,7.302,1.411,9.943c1.6,1.601,3.77,2.5,6.033,2.5
			c2.263,0,4.433-0.899,6.033-2.5l28.1-28.1l34.142,34.141v4.992H51.2z M162.14,431.672l-28.107-28.105
			c-1.6-1.601-3.77-2.5-6.033-2.5c-2.263,0-4.433,0.899-6.033,2.5l-23.834,23.834l-15.3-15.3c-1.6-1.601-3.77-2.5-6.033-2.5
			c-2.263,0-4.433,0.899-6.033,2.5L51.2,431.667v-56.2h110.933L162.14,431.672z M452.267,408.675
			c-3.107,3.405-19.531,9.458-46.933,9.458c-27.402,0-43.826-6.054-46.933-9.458v-14.739c15.106,5.108,30.992,7.522,46.933,7.131
			c15.941,0.391,31.828-2.022,46.933-7.131V408.675z M358.4,442.782v-14.712c15.106,5.108,30.992,7.522,46.933,7.131
			c15.941,0.391,31.828-2.022,46.933-7.131v14.712c-2.929,3.067-19.088,9.485-46.933,9.485
			C377.488,452.267,361.329,445.848,358.4,442.782z M405.333,384c-25.058,0-40.95-5.063-45.858-8.533
			c4.908-3.471,20.8-8.533,45.858-8.533s40.95,5.063,45.858,8.533C446.283,378.938,430.392,384,405.333,384z M277.852,256h-35.171
			c4.406-16.14,11.843-25.6,17.585-25.6C266.009,230.4,273.446,239.86,277.852,256z M315.733,285.867
			c-0.016,4.313-0.536,8.608-1.55,12.8h-16.102c0.36-4.145,0.585-8.4,0.585-12.8c0-4.4-0.225-8.655-0.585-12.8h16.102
			C315.197,277.258,315.718,281.554,315.733,285.867z M281.6,285.867c0.001,4.275-0.214,8.547-0.643,12.8h-41.381
			c-0.857-8.512-0.857-17.088,0-25.6h41.381C281.386,277.32,281.601,281.592,281.6,285.867z M260.267,341.333
			c-5.743,0-13.179-9.46-17.585-25.6h35.171C273.446,331.873,266.01,341.333,260.267,341.333z M204.8,285.867
			c0.016-4.313,0.536-8.608,1.55-12.8h16.102c-0.36,4.145-0.585,8.4-0.585,12.8c0,4.4,0.225,8.655,0.585,12.8H206.35
			C205.336,294.475,204.816,290.179,204.8,285.867z M230.415,239.194c-2.299,5.425-4.092,11.051-5.357,16.806h-11.455
			C217.935,249.256,223.669,243.525,230.415,239.194z M213.602,315.733h11.455c1.265,5.755,3.059,11.381,5.357,16.806
			C223.669,328.209,217.935,322.477,213.602,315.733z M290.119,332.539c2.299-5.425,4.092-11.051,5.357-16.806h11.455
			C302.598,322.477,296.864,328.209,290.119,332.539z M306.931,256h-11.455c-1.265-5.755-3.058-11.38-5.357-16.806
			C296.864,243.525,302.598,249.256,306.931,256z M349.867,204.8v-85.333H460.8l0.009,85.333H349.867z"/>
		<path d="M390.033,139.034c-1.6-1.601-3.77-2.5-6.033-2.5s-4.433,0.899-6.033,2.5L360.9,156.1c-1.601,1.6-2.5,3.77-2.5,6.033
			c0,2.263,0.899,4.433,2.5,6.033l17.067,17.067c2.155,2.156,5.297,2.997,8.242,2.208c2.944-0.789,5.244-3.089,6.033-6.033
			c0.789-2.944-0.053-6.086-2.208-8.242L379,162.133l11.034-11.034c1.6-1.6,2.5-3.77,2.499-6.033
			C392.533,142.804,391.634,140.633,390.033,139.034z"/>
		<path d="M432.7,139.034c-3.341-3.281-8.701-3.256-12.012,0.054c-3.311,3.311-3.335,8.671-0.054,12.012l11.033,11.034
			l-11.034,11.034c-2.178,2.151-3.037,5.304-2.251,8.262c0.786,2.958,3.097,5.269,6.055,6.055s6.111-0.073,8.262-2.251
			l17.067-17.067c1.601-1.6,2.5-3.77,2.5-6.033s-0.899-4.433-2.5-6.033L432.7,139.034z"/>
		<path d="M76.8,401.067c4.024-0.039,7.462-2.911,8.218-6.863s-1.38-7.89-5.105-9.412c-3.726-1.522-8.007-0.205-10.235,3.146
			c-2.227,3.352-1.783,7.809,1.063,10.654C72.379,400.148,74.541,401.032,76.8,401.067z"/>
	</g>
</g>
<g>
</g>
<g>
</g>
<g>
</g>
<g>
</g>
<g>
</g>
<g>
</g>
<g>
</g>
<g>
</g>
<g>
</g>
<g>
</g>
<g>
</g>
<g>
</g>
<g>
</g>
<g>
</g>
<g>
</g>
</svg>
