<?xml version="1.0" encoding="utf-8"?>
<!-- Generator: Adobe Illustrator 21.1.0, SVG Export Plug-In . SVG Version: 6.00 Build 0)  -->
<svg version="1.1" id="Layer_1" xmlns="http://www.w3.org/2000/svg" xmlns:xlink="http://www.w3.org/1999/xlink" x="0px" y="0px"
	 viewBox="0 0 24 24" style="enable-background:new 0 0 24 24;" xml:space="preserve">
<style type="text/css">
	.st0{fill:#020202;}
</style>
<title>folder</title>
<desc>Created with Sketch.</desc>
<g id="Page-1">
	<g id="folder">
		<g id="folder-_x28_1_x29_" transform="translate(5.000000, 6.000000)">
			<g>
				<g>
					<path id="Shape_1_" class="st0" d="M14.2,2H7V0.8c0-0.4-0.3-0.7-0.8-0.7H0.8C0.3,0.1,0,0.4,0,0.8v3.4v0.5v7.5
						c0,0.4,0.3,0.7,0.8,0.7h13.5c0.4,0,0.8-0.3,0.8-0.7V4.7V4.2V2.8C15,2.4,14.7,2,14.2,2z M14.5,12.2c0,0.1-0.1,0.2-0.3,0.2H0.8
						c-0.1,0-0.3-0.1-0.3-0.2V4.7h14V12.2z M0.5,4.2V0.8c0-0.1,0.1-0.2,0.3-0.2h5.5c0.1,0,0.3,0.1,0.3,0.2v1.7h7.7
						c0.1,0,0.3,0.1,0.3,0.2v1.4H0.5z"/>
					<path class="st0" d="M14.2,13.2H0.8c-0.6,0-1.1-0.5-1.1-1V0.8c0-0.6,0.5-1,1.1-1h5.5c0.6,0,1.1,0.5,1.1,1v0.9h6.9
						c0.6,0,1.1,0.5,1.1,1v9.4C15.3,12.7,14.8,13.2,14.2,13.2z M0.8,5v7.2l13.4-0.1V5H0.8z M0.8,3.9h13.4V2.8l-8,0.1v-2L0.8,0.9
						L0.8,3.9z"/>
				</g>
			</g>
		</g>
	</g>
</g>
</svg>
