<?xml version="1.0" encoding="UTF-8"?>
<svg width="24px" height="24px" viewBox="0 0 24 24" version="1.1" xmlns="http://www.w3.org/2000/svg" xmlns:xlink="http://www.w3.org/1999/xlink">
    <!-- Generator: Sketch 47.1 (45422) - http://www.bohemiancoding.com/sketch -->
    <title>folder</title>
    <desc>Created with Sketch.</desc>
    <defs></defs>
    <g id="Page-1" stroke="none" stroke-width="1" fill="none" fill-rule="evenodd">
        <g id="folder" stroke-width="0.3" stroke="#0B8FFF" fill="#0B8FFF" fill-rule="nonzero">
            <g transform="translate(5.000000, 6.000000)" id="folder-(1)">
                <g>
                    <path d="M14.245,2.0462963 L7.005,2.0462963 L7.005,0.847407407 C7.005,0.446574074 6.6665,0.12037037 6.25,0.12037037 L0.755,0.12037037 C0.3385,0.12037037 0,0.446333333 0,0.847407407 L0,4.21296296 L0,4.69444444 L0,12.1525926 C0,12.5534259 0.3385,12.8796296 0.755,12.8796296 L14.245,12.8796296 C14.66125,12.8796296 15,12.5536667 15,12.1525926 L15,4.69444444 L15,4.21296296 L15,2.77333333 C15,2.37225926 14.6615,2.0462963 14.245,2.0462963 Z M14.5,12.1525926 C14.5,12.2881296 14.38575,12.3981481 14.245,12.3981481 L0.755,12.3981481 C0.61425,12.3981481 0.5,12.2881296 0.5,12.1525926 L0.5,4.69444444 L14.5,4.69444444 L14.5,12.1525926 Z M0.5,4.21296296 L0.5,0.847407407 C0.5,0.71187037 0.61425,0.601851852 0.755,0.601851852 L6.25,0.601851852 C6.3905,0.601851852 6.505,0.71187037 6.505,0.847407407 L6.505,2.52777778 L14.245,2.52777778 C14.38575,2.52777778 14.5,2.6377963 14.5,2.77333333 L14.5,4.21296296 L0.5,4.21296296 Z" id="Shape"></path>
                </g>
            </g>
        </g>
    </g>
</svg>