<?xml version="1.0" encoding="UTF-8"?>
<svg width="130px" height="24px" viewBox="0 0 130 24" version="1.1" xmlns="http://www.w3.org/2000/svg" xmlns:xlink="http://www.w3.org/1999/xlink">
    <!-- Generator: Sketch 47.1 (45422) - http://www.bohemiancoding.com/sketch -->
    <title>haska</title>
    <desc>Created with Sketch.</desc>
    <defs></defs>
    <g id="Page-1" stroke="none" stroke-width="1" fill="none" fill-rule="evenodd">
        <g id="haska" fill="#FFFFFF">
            <g id="Page-1" transform="translate(0.000000, 1.000000)">
                <polygon id="Fill-1" points="3.321 0.0005 0 0.0005 0 11.6235 0 23.2495 3.321 23.2495 6.643 23.2495 6.643 16.6065 6.643 9.9645 11.624 9.9645 16.606 9.9645 16.606 16.6065 16.606 23.2495 19.928 23.2495 23.249 23.2495 23.249 16.6065 23.249 9.9645 21.587 9.9645 19.928 9.9645 19.928 8.3035 19.928 6.6425 13.285 6.6425 6.643 6.6425 6.643 3.3225 6.643 0.0005"></polygon>
                <path d="M38.1942,6.6425 L29.8912,6.6425 L29.8912,8.3035 L29.8912,9.9645 L36.5342,9.9645 L43.1762,9.9645 L43.1762,11.6235 L43.1762,13.2845 L36.5342,13.2845 L29.8912,13.2845 L29.8912,14.9455 L29.8912,16.6065 L28.2302,16.6065 L26.5702,16.6065 L26.5702,18.2655 L26.5702,19.9275 L28.2302,19.9275 L29.8912,19.9275 L29.8912,21.5885 L29.8912,23.2495 L39.8552,23.2495 L49.8182,23.2495 L49.8182,16.6065 L49.8182,9.9645 L48.1572,9.9645 L46.4972,9.9645 L46.4972,8.3035 L46.4972,6.6425 L38.1942,6.6425 Z M33.2132,18.2655 L33.2132,16.6065 L38.1942,16.6065 L43.1762,16.6065 L43.1762,18.2655 L43.1762,19.9275 L38.1942,19.9275 L33.2132,19.9275 L33.2132,18.2655 Z" id="Fill-2"></path>
                <polygon id="Fill-3" points="64.764 6.6425 56.461 6.6425 56.461 8.3035 56.461 9.9645 54.8 9.9645 53.14 9.9645 53.14 11.6235 53.14 13.2845 54.8 13.2845 56.461 13.2845 56.461 14.9455 56.461 16.6065 63.103 16.6065 69.746 16.6065 69.746 18.2655 69.746 19.9275 61.443 19.9275 53.14 19.9275 53.14 21.5885 53.14 23.2495 63.103 23.2495 73.067 23.2495 73.067 21.5885 73.067 19.9275 74.728 19.9275 76.388 19.9275 76.388 18.2655 76.388 16.6065 74.728 16.6065 73.067 16.6065 73.067 14.9455 73.067 13.2845 66.424 13.2845 59.782 13.2845 59.782 11.6235 59.782 9.9645 66.424 9.9645 73.067 9.9645 73.067 8.3035 73.067 6.6425"></polygon>
                <polygon id="Fill-4" points="83.0304 0.0005 79.7094 0.0005 79.7094 11.6235 79.7094 23.2495 83.0304 23.2495 86.3524 23.2495 86.3524 19.9275 86.3524 16.6065 88.0124 16.6065 89.6734 16.6065 89.6734 18.2655 89.6734 19.9275 91.3334 19.9275 92.9954 19.9275 92.9954 21.5885 92.9954 23.2495 97.9754 23.2495 102.9584 23.2495 102.9584 21.5885 102.9584 19.9275 101.2964 19.9275 99.6364 19.9275 99.6364 18.2655 99.6364 16.6065 97.9754 16.6065 96.3144 16.6065 96.3144 14.9455 96.3144 13.2845 97.9754 13.2845 99.6364 13.2845 99.6364 11.6235 99.6364 9.9645 101.2964 9.9645 102.9584 9.9645 102.9584 8.3035 102.9584 6.6425 97.9754 6.6425 92.9954 6.6425 92.9954 8.3035 92.9954 9.9645 89.6734 9.9645 86.3524 9.9645 86.3524 4.9815 86.3524 0.0005"></polygon>
                <path d="M117.9045,6.6425 L109.6005,6.6425 L109.6005,8.3035 L109.6005,9.9645 L116.2435,9.9645 L122.8855,9.9645 L122.8855,11.6235 L122.8855,13.2845 L116.2435,13.2845 L109.6005,13.2845 L109.6005,14.9455 L109.6005,16.6065 L107.9405,16.6065 L106.2805,16.6065 L106.2805,18.2655 L106.2805,19.9275 L107.9405,19.9275 L109.6005,19.9275 L109.6005,21.5885 L109.6005,23.2495 L119.5645,23.2495 L129.5275,23.2495 L129.5275,9.9645 L127.8685,9.9645 L126.2065,9.9645 L126.2065,8.3035 L126.2065,6.6425 L117.9045,6.6425 Z M112.9225,18.2655 L112.9225,16.6065 L117.9045,16.6065 L122.8855,16.6065 L122.8855,18.2655 L122.8855,19.9275 L117.9045,19.9275 L112.9225,19.9275 L112.9225,18.2655 Z" id="Fill-5"></path>
            </g>
        </g>
    </g>
</svg>