<?xml version="1.0" encoding="UTF-8"?>
<svg width="36px" height="36px" viewBox="0 0 36 36" version="1.1" xmlns="http://www.w3.org/2000/svg" xmlns:xlink="http://www.w3.org/1999/xlink">
    <!-- Generator: Sketch 47.1 (45422) - http://www.bohemiancoding.com/sketch -->
    <title>introComunity</title>
    <desc>Created with Sketch.</desc>
    <defs></defs>
    <g id="Page-1" stroke="none" stroke-width="1" fill="none" fill-rule="evenodd">
        <g id="introComunity">
            <rect id="Combined-Shape" stroke="#4A4A4A" x="0.5" y="0.5" width="35" height="35" rx="5"></rect>
            <path d="M24.7179612,11.2849634 C22.9205275,9.48841141 20.5373808,8.5 17.9992821,8.5 C15.4611835,8.5 13.0780368,9.48841141 11.2806031,11.2849634 C7.82634726,14.7375249 7.56010238,20.2669221 10.6512126,24.0222737 L10.855638,24.2706276 L10.7143739,24.5596151 C10.2209439,25.5690372 9.62153042,26.2624404 8.91131435,26.609924 C8.74176797,26.6936817 8.64598985,26.8767465 8.67284079,27.0609054 C8.70263823,27.253501 8.84517087,27.3970596 9.03258692,27.4260306 C9.24417685,27.457953 9.4567383,27.4748744 9.66604887,27.4748744 C10.7843569,27.4748744 11.9770709,27.0873814 12.977267,26.3988682 L13.2286241,26.2258395 L13.4974331,26.3702729 C14.8759782,27.110977 16.4246827,27.5 17.9992821,27.5 C20.5399193,27.5 22.9223271,26.5139775 24.7179612,24.7192242 C26.5124365,22.9256291 27.5,20.540796 27.5,18.0041876 C27.5,15.4665266 26.5116955,13.0778178 24.7179612,11.2849634 Z" id="Shape" stroke="#0B8FFF"></path>
        </g>
    </g>
</svg>