<?xml version="1.0" encoding="UTF-8"?>
<svg width="120px" height="90px" viewBox="0 0 120 90" version="1.1" xmlns="http://www.w3.org/2000/svg" xmlns:xlink="http://www.w3.org/1999/xlink">
    <!-- Generator: Sketch 47.1 (45422) - http://www.bohemiancoding.com/sketch -->
    <title>logo</title>
    <desc>Created with Sketch.</desc>
    <defs></defs>
    <g id="Page-1" stroke="none" stroke-width="1" fill="none" fill-rule="evenodd">
        <g id="logo">
            <g id="Group-4" transform="translate(1.000000, 1.000000)">
                <g id="Logo">
                    <path d="M59.0007696,0 C88.9221047,0 118,43.8388278 118,43.8388278 C118,43.8388278 88.9221047,87.6776557 59.0007696,87.6776557 C29.0794344,87.6776557 0,43.8388278 0,43.8388278 C0,43.8388278 29.0794344,0 59.0007696,0 Z" id="Combined-Shape" stroke="#0B8FFF"></path>
                    <path d="M92.0659341,43.8395987 C92.0659341,62.3533571 77.2625844,77.3626374 59.0011405,77.3626374 C40.7389363,77.3626374 25.9340659,62.3533571 25.9340659,43.8395987 C25.9340659,25.3242986 40.7389363,10.3150183 59.0011405,10.3150183 C77.2625844,10.3150183 92.0659341,25.3242986 92.0659341,43.8395987" id="Fill-4" stroke="#4A4A4A"></path>
                    <path d="M69.103455,43.8292305 C64.8580925,43.8292305 61.4158858,40.4063742 61.4158858,36.1841083 C61.4158858,33.2616515 63.0654859,30.7235263 65.4888674,29.4367844 C63.9807279,28.8648991 62.3519991,28.5382173 60.6428773,28.5382173 C53.122278,28.5382173 47.0271062,34.5998938 47.0271062,42.0774475 C47.0271062,49.5534639 53.122278,55.6151404 60.6428773,55.6151404 C68.1611577,55.6151404 74.2578755,49.5534639 74.2578755,42.0774475 C74.2578755,42.0021186 74.2470533,41.9298642 74.2455073,41.8553039 C72.8826934,43.0782468 71.0839027,43.8292305 69.103455,43.8292305" id="Fill-6" stroke="#0B8FFF"></path>
                </g>
            </g>
        </g>
    </g>
</svg>