<?xml version="1.0" encoding="utf-8"?>
<!-- Generator: Adobe Illustrator 21.1.0, SVG Export Plug-In . SVG Version: 6.00 Build 0)  -->
<svg version="1.1" id="Layer_1" xmlns="http://www.w3.org/2000/svg" xmlns:xlink="http://www.w3.org/1999/xlink" x="0px" y="0px"
	 viewBox="0 0 94 96" style="enable-background:new 0 0 94 96;" xml:space="preserve">
<title>mdBlog</title>
<desc>Created with Sketch.</desc>
<g id="Page-1">
	<g id="mdBlog" transform="translate(0.000000, -1.000000)">
		<path id="Shape" d="M59.9,18h-53C3.1,18,0,21.1,0,24.9v39.8C0,65.4,0.6,66,1.3,66s1.3-0.6,1.3-1.3V24.9c0-2.3,1.9-4.2,4.3-4.2H58
			L59.9,18z"/>
		<path id="Shape_1_" d="M87,18h-6.7c-0.5,1.1-2.3,2.6-1.6,2.6H87c2.4,0,4.3,1.9,4.3,4.2v51.8c0,2.3-1.9,4.2-4.3,4.2H7
			c-2.4,0-4.3-1.9-4.3-4.2v-3.1c0-0.7-0.6-1.3-1.3-1.3S0,72.8,0,73.6v3.1c0,3.8,3.1,6.8,7,6.8h28.3l-1.1,4.7H30
			c-2.4,0-4.3,1.9-4.3,4.2v2.4c0,1.2,1,2.2,2.3,2.2h38.2c1.2,0,2.3-1,2.3-2.2v-2.4c0-2.3-1.9-4.2-4.3-4.2H60l-1.1-4.7H87
			c3.8,0,7-3.1,7-6.8V24.8C94,21.1,90.9,18,87,18z M38,83.5h18l1.1,4.7H36.9L38,83.5z M64,90.8c0.9,0,1.6,0.7,1.6,1.6v2H28.3v-2
			c0-0.9,0.7-1.6,1.6-1.6H64z"/>
		<path id="Shape_2_" d="M56.6,23c-12.1,0-28,0-47.9,0C7.2,23,6,24.2,6,25.7v46.5C6,73.8,7.2,75,8.8,75h77.5c1.5,0,2.8-1.2,2.8-2.7
			V25.7c0-1.5-1.2-2.7-2.8-2.7c-0.7,0-1.5,0-2.6,0s-3.3,0-6.7,0c-1,1.3-2.1,2.7-1.7,2.7c2.5,0,6.2,0,10.9,0c0,0,0,15.5,0.1,46.6
			c0,0-25.9,0-77.6,0.1c0,0,0-15.5-0.1-46.6c0,0,15.4,0,46.1-0.1c0.7-1.2,1.3-2,1.8-2.6L56.6,23z"/>
		
			<g id="pencil" transform="translate(69.000000, 20.000000) rotate(36.000000) translate(-69.000000, -20.000000) translate(63.000000, 0.000000)">
			<g>
				<path id="Shape_6_" d="M0,32.3c0,0.2,0.1,0.4,0.2,0.5l5.2,6.9C5.5,39.9,5.7,40,6,40c0.3,0,0.5-0.1,0.6-0.3l5.2-6.9
					c0.1-0.1,0.2-0.3,0.2-0.5l0-22.2c0-0.4-0.4-0.8-0.8-0.8s-0.8,0.4-0.8,0.8l0,21.9L6,37.9L1.6,32l0-21.9c0-0.4-0.4-0.8-0.8-0.8
					S0,9.7,0,10.2L0,32.3L0,32.3z"/>
				<path d="M6.6,40.1c-0.2,0.1-0.4,0.2-0.6,0.2c-0.3,0-0.6-0.2-0.8-0.4l-5.2-7c-0.1-0.2-0.2-0.4-0.2-0.6l0,0l0-22.1
					c0-0.6,0.5-1.1,1-1.1c0.3,0,0.5,0.1,0.7,0.3s0.3,0.5,0.3,0.7l0,21.8L6,37.4l4.2-5.5l0-21.8c0-0.6,0.5-1.1,1-1.1
					c0.3,0,0.5,0.1,0.7,0.3c0.2,0.2,0.3,0.5,0.3,0.7l0,22.2c0,0.2-0.1,0.5-0.2,0.6l-5.2,6.9C6.8,39.9,6.7,40,6.6,40.1z M0.2,32.3
					L0.2,32.3c0,0.1,0,0.2,0.1,0.3l5.2,6.9c0.1,0.1,0.3,0.2,0.4,0.2c0.2,0,0.3-0.1,0.4-0.2l5.2-6.9c0.1-0.1,0.1-0.2,0.1-0.3l0-22.2
					c0-0.2-0.1-0.3-0.2-0.4c-0.1-0.1-0.2-0.2-0.4-0.2c-0.3,0-0.5,0.2-0.5,0.6l0,22L6,38.3l-4.7-6.2V32l0-21.9c0-0.2-0.1-0.3-0.2-0.4
					c0,0-0.2-0.1-0.3-0.1c-0.3,0-0.5,0.2-0.5,0.6L0.2,32.3L0.2,32.3z"/>
			</g>
			<g>
				<path id="Shape_3_" d="M5.5,10.1l0,19.8c0,0.4,0.2,0.8,0.5,0.8s0.5-0.4,0.5-0.8l0-19.8c0-0.4-0.2-0.8-0.5-0.8S5.5,9.7,5.5,10.1z
					"/>
				<path d="M6.5,31c-0.1,0.1-0.3,0.2-0.5,0.2c-0.5,0-1-0.6-1-1.3l0-19.8c0-0.7,0.4-1.3,1-1.3c0.5,0,1,0.6,1,1.3l0,19.8
					C7,30.4,6.8,30.8,6.5,31z"/>
			</g>
			<path id="Shape_5_" d="M-0.3,3.1c0-1.9,1.5-3.4,3.4-3.4l5.7,0c1.9,0,3.4,1.5,3.4,3.4l0,3.5c0,0.6-0.5,1-1.1,1l-10.4,0
				c-0.6,0-1.1-0.5-1-1L-0.3,3.1z M10.2,3.1c0-0.7-0.6-1.3-1.3-1.3l-5.7,0c-0.7,0-1.3,0.6-1.3,1.3l0,2.5l8.3,0V3.1z"/>
		</g>
	</g>
</g>
</svg>
