<?xml version="1.0" encoding="UTF-8"?>
<svg width="120px" height="120px" viewBox="0 0 120 120" version="1.1" xmlns="http://www.w3.org/2000/svg" xmlns:xlink="http://www.w3.org/1999/xlink">
    <!-- Generator: Sketch 47.1 (45422) - http://www.bohemiancoding.com/sketch -->
    <title>mdBlog</title>
    <desc>Created with Sketch.</desc>
    <defs></defs>
    <g id="Page-1" stroke="none" stroke-width="1" fill="none" fill-rule="evenodd">
        <g id="mdBlog">
            <g id="003-online-shop" transform="translate(12.000000, 7.000000)">
                <path d="M60.4884829,18 L6.94997807,18 C3.11770944,18.000182 0,21.0925762 0,24.8937274 L0,64.6736742 C0,65.4062749 0.598585532,66 1.33718356,66 C2.07559809,66 2.67436712,65.4062749 2.67436712,64.6736742 L2.67436712,24.8937274 C2.67436712,22.5552294 4.59251996,20.6526517 6.95016157,20.6526517 L60.4884829,20.6526517 C61.2268974,20.6526517 62,20.0589266 62,19.3263258 C62,18.5937251 61.2268974,18 60.4884829,18 Z" id="Shape" stroke="#FFFFFF" stroke-width="1.7" fill="#4A4A4A" fill-rule="nonzero"></path>
                <path d="M87.0465703,18 L81.0559062,18 C80.317125,18 79.7180586,18.5895698 79.7180586,19.3170432 C79.7180586,20.0445166 80.3169414,20.6340864 81.0559062,20.6340864 L87.0465703,20.6340864 C89.4053828,20.6340864 91.3244883,22.5233485 91.3244883,24.8454798 L91.3244883,76.6274906 C91.3244883,78.9496219 89.4053828,80.838884 87.0465703,80.838884 L6.95342969,80.838884 C4.59461719,80.838884 2.67551172,78.9496219 2.67551172,76.6274906 L2.67551172,73.5655956 C2.67551172,72.8383029 2.07662891,72.2485524 1.33766406,72.2485524 C0.598699219,72.2485524 0,72.8381221 0,73.5655956 L0,76.6274906 C0,80.4020385 3.11925781,83.4727897 6.95342969,83.4727897 L35.262668,83.4727897 L34.1416445,88.1288004 L29.9724141,88.1288004 C27.5967109,88.1288004 25.6640195,90.0314371 25.6640195,92.3701964 L25.6640195,94.7836008 C25.6640195,96.0057562 26.6739687,97 27.9154297,97 L66.0845703,97 C67.3260312,97 68.3359805,96.0057562 68.3359805,94.7836008 L68.3359805,92.3701964 C68.3359805,90.0314371 66.4032891,88.1288004 64.0275859,88.1288004 L59.8583555,88.1288004 L58.737332,83.4727897 L87.0465703,83.4727897 C90.8807422,83.4727897 94,80.4020385 94,76.6274906 L94,24.8452991 C94,21.0707512 90.8807422,18 87.0465703,18 Z M38.0123516,83.4727897 L55.9876484,83.4727897 L57.1086719,88.1288004 L36.8913281,88.1288004 L38.0123516,83.4727897 Z M64.0275859,90.762706 C64.9279297,90.762706 65.6604687,91.4838536 65.6604687,92.3701964 L65.6604687,94.3660943 L28.3395312,94.3660943 L28.3395312,92.3701964 C28.3395312,91.4838536 29.0720703,90.762706 29.9724141,90.762706 L64.0275859,90.762706 Z" id="Shape" stroke="#FFFFFF" stroke-width="1.7" fill="#4A4A4A" fill-rule="nonzero"></path>
                <path d="M86.2475535,23 C85.567886,23 84.703386,23 83.6540536,23 C78.815054,23 53.8478516,23 8.75244652,23 C7.23479065,23 6,24.233509 6,25.7495897 L6,72.2504103 C6,73.766491 7.23479065,75 8.75244652,75 L86.2475535,75 C87.7652093,75 89,73.766491 89,72.2504103 L89,25.7495897 C89,24.2333247 87.7652093,23 86.2475535,23 Z M86.3110275,72.250226 C86.3110275,72.2852479 86.2826118,72.3136341 86.2475535,72.3136341 L8.75244652,72.3136341 C8.71738821,72.3136341 8.68897253,72.2852479 8.68897253,72.250226 L8.68897253,25.7495897 C8.68897253,25.7145678 8.71738821,25.6861816 8.75244652,25.6861816 L86.2475535,25.6861816 C86.2826118,25.6861816 86.3110275,25.7147521 86.3110275,25.7495897 L86.3110275,72.250226 Z" id="Shape" stroke="#FFFFFF" stroke-width="1.7" fill="#4A4A4A" fill-rule="nonzero"></path>
                <rect id="Rectangle" fill="#FFFFFF" transform="translate(67.500000, 21.500000) rotate(36.000000) translate(-67.500000, -21.500000) " x="58" y="8" width="19" height="27"></rect>
                <g id="pencil" transform="translate(69.000000, 20.000000) rotate(36.000000) translate(-69.000000, -20.000000) translate(63.000000, 0.000000)" fill="#4A4A4A" fill-rule="nonzero">
                    <path d="M0,32.2867288 C0,32.4666778 0.0565275908,32.6384474 0.161507402,32.7774989 L5.36204576,39.6809994 C5.51547779,39.885487 5.74966353,40 6,40 C6.25033647,40 6.48452221,39.885487 6.63795424,39.6809994 L11.8384926,32.7774989 C11.9434724,32.6384474 12,32.4666778 12,32.2867288 L12,10.1120964 C12,9.66222371 11.6446837,9.30232558 11.2005384,9.30232558 C10.756393,9.30232558 10.4010767,9.66222371 10.4010767,10.1120964 L10.4010767,32.0168052 L6,37.8569702 L1.59892328,32.0168052 L1.59892328,10.1529939 C1.59892328,9.70312122 1.243607,9.3432231 0.799461642,9.3432231 C0.355316285,9.3432231 0,9.70312122 0,10.1529939 L0,32.2867288 L0,32.2867288 Z" id="Shape" stroke="#FFFFFF" stroke-width="0.5"></path>
                    <path d="M5.53846154,10.0903239 L5.53846154,29.9096761 C5.53846154,30.3474529 5.74358974,30.6976744 6,30.6976744 C6.25641026,30.6976744 6.46153846,30.3474529 6.46153846,29.9096761 L6.46153846,10.0903239 C6.46153846,9.65254707 6.25641026,9.30232558 6,9.30232558 C5.74358974,9.30232558 5.53846154,9.65254707 5.53846154,10.0903239 Z" id="Shape"></path>
                    <path d="M0,3.10943472 L0,6.65051333 C0,7.09015063 0.355555556,7.44186047 0.8,7.44186047 L11.2,7.44186047 C11.6444444,7.44186047 12,7.09015063 12,6.65051333 L12,3.10943472 C12,1.39884595 10.5939394,0 8.85656566,0 L3.14343434,0 C1.41414141,0 0,1.39085255 0,3.10943472 Z M10.4080808,3.10943472 L10.4080808,5.85916619 L1.6,5.85916619 L1.6,3.10943472 C1.6,2.27012715 2.29494949,1.58269428 3.14343434,1.58269428 L8.85656566,1.58269428 C9.71313131,1.58269428 10.4080808,2.26213374 10.4080808,3.10943472 Z" id="Shape" stroke="#FFFFFF" stroke-width="0.5"></path>
                </g>
            </g>
        </g>
    </g>
</svg>