<?xml version="1.0" encoding="utf-8"?>
<!-- Generator: Adobe Illustrator 21.1.0, SVG Export Plug-In . SVG Version: 6.00 Build 0)  -->
<svg version="1.1" id="Layer_1" xmlns="http://www.w3.org/2000/svg" xmlns:xlink="http://www.w3.org/1999/xlink" x="0px" y="0px"
	 viewBox="0 0 94 80" style="enable-background:new 0 0 94 80;" xml:space="preserve">
<title>mdCompany</title>
<desc>Created with Sketch.</desc>
<g id="Page-1">
	<g id="mdCompany">
		<path id="Shape" d="M63.7,71.2h-4.1l-1.1-4.6h0.7c0.7,0,1.3-0.6,1.3-1.3c0-0.7-0.6-1.3-1.3-1.3H6.9c-2.3,0-4.3-1.9-4.3-4.2V22.3
			c0-0.7-0.6-1.3-1.3-1.3S0,21.6,0,22.3v37.4c0,3.8,3.1,6.8,6.9,6.8h28.2L34,71.2h-4.1c-2.4,0-4.3,1.9-4.3,4.2v2.4
			c0,1.2,1,2.2,2.2,2.2h38c1.2,0,2.2-1,2.2-2.2v-2.4C68,73.1,66.1,71.2,63.7,71.2z M37.8,66.5h17.9l1.1,4.6H36.7L37.8,66.5z
			 M65.3,77.4L65.3,77.4H28.2v-2c0-0.9,0.7-1.6,1.6-1.6h33.9c0.9,0,1.6,0.7,1.6,1.6V77.4L65.3,77.4z"/>
		<path id="Shape_1_" d="M85.3,6H8.7C7.2,6,6,7.2,6,8.7v45.6C6,55.8,7.2,57,8.7,57H57c0.7,0,1.3-0.6,1.3-1.3c0-0.7-0.6-1.3-1.3-1.3
			H8.7c0,0-0.1,0-0.1-0.1V8.7c0,0,0-0.1,0.1-0.1h76.6c0,0,0.1,0,0.1,0.1v45.6c0,0,0,0.1-0.1,0.1h-1.2c-0.7,0-1.3,0.6-1.3,1.3
			c0,0.7,0.6,1.3,1.3,1.3h1.2c1.5,0,2.7-1.2,2.7-2.7V8.7C88,7.2,86.8,6,85.3,6z"/>
		<path id="Shape_2_" d="M87,0H7C3.1,0,0,3.1,0,6.9v5c0,0.7,0.6,1.3,1.3,1.3s1.3-0.6,1.3-1.3v-5c0-2.3,1.9-4.2,4.3-4.2H87
			c2.4,0,4.3,1.9,4.3,4.2v52.2c0,2.3-1.9,4.2-4.3,4.2h-0.6c-0.7,0-1.3,0.6-1.3,1.3c0,0.7,0.6,1.3,1.3,1.3H87c3.8,0,7-3.1,7-6.9V6.9
			C94,3.1,90.9,0,87,0z"/>
		<path id="Shape_3_" d="M82.4,64.6l-6.8-6.8l4-2.1c0.6-0.3,1-1.1,0.9-1.8s-0.7-1.3-1.4-1.4h0L62.1,49c-0.6-0.1-1.2,0.1-1.6,0.5
			c-0.4,0.4-0.6,1-0.5,1.6l3.4,17.1c0.1,0.7,0.7,1.3,1.4,1.4c0.7,0.1,1.4-0.3,1.8-0.9l2.1-4l6.8,6.8c0.4,0.4,0.9,0.6,1.5,0.6
			s1.1-0.2,1.5-0.6l3.8-3.8C83.2,66.8,83.2,65.4,82.4,64.6z M77,69.5l-7.1-7.1c-0.3-0.3-0.7-0.5-1.1-0.5c-0.1,0-0.2,0-0.2,0
			c-0.5,0.1-0.9,0.4-1.2,0.8l-2,3.8l-3.1-15.4l15.4,3.1l-3.8,2c-0.4,0.2-0.8,0.7-0.8,1.2c-0.1,0.5,0.1,1,0.5,1.4l7.5,7.3L77,69.5z"
			/>
	</g>
</g>
</svg>
