<?xml version="1.0" encoding="utf-8"?>
<!-- Generator: Adobe Illustrator 21.1.0, SVG Export Plug-In . SVG Version: 6.00 Build 0)  -->
<svg version="1.1" id="Layer_1" xmlns="http://www.w3.org/2000/svg" xmlns:xlink="http://www.w3.org/1999/xlink" x="0px" y="0px"
	 viewBox="0 0 94 79" style="enable-background:new 0 0 94 79;" xml:space="preserve">
<title>mdDefault</title>
<desc>Created with Sketch.</desc>
<g id="Page-1">
	<g id="mdDefault">
		<path id="Shape" d="M70.4,0H6.9C3.1,0,0,3.1,0,6.9v39.8C0,47.4,0.6,48,1.3,48c0.7,0,1.3-0.6,1.3-1.3V6.9c0-2.3,1.9-4.2,4.3-4.2
			h63.5c0.7,0,1.4-0.6,1.4-1.3S71.2,0,70.4,0z"/>
		<path id="Shape_1_" d="M87,0h-6c-0.7,0-1.3,0.6-1.3,1.3s0.6,1.3,1.3,1.3h6c2.4,0,4.3,1.9,4.3,4.2v51.8c0,2.3-1.9,4.2-4.3,4.2H7
			c-2.4,0-4.3-1.9-4.3-4.2v-3.1c0-0.7-0.6-1.3-1.3-1.3S0,54.8,0,55.6v3.1c0,3.8,3.1,6.8,7,6.8h28.3l-1.1,4.7H30
			c-2.4,0-4.3,1.9-4.3,4.2v2.4c0,1.2,1,2.2,2.3,2.2h38.2c1.2,0,2.3-1,2.3-2.2v-2.4c0-2.3-1.9-4.2-4.3-4.2h-4.2l-1.1-4.7H87
			c3.8,0,7-3.1,7-6.8V6.8C94,3.1,90.9,0,87,0z M38,65.5h18l1.1,4.7H36.9L38,65.5z M64,72.8c0.9,0,1.6,0.7,1.6,1.6v2H28.3v-2
			c0-0.9,0.7-1.6,1.6-1.6H64z"/>
		<path id="Shape_2_" d="M86.2,5c-0.7,0-1.5,0-2.6,0C78.8,5,53.8,5,8.8,5C7.2,5,6,6.2,6,7.7v46.5C6,55.8,7.2,57,8.8,57h77.5
			c1.5,0,2.8-1.2,2.8-2.7V7.7C89,6.2,87.8,5,86.2,5z M86.3,54.3C86.3,54.3,86.3,54.3,86.3,54.3L8.8,54.3c0,0-0.1,0-0.1-0.1V7.7
			c0,0,0-0.1,0.1-0.1h77.5c0,0,0.1,0,0.1,0.1V54.3z"/>
	</g>
</g>
</svg>
