<?xml version="1.0" encoding="utf-8"?>
<!-- Generator: Adobe Illustrator 21.1.0, SVG Export Plug-In . SVG Version: 6.00 Build 0)  -->
<svg version="1.1" id="Layer_1" xmlns="http://www.w3.org/2000/svg" xmlns:xlink="http://www.w3.org/1999/xlink" x="0px" y="0px"
	 viewBox="0 0 107 89" style="enable-background:new 0 0 107 89;" xml:space="preserve">
<title>mdShop</title>
<desc>Created with Sketch.</desc>
<g id="Page-1">
	<g id="mdShop">
		<polygon id="Shape" points="97.4,49.2 97.4,49.2 93.3,72.3 93.3,72.3 		"/>
		<path id="Shape_2_" d="M97.4,68.1c0,2.3-1.8,4.1-4.1,4.1H13.5c-2.3,0-4.1-1.8-4.1-4.1v-1.8c0-0.8-0.7-1.5-1.5-1.5
			s-1.5,0.7-1.5,1.5v1.8c0,3.9,3.2,7.1,7.1,7.1h28l-1,4.4h-4c-2.5,0-4.4,2-4.4,4.5v2.4c0,1.3,1.1,2.4,2.4,2.4h38
			c1.3,0,2.4-1.1,2.4-2.4v-2.4c0-2.5-2-4.5-4.4-4.5h-4l-1-4.4h28c3.9,0,7.1-3.2,7.1-7.1V38.9h-3v29.2H97.4z M44.6,75.2h17.7l1,4.4
			H43.6L44.6,75.2z M70.4,82.6c0.8,0,1.5,0.7,1.5,1.5V86H35v-1.9c0-0.8,0.7-1.5,1.5-1.5H70.4z"/>
		<path id="Shape_3_" d="M106.8,17.5c0-0.1-1.7-5-5.1-14.8C101.1,1.1,99.6,0,97.9,0H87.1c-0.8,0-1.5,0.7-1.5,1.5S86.3,3,87.1,3h10.8
			c0.5,0,0.9,0.3,1,0.7l4.4,12.6H3.6L8,3.8C8.1,3.3,8.5,3,9,3h67.7c0.8,0,1.5-0.7,1.5-1.5S77.5,0,76.7,0H9C7.3,0,5.7,1.1,5.2,2.7
			L0.1,17.4C0,17.6,0,17.7,0,17.7s0,1.4,0,4c0,4.1,2.7,7.5,6.4,8.6v25.4c0,0.8,0.7,1.5,1.5,1.5s1.5-0.7,1.5-1.5V30.6
			c0.2,0,0.4,0,0.5,0c0.3,0,0.4-0.1,0.5-0.1c0.3-0.1,0.4-0.1,0.5-0.1c0.3-0.1,0.4-0.1,0.5-0.1c0.3-0.1,0.4-0.1,0.6-0.2
			c0.2-0.1,0.3-0.1,0.4-0.2c0.2-0.1,0.3-0.1,0.4-0.2v34.4c0,0.8,0.7,1.5,1.5,1.5h78.3c0.8,0,1.5-0.7,1.5-1.5V29.8
			c0.3,0.1,0.3,0.1,0.4,0.2c0.1,0,0.2,0.1,0.3,0.1c0.2,0.1,0.4,0.1,0.6,0.2s0.4,0.1,0.5,0.1c0.3,0.1,0.4,0.1,0.5,0.1
			c0.3,0.1,0.4,0.1,0.5,0.1c0.3,0,0.4,0,0.5,0.1c0,0,0.5,0,1.4,0c0.6,0,1-0.3,1.1-1.1c0-2-1.3-1.9-1.5-1.9s-0.3,0-0.4,0
			c-1.7,0-3.3-0.7-4.4-1.9c-0.1-0.1-0.1-0.2-0.2-0.2c-0.1-0.1-0.1-0.2-0.2-0.2c-0.1-0.1-0.1-0.2-0.2-0.2c-0.1-0.1-0.1-0.2-0.2-0.2
			c-0.1-0.1-0.1-0.2-0.1-0.2c-0.1-0.1-0.1-0.2-0.1-0.3c-0.1-0.1-0.1-0.2-0.1-0.3c-0.1-0.1-0.1-0.2-0.1-0.3c-0.1-0.1-0.1-0.2-0.1-0.3
			c0-0.1-0.1-0.2-0.1-0.3c0-0.2-0.1-0.2-0.1-0.3c0-0.2,0-0.2-0.1-0.3c0-0.2,0-0.2,0-0.3c0-0.2,0-0.2,0-0.3c0-0.2,0-0.3,0-0.4v-2.4
			h10.7l-0.3,1.5l0.3-1.5h1.1v2.4c0,2,3,2.6,3,0v-3.9C106.9,17.7,106.8,17.6,106.8,17.5z M77.2,19.3H89v2.4c0,3.3-2.7,5.9-5.9,5.9
			s-5.9-2.7-5.9-5.9V19.3z M62.3,19.3L62.3,19.3h11.9v2.4c0,3.3-2.7,5.9-5.9,5.9c-3.3,0-5.9-2.7-5.9-5.9L62.3,19.3L62.3,19.3z
			 M47.5,19.3h11.9v2.4c0,3.3-2.7,5.9-5.9,5.9s-5.9-2.7-5.9-5.9L47.5,19.3L47.5,19.3z M32.7,19.3L32.7,19.3h11.9v2.4
			c0,3.3-2.7,5.9-5.9,5.9s-5.9-2.7-5.9-5.9L32.7,19.3L32.7,19.3z M17.8,19.3h11.9v2.4c0,3.3-2.7,5.9-5.9,5.9s-5.9-2.7-5.9-5.9v-2.4
			H17.8z M14.8,22v0.1c0,0.1,0,0.1,0,0.2v0.1c0,0.1,0,0.1,0,0.2v0.1c0,0.1,0,0.1,0,0.2V23c0,0.1,0,0.1,0,0.2v0.1
			c0,0.1,0,0.1-0.1,0.2v0.1c0,0.1,0,0.1-0.1,0.2v0.1c0,0.1-0.1,0.1-0.1,0.2c0,0,0,0,0,0.1s-0.1,0.1-0.1,0.2c0,0,0,0,0,0.1
			s-0.1,0.1-0.1,0.2l0,0c0,0.1-0.1,0.1-0.1,0.2l0,0c0,0.1-0.1,0.1-0.1,0.2l0,0c0,0.1-0.1,0.1-0.1,0.2c0,0,0,0,0,0.1
			s-0.1,0.1-0.1,0.2c0,0,0,0,0,0.1s-0.1,0.1-0.1,0.2c0,0,0,0-0.1,0.1c-1.1,1.2-2.6,1.9-4.4,1.9c-0.1,0-0.2,0-0.4,0l0,0
			c-0.1,0-0.3,0-0.4,0l0,0C5.2,27.2,3,24.8,3,21.7v-2.4h11.9v2.4l0,0C14.8,21.8,14.8,21.9,14.8,22z M15.8,62.7V27.4
			c0.2-0.2,0.4-0.5,0.5-0.7l0,0c0.1,0.1,0.2,0.3,0.3,0.4l0,0c0,0,0,0,0.1,0.1s0.2,0.2,0.2,0.3c0,0,0,0,0,0.1c0,0,0,0.1,0.1,0.1
			c0.1,0.1,0.1,0.2,0.2,0.2c0,0,0,0.1,0.1,0.1l0,0c0.1,0.1,0.2,0.2,0.3,0.3c0,0,0,0,0.1,0.1l0,0c0.1,0.1,0.2,0.2,0.4,0.3l0,0
			c0,0,0.1,0,0.1,0.1c0.1,0.1,0.2,0.1,0.3,0.2c0,0,0,0,0.1,0c0,0,0.1,0,0.1,0.1c0.1,0.1,0.2,0.1,0.3,0.2c0,0,0.1,0,0.1,0.1
			c0,0,0,0,0.1,0c0.1,0.1,0.2,0.1,0.3,0.2c0,0,0,0,0.1,0l0,0c0.1,0.1,0.3,0.2,0.4,0.2l0,0h0.1c0.1,0,0.2,0.1,0.3,0.1c0,0,0,0,0.1,0
			h0.1c0.1,0,0.2,0.1,0.3,0.1H21c0,0,0,0,0.1,0s0.3,0.1,0.4,0.1l0,0l0,0c0.2,0,0.3,0.1,0.5,0.1l0,0h0.1c0.1,0,0.2,0,0.4,0.1h0.1h0.1
			c0.1,0,0.2,0,0.4,0h0.1c0,0,0,0,0.1,0c0.2,0,0.3,0,0.5,0s0.4,0,0.5,0l0,0h0.1c0.1,0,0.2,0,0.4,0c0.1,0,0.1,0,0.2,0s0.2,0,0.4-0.1
			c0.1,0,0.1,0,0.2,0c0.2,0,0.3-0.1,0.5-0.1c0,0,0,0,0.1,0s0.3-0.1,0.4-0.1s0.1,0,0.2-0.1c0.1,0,0.2-0.1,0.3-0.1
			c0.1,0,0.1,0,0.2-0.1c0.1,0,0.2-0.1,0.3-0.1c0,0,0.1,0,0.1-0.1c0.1-0.1,0.3-0.1,0.4-0.2h0.1c0.1-0.1,0.2-0.1,0.3-0.2l0.1-0.1
			c0.1-0.1,0.2-0.1,0.3-0.2l0.1-0.1c0.1-0.1,0.2-0.1,0.3-0.2l0.1-0.1c0.1-0.1,0.2-0.2,0.4-0.3l0.1-0.1c0.1-0.1,0.2-0.2,0.3-0.3
			l0.1-0.1c0.1-0.1,0.2-0.2,0.2-0.2l0.1-0.1c0.1-0.1,0.2-0.2,0.2-0.3c0,0,0-0.1,0.1-0.1c0.1-0.1,0.2-0.3,0.3-0.4l0,0l0,0
			c0.1,0.1,0.2,0.3,0.3,0.4c0,0,0,0.1,0.1,0.1c0.1,0.1,0.2,0.2,0.2,0.3l0.1,0.1c0.1,0.1,0.1,0.2,0.2,0.2l0.1,0.1
			c0.1,0.1,0.2,0.2,0.3,0.3l0.1,0.1c0.1,0.1,0.2,0.2,0.4,0.3l0.1,0.1c0.1,0.1,0.2,0.1,0.3,0.2l0.1,0.1c0.1,0.1,0.2,0.1,0.3,0.2
			l0.1,0.1c0.1,0.1,0.2,0.1,0.3,0.2h0.1c0.1,0.1,0.3,0.2,0.4,0.2c0,0,0.1,0,0.1,0.1c0.1,0,0.2,0.1,0.3,0.1s0.1,0,0.2,0.1
			c0.1,0,0.2,0.1,0.3,0.1s0.1,0,0.2,0.1c0.1,0,0.3,0.1,0.4,0.1c0,0,0,0,0.1,0c0.2,0,0.3,0.1,0.5,0.1c0.1,0,0.1,0,0.2,0
			c0.1,0,0.2,0,0.4,0.1c0.1,0,0.1,0,0.2,0c0.1,0,0.2,0,0.4,0h0.1l0,0c0.2,0,0.3,0,0.5,0s0.4,0,0.5,0l0,0h0.1c0.1,0,0.2,0,0.4,0
			c0.1,0,0.1,0,0.2,0c0.1,0,0.2,0,0.4-0.1c0.1,0,0.1,0,0.2,0c0.2,0,0.3-0.1,0.5-0.1c0,0,0,0,0.1,0s0.3-0.1,0.4-0.1
			c0.1,0,0.1,0,0.2-0.1c0.1,0,0.2-0.1,0.3-0.1s0.1,0,0.2-0.1c0.1,0,0.2-0.1,0.3-0.1c0,0,0.1,0,0.1-0.1c0.1-0.1,0.3-0.1,0.4-0.2H43
			c0.1-0.1,0.2-0.1,0.3-0.2l0.1-0.1c0.1-0.1,0.2-0.1,0.3-0.2l0.1-0.1c0.1-0.1,0.2-0.1,0.3-0.2l0.1-0.1c0.1-0.1,0.2-0.2,0.4-0.3
			l0.1-0.1c0.1-0.1,0.2-0.2,0.3-0.3l0.1-0.1c0.1-0.1,0.2-0.2,0.2-0.2l0.1-0.1c0.1-0.1,0.2-0.2,0.2-0.3c0,0,0-0.1,0.1-0.1
			c0.1-0.1,0.2-0.3,0.3-0.4l0,0l0,0c0.1,0.1,0.2,0.3,0.3,0.4c0,0,0,0.1,0.1,0.1c0.1,0.1,0.2,0.2,0.2,0.3l0.1,0.1
			c0.1,0.1,0.1,0.2,0.2,0.2l0.1,0.1c0.1,0.1,0.2,0.2,0.3,0.3l0.1,0.1c0.1,0.1,0.2,0.2,0.4,0.3l0.1,0.1c0.1,0.1,0.2,0.1,0.3,0.2
			l0.1,0.1c0.1,0.1,0.2,0.1,0.3,0.2l0.1,0.1c0.1,0.1,0.2,0.1,0.3,0.2h0.1c0.1,0.1,0.3,0.2,0.4,0.2c0,0,0.1,0,0.1,0.1
			c0.1,0,0.2,0.1,0.3,0.1s0.1,0,0.2,0.1c0.1,0,0.2,0.1,0.3,0.1s0.1,0,0.2,0.1c0.1,0,0.3,0.1,0.4,0.1c0,0,0,0,0.1,0
			c0.2,0,0.3,0.1,0.5,0.1c0.1,0,0.1,0,0.2,0c0.1,0,0.2,0,0.4,0.1c0.1,0,0.1,0,0.2,0c0.1,0,0.2,0,0.4,0h0.1l0,0c0.2,0,0.3,0,0.5,0
			s0.4,0,0.5,0l0,0H54c0.1,0,0.2,0,0.4,0c0.1,0,0.1,0,0.2,0c0.1,0,0.2,0,0.4-0.1c0.1,0,0.1,0,0.2,0c0.2,0,0.3-0.1,0.5-0.1
			c0,0,0,0,0.1,0s0.3-0.1,0.4-0.1c0.1,0,0.1,0,0.2-0.1c0.1,0,0.2-0.1,0.3-0.1s0.1,0,0.2-0.1c0.1,0,0.2-0.1,0.3-0.1
			c0,0,0.1,0,0.1-0.1c0.1-0.1,0.3-0.1,0.4-0.2h0.1c0.1-0.1,0.2-0.1,0.3-0.2l0.1-0.1c0.1-0.1,0.2-0.1,0.3-0.2l0.1-0.1
			c0.1-0.1,0.2-0.1,0.3-0.2l0.1-0.1c0.1-0.1,0.2-0.2,0.4-0.3l0.1-0.1c0.1-0.1,0.2-0.2,0.3-0.3l0.1-0.1c0.1-0.1,0.2-0.2,0.2-0.2
			l0.1-0.1c0.1-0.1,0.2-0.2,0.2-0.3c0,0,0-0.1,0.1-0.1c0.1-0.1,0.2-0.3,0.3-0.4l0,0l0,0c0.1,0.1,0.2,0.3,0.3,0.4c0,0,0,0.1,0.1,0.1
			c0.1,0.1,0.2,0.2,0.2,0.3l0.1,0.1c0.1,0.1,0.1,0.2,0.2,0.2l0.1,0.1c0.1,0.1,0.2,0.2,0.3,0.3l0.1,0.1c0.1,0.1,0.2,0.2,0.4,0.3
			l0.1,0.1c0.1,0.1,0.2,0.1,0.3,0.2l0.1,0.1c0.1,0.1,0.2,0.1,0.3,0.2l0.1,0.1c0.1,0.1,0.2,0.1,0.3,0.2h0.1c0.1,0.1,0.3,0.2,0.4,0.2
			c0,0,0.1,0,0.1,0.1c0.1,0,0.2,0.1,0.3,0.1c0.1,0,0.1,0,0.2,0.1c0.1,0,0.2,0.1,0.3,0.1c0.1,0,0.1,0,0.2,0.1c0.1,0,0.3,0.1,0.4,0.1
			c0,0,0,0,0.1,0c0.2,0,0.3,0.1,0.5,0.1c0.1,0,0.1,0,0.2,0s0.2,0,0.4,0.1c0.1,0,0.1,0,0.2,0s0.2,0,0.4,0h0.1l0,0c0.2,0,0.3,0,0.5,0
			s0.4,0,0.5,0l0,0h0.1c0.1,0,0.2,0,0.4,0c0.1,0,0.1,0,0.2,0s0.2,0,0.4-0.1c0.1,0,0.1,0,0.2,0c0.2,0,0.3-0.1,0.5-0.1c0,0,0,0,0.1,0
			S70.9,30,71,30s0.1,0,0.2-0.1c0.1,0,0.2-0.1,0.3-0.1c0.1,0,0.1,0,0.2-0.1c0.1,0,0.2-0.1,0.3-0.1c0,0,0.1,0,0.1-0.1
			c0.1-0.1,0.3-0.1,0.4-0.2h0.1c0.1-0.1,0.2-0.1,0.3-0.2L73,29c0.1-0.1,0.2-0.1,0.3-0.2l0.1-0.1c0.1-0.1,0.2-0.1,0.3-0.2l0.1-0.1
			c0.1-0.1,0.2-0.2,0.4-0.3l0.1-0.1c0.1-0.1,0.2-0.2,0.3-0.3l0.1-0.1c0.1-0.1,0.2-0.2,0.2-0.2l0.1-0.1c0.1-0.1,0.2-0.2,0.2-0.3
			c0,0,0-0.1,0.1-0.1c0.1-0.1,0.2-0.3,0.3-0.4l0,0l0,0c0.1,0.1,0.2,0.3,0.3,0.4c0,0,0,0.1,0.1,0.1c0.1,0.1,0.2,0.2,0.2,0.3l0.1,0.1
			c0.1,0.1,0.1,0.2,0.2,0.2l0.1,0.1c0.1,0.1,0.2,0.2,0.3,0.3l0.1,0.1c0.1,0.1,0.2,0.2,0.4,0.3l0.1,0.1c0.1,0.1,0.2,0.1,0.3,0.2
			l0.1,0.1c0.1,0.1,0.2,0.1,0.3,0.2l0.1,0.1c0.1,0.1,0.2,0.1,0.3,0.2h0.1c0.1,0.1,0.3,0.2,0.4,0.2c0,0,0.1,0,0.1,0.1
			c0.1,0,0.2,0.1,0.3,0.1c0.1,0,0.1,0,0.2,0.1c0.1,0,0.2,0.1,0.3,0.1c0.1,0,0.1,0,0.2,0.1c0.1,0,0.3,0.1,0.4,0.1c0,0,0,0,0.1,0
			c0.2,0,0.3,0.1,0.5,0.1c0.1,0,0.1,0,0.2,0s0.2,0,0.4,0.1c0.1,0,0.1,0,0.2,0s0.2,0,0.4,0h0.1l0,0c0.2,0,0.3,0,0.5,0s0.4,0,0.5,0
			c0,0,0,0,0.1,0h0.1c0.1,0,0.2,0,0.4,0h0.1h0.1c0.1,0,0.2,0,0.4-0.1h0.1l0,0c0.2,0,0.3-0.1,0.5-0.1l0,0l0,0c0.1,0,0.3-0.1,0.4-0.1
			c0,0,0,0,0.1,0h0.1c0.1,0,0.2-0.1,0.3-0.1h0.1c0,0,0,0,0.1,0s0.2-0.1,0.3-0.1h0.1l0,0c0.1-0.1,0.3-0.1,0.4-0.2l0,0c0,0,0,0,0.1,0
			c0.1-0.1,0.2-0.1,0.3-0.2c0,0,0,0,0.1,0c0,0,0.1,0,0.1-0.1c0.1-0.1,0.2-0.1,0.3-0.2c0,0,0.1,0,0.1-0.1c0,0,0,0,0.1,0
			c0.1-0.1,0.2-0.1,0.3-0.2c0,0,0.1,0,0.1-0.1l0,0c0.1-0.1,0.2-0.2,0.4-0.3l0,0c0,0,0,0,0.1-0.1s0.2-0.2,0.3-0.3l0,0
			c0,0,0-0.1,0.1-0.1c0.1-0.1,0.2-0.2,0.2-0.2s0,0,0.1-0.1c0,0,0,0,0-0.1c0.1-0.1,0.2-0.2,0.2-0.3c0,0,0,0,0.1-0.1l0,0
			c0.1-0.1,0.2-0.3,0.3-0.4l0,0c0.2,0.3,0.4,0.5,0.5,0.7v35.3C91,62.7,15.8,62.7,15.8,62.7z"/>
	</g>
</g>
</svg>
