<?xml version="1.0" encoding="UTF-8"?>
<svg width="120px" height="120px" viewBox="0 0 120 120" version="1.1" xmlns="http://www.w3.org/2000/svg" xmlns:xlink="http://www.w3.org/1999/xlink">
    <!-- Generator: Sketch 47.1 (45422) - http://www.bohemiancoding.com/sketch -->
    <title>mdShop</title>
    <desc>Created with Sketch.</desc>
    <defs></defs>
    <g id="Page-1" stroke="none" stroke-width="1" fill="none" fill-rule="evenodd">
        <g id="mdShop" fill-rule="nonzero">
            <g id="004-monitor" transform="translate(6.000000, 16.000000)">
                <g id="Group">
                    <polygon id="Shape" fill="#000000" points="97.4325253 49.1992418 97.4325253 49.1977793 93.3277018 72.2581808 93.3281193 72.2579718"></polygon>
                    <polygon id="Shape" fill="#000000" points="102.485547 20.8111667 101.469933 26.5163592 101.469933 26.5163592"></polygon>
                    <path d="M97.4325253,68.1493474 C97.4325253,70.414669 95.5912301,72.2579718 93.3281193,72.2581808 L13.5346258,72.2581808 C11.2713063,72.2581808 9.42980239,70.4148779 9.42980239,68.1493474 L9.42980239,66.3695563 C9.42980239,65.545993 8.7627451,64.878284 7.93998545,64.878284 C7.1172258,64.878284 6.4501685,65.545993 6.4501685,66.3695563 L6.4501685,68.1493474 C6.4501685,72.0594977 9.62829159,75.2407254 13.5346258,75.2407254 L41.539344,75.2407254 L40.4970148,79.6426737 L36.4677466,79.6426737 C34.0142865,79.6426737 32.0183326,81.6405775 32.0183326,84.0964343 L32.0183326,86.5412183 C32.0183326,87.8659812 33.0951,88.9435915 34.4183613,88.9435915 L72.4448012,88.9435915 C73.7682713,88.9435915 74.84483,87.8657723 74.84483,86.5412183 L74.84483,84.0964343 C74.84483,81.6405775 72.848876,79.6426737 70.3954159,79.6426737 L66.365939,79.6426737 L65.3236098,75.2407254 L93.328328,75.2407254 C97.2346622,75.2407254 100.412785,72.0594977 100.412785,68.1493474 L100.412785,38.9161089 L97.4325253,38.9161089 L97.4325253,68.1493474 Z M44.6016295,75.2409343 L62.2613243,75.2409343 L63.3038622,79.6428826 L43.5593003,79.6428826 L44.6016295,75.2409343 Z M70.3954159,82.6254272 C71.2056526,82.6254272 71.8649874,83.2854061 71.8649874,84.0964343 L71.8649874,85.9610469 L34.9977577,85.9610469 L34.9977577,84.0964343 C34.9977577,83.2851972 35.6570925,82.6254272 36.4675379,82.6254272 L70.3954159,82.6254272 Z" id="Shape" stroke="#FFFFFF" stroke-width="2" fill="#4A4A4A"></path>
                    <rect id="Rectangle-path" fill="#000000" x="100.614614" y="30.1666127" width="1" height="2.30668779"></rect>
                    <path d="M106.82935,17.5455352 C106.798043,17.4339718 105.089491,12.5090266 101.703696,2.77069953 C101.139327,1.14738967 99.6063055,0.0566173709 97.8889878,0.0566173709 L87.0758138,0.0566173709 C86.2530542,0.0566173709 85.5859969,0.724326291 85.5859969,1.54788967 C85.5859969,2.37145305 86.2530542,3.03916197 87.0758138,3.03916197 L97.8889878,3.03916197 C98.3393976,3.03916197 98.7415939,3.32538263 98.8895738,3.75095305 L103.276582,16.3668075 L3.58595473,16.3670164 L7.97317134,3.75116197 C8.12135991,3.32538263 8.5233475,3.03937089 8.97375728,3.03937089 L76.6464691,3.03937089 C77.4692287,3.03937089 78.136286,2.37166197 78.136286,1.54809859 C78.136286,0.724535211 77.4692287,0.0568262911 76.6464691,0.0568262911 L8.97375728,0.0568262911 C7.25643957,0.0568262911 5.72341835,1.14759859 5.15904948,2.77090845 L0.0828603707,17.368162 C0.0217064951,17.6002723 0.0127316942,17.656054 0.00730507047,17.7128803 C0.00438304228,17.7591213 0.00194801879,19.1024085 0,21.7427418 C0,25.8062394 2.73021791,29.2413052 6.44995979,30.3130657 L6.44995979,55.7313404 C6.44995979,56.5549038 7.11701708,57.2226127 7.93977673,57.2226127 C8.76253638,57.2226127 9.42959367,56.5549038 9.42959367,55.7313404 L9.42959367,30.6462934 C9.66606924,30.6274906 9.78378523,30.6176714 9.90066636,30.6047183 C10.1870251,30.5675305 10.291592,30.5522793 10.3957414,30.53473 C10.6843961,30.4818732 10.7879193,30.4597277 10.8908165,30.4363286 C11.1782188,30.3675939 11.2932215,30.3354202 11.407598,30.301993 C11.6843559,30.2194695 11.8367187,30.1680751 11.9869945,30.1125023 C12.2019723,30.0289343 12.3182273,29.982554 12.4328125,29.932831 C12.6601045,29.8296244 12.7339901,29.796615 12.8066234,29.7613075 L12.8066234,64.1573005 C12.8066234,64.9808638 13.4736807,65.6485728 14.2964403,65.6485728 L92.5656786,65.6485728 C93.3884383,65.6485728 94.0554956,64.9808638 94.0554956,64.1573005 L94.0554956,29.7615164 C94.3268267,29.8868685 94.3777535,29.9106854 94.4293064,29.9330399 C94.5438917,29.982554 94.6601467,30.0291432 94.7772365,30.074061 C95.0254002,30.168284 95.1775544,30.2196784 95.331587,30.2671033 C95.5688974,30.3356291 95.6839001,30.3678028 95.8001551,30.3968427 C96.0741996,30.4599366 96.1775142,30.4820822 96.2818723,30.5019296 C96.5703182,30.5524883 96.6750938,30.5677394 96.7802868,30.5817371 C97.0783337,30.6178803 97.1960497,30.6276995 97.3141831,30.6360563 C97.3406205,30.6380063 97.8131542,30.6414186 98.7317842,30.6462934 L100.028573,30.6360563 C99.5772564,30.3655743 99.3960549,30.2152214 99.484968,30.1849977 C99.6600603,28.3895376 99.4089991,27.5365164 98.7317842,27.6259343 C98.6013366,27.6428568 98.4742283,27.655392 98.3492073,27.6641667 C98.1985141,27.6744038 98.0739105,27.679 97.9524376,27.679 C96.2276061,27.679 94.6730871,26.9377512 93.5883885,25.7573521 C93.4888308,25.6464155 93.4435394,25.5943944 93.3992915,25.5413286 C93.3072476,25.4287207 93.2627911,25.3723122 93.2195868,25.3150681 C93.1369351,25.2037136 93.0935221,25.1427089 93.0513614,25.0808685 C92.9772672,24.9703498 92.9357326,24.9055845 92.8954504,24.8401925 C92.828035,24.7284202 92.7896312,24.6615657 92.752271,24.5936667 C92.6900735,24.4785516 92.6554266,24.4106526 92.6218233,24.3419178 C92.5640089,24.2213709 92.5335363,24.1538897 92.504316,24.0857817 C92.4500498,23.9572958 92.4243777,23.8919038 92.3997492,23.825885 C92.3490311,23.6875798 92.3281595,23.6246948 92.3077053,23.561392 C92.2613703,23.4130587 92.2444642,23.3526808 92.2281844,23.2923028 C92.1868585,23.1337324 92.1739181,23.0756526 92.1609777,23.0173638 C92.1257047,22.8504366 92.1161037,22.7934014 92.1065028,22.7363662 C92.0785348,22.5623357 92.0718559,22.5042559 92.0649682,22.4461761 C92.0449314,22.2667136 92.0409658,22.202784 92.0365828,22.1390634 C92.024686,21.9401714 92.0219727,21.84177 92.0219727,21.7429507 L92.0219727,19.3499789 L102.745607,19.3499789 L102.485547,20.8113756 L102.745607,19.3499789 L103.882694,19.3499789 L103.882694,21.7427418 C103.882902,23.6984437 109.780152,21.3053946 108.317886,22.3869744 C107.347792,24.5671777 106.862745,24.3523638 106.862745,21.7425329 L106.862745,17.8584977 C106.850013,17.656054 106.841039,17.6002723 106.82935,17.5455352 Z M77.1818264,19.34977 L89.0423388,19.34977 L89.0423388,21.7427418 C89.0423388,25.0158944 86.3820408,27.6787911 83.1120826,27.6787911 C79.8421243,27.6787911 77.1818264,25.0158944 77.1818264,21.7427418 L77.1818264,19.34977 Z M62.3412626,19.34977 L62.3412626,19.34977 L74.2021925,19.34977 L74.2021925,21.7427418 C74.2021925,25.0158944 71.5418945,27.6787911 68.2717276,27.6787911 C65.0017693,27.6787911 62.3412626,25.0158944 62.3412626,21.7427418 L62.3412626,19.34977 L62.3412626,19.34977 Z M47.5011163,19.34977 L59.3616288,19.34977 L59.3616288,21.7427418 C59.3616288,25.0158944 56.7013308,27.6787911 53.4313725,27.6787911 C50.1614143,27.6787911 47.5011163,25.0158944 47.5011163,21.7427418 L47.5011163,19.34977 Z M32.6603439,19.34977 L32.6605526,19.34977 L44.5212737,19.34977 L44.5212737,21.7427418 C44.5212737,25.0158944 41.8609758,27.6787911 38.5908088,27.6787911 C35.3206419,27.6787911 32.6603439,25.0158944 32.6603439,21.7427418 L32.6603439,19.34977 L32.6603439,19.34977 Z M17.8201976,19.34977 L29.68071,19.34977 L29.68071,21.7427418 C29.68071,25.0158944 27.0204121,27.6787911 23.7504538,27.6787911 C20.4804956,27.6787911 17.8201976,25.0158944 17.8201976,21.7427418 L17.8201976,19.34977 Z M14.8330499,22.0375282 C14.8313802,22.0713732 14.8280407,22.1048005 14.8257449,22.1386455 C14.8215705,22.2025751 14.8173962,22.2662958 14.8111347,22.3295986 C14.8073778,22.3684577 14.8019512,22.407108 14.7973595,22.4457582 C14.7904718,22.503838 14.7837929,22.5619178 14.7752355,22.6193709 C14.7693915,22.658439 14.7622951,22.6970892 14.7558249,22.7359484 C14.746224,22.7929836 14.736623,22.8500188 14.7253523,22.9064272 C14.7180473,22.9434061 14.7094899,22.9801761 14.70135,23.016946 C14.6886183,23.0752347 14.6756778,23.1333146 14.6610677,23.1909765 C14.6525103,23.2248216 14.6433268,23.2582488 14.6341433,23.291885 C14.6178634,23.3524718 14.6009574,23.4126408 14.5827991,23.472392 C14.5738243,23.5020587 14.5640146,23.5315164 14.5546224,23.5609742 C14.5341682,23.624277 14.5130879,23.6873709 14.4907552,23.7496291 C14.4815717,23.7751174 14.4719707,23.8001878 14.4625785,23.8254671 C14.4377413,23.8914859 14.4120692,23.9570869 14.3851448,24.0218521 C14.3763787,24.043162 14.3671952,24.0642629 14.3580116,24.0853638 C14.3287914,24.1534718 14.2983188,24.2209531 14.2665939,24.2875986 C14.2580365,24.3055657 14.2492705,24.3235329 14.2405044,24.3415 C14.206901,24.4100258 14.1722541,24.4779249 14.1361462,24.5451972 C14.1275888,24.561284 14.1188228,24.577162 14.1100567,24.5932488 C14.0729052,24.660939 14.0342927,24.7280023 13.9944278,24.79423 C13.9852443,24.8094812 13.9760608,24.8247324 13.9668773,24.8397746 C13.9265951,24.9053756 13.8852692,24.9699319 13.8424824,25.0336526 C13.8320466,25.0493216 13.8216108,25.0647817 13.8109662,25.0804507 C13.7688055,25.1422911 13.7251838,25.2032958 13.6807273,25.2634648 C13.6679956,25.2805962 13.6554726,25.2977277 13.6425322,25.3146502 C13.5993279,25.3718944 13.5548713,25.4283028 13.5095799,25.4838756 C13.4941349,25.5028873 13.4784812,25.522108 13.4628274,25.5409108 C13.4185796,25.5939765 13.3732881,25.6459977 13.3273706,25.697392 C13.3096297,25.7172394 13.2916801,25.7370869 13.2737305,25.7569343 C12.1890319,26.9373333 10.6345129,27.6785822 8.90968137,27.6785822 C8.78820849,27.6785822 8.66360486,27.6739859 8.53670535,27.6656291 C8.52877413,27.6652113 8.52084291,27.6643756 8.51291169,27.6637488 C8.38789063,27.6549742 8.26099112,27.6426479 8.13242188,27.6257254 C8.13179573,27.6257254 8.13116958,27.6257254 8.13033471,27.6255164 C5.22750843,27.2421479 2.97921645,24.7509836 2.97921645,21.7423239 L2.97921645,19.3493521 L14.8399376,19.3493521 L14.8399376,21.7425329 L14.8405637,21.7425329 C14.8405637,21.841561 14.8378504,21.9399624 14.8330499,22.0375282 Z M15.7866747,62.6660282 L15.7866747,27.4115822 C15.9816157,27.1750845 16.1636163,26.9300211 16.3318417,26.6772277 C16.3366422,26.684331 16.3418601,26.6910164 16.3466605,26.6981197 C16.4376608,26.8339178 16.5320006,26.967 16.6300973,27.0971573 C16.6348977,27.1034249 16.6392808,27.1103192 16.6440813,27.1165869 C16.6630744,27.1418662 16.6841548,27.1654742 16.7033567,27.1903357 C16.7799556,27.2893638 16.8580155,27.3869296 16.93858,27.482615 C16.9533988,27.5001643 16.9669654,27.5189671 16.981993,27.5365164 C17.0041169,27.5624225 17.028328,27.5866573 17.0508693,27.6123545 C17.1237113,27.6957136 17.198223,27.7776103 17.2741958,27.8580446 C17.2981981,27.8833239 17.3203221,27.9102746 17.3445332,27.9353451 C17.3599782,27.9514319 17.3768842,27.9662653 17.3923292,27.9821432 C17.4801988,28.07177 17.5703642,28.1593075 17.6619907,28.2451737 C17.6851582,28.2669014 17.7068647,28.2900915 17.7302409,28.3116103 C17.7354588,28.3164155 17.7410941,28.3208028 17.746312,28.325608 C17.8659065,28.4348732 17.9884229,28.5407958 18.1138614,28.6435845 C18.1220014,28.65027 18.1295152,28.6575822 18.1378638,28.6642676 C18.1654144,28.6866221 18.1946347,28.7068873 18.2223939,28.7290329 C18.3154814,28.8029906 18.4096124,28.8754859 18.5054132,28.9456831 C18.5260761,28.9607254 18.5454867,28.97723 18.5661497,28.9920634 C18.5932828,29.011493 18.6218769,29.0288333 18.6492187,29.048054 C18.7395929,29.1113568 18.8312194,29.1729883 18.9238894,29.2331573 C18.954362,29.2530047 18.9835823,29.2747324 19.0144723,29.294162 C19.0317957,29.3050258 19.0501628,29.3146362 19.0676949,29.3255 C19.1804017,29.3954883 19.294987,29.4625516 19.4108245,29.5277347 C19.4346182,29.5411056 19.4573683,29.5561479 19.4813706,29.5693099 C19.4857537,29.5718169 19.4903454,29.5736972 19.4947285,29.5762042 C19.6381166,29.6545493 19.7840093,29.728507 19.9319891,29.7991221 C19.9434685,29.804554 19.9543218,29.8108216 19.9655924,29.8162535 C19.9985696,29.8317136 20.0327991,29.8446667 20.0657763,29.8599178 C20.1732652,29.9090141 20.2813802,29.956439 20.391165,30.0013568 C20.4166284,30.0118028 20.4410482,30.0239202 20.4665116,30.0339484 C20.4959406,30.0456479 20.5264131,30.0550493 20.5558421,30.066331 C20.6622875,30.1074883 20.7695676,30.1461385 20.8778914,30.1831174 C20.9129557,30.1950258 20.9467678,30.2092324 20.9820408,30.2209319 C20.999573,30.2267817 21.0177313,30.2309601 21.0352635,30.2366009 C21.1763557,30.2819366 21.3187002,30.3237207 21.4627145,30.362162 C21.4794118,30.3665493 21.4954829,30.3723991 21.5121802,30.3765775 C21.5144761,30.3772042 21.516772,30.3776221 21.5192766,30.3782488 C21.6818666,30.4204507 21.8465437,30.4570117 22.0126819,30.4900211 C22.0268746,30.492946 22.0408586,30.4969155 22.05526,30.4996315 C22.0911592,30.5065258 22.1283107,30.5107042 22.1644187,30.5171808 C22.2833869,30.5386995 22.4029814,30.558338 22.5236194,30.5750516 C22.552631,30.5790211 22.5810164,30.5852887 22.6102367,30.5890493 C22.6405005,30.5930188 22.6713905,30.5942723 22.7016544,30.5978239 C22.8216663,30.6120305 22.9423043,30.6233122 23.0635685,30.6327136 C23.1011374,30.6356385 23.1380802,30.6410704 23.1756491,30.6435775 C23.1921377,30.6446221 23.2090437,30.6442042 23.225741,30.6452488 C23.3996017,30.6554859 23.574506,30.6619624 23.75108,30.6619624 C23.927654,30.6619624 24.1025582,30.655277 24.2766276,30.6452488 C24.2931162,30.6442042 24.3100222,30.6446221 24.3265108,30.6435775 C24.3642884,30.6410704 24.4010225,30.6356385 24.4385915,30.6327136 C24.5600643,30.6233122 24.6807024,30.6120305 24.8007142,30.5978239 C24.8601984,30.5907207 24.9194738,30.5834085 24.9787492,30.5750516 C25.0993873,30.558338 25.2191904,30.5386995 25.3383674,30.5171808 C25.3888768,30.5079883 25.4395948,30.5000493 25.4896867,30.4900211 C25.6558249,30.4570117 25.8205021,30.4202418 25.9830921,30.3782488 C26.0020852,30.3732347 26.020661,30.3671761 26.0396542,30.362162 C26.1836684,30.3237207 26.3264304,30.2817277 26.4675226,30.236392 C26.5203278,30.2194695 26.5722982,30.2010845 26.6244773,30.1831174 C26.732801,30.1461385 26.8402899,30.1072793 26.9467352,30.0661221 C27.0018363,30.0448122 27.0567287,30.0232934 27.1112037,30.0011479 C27.2209884,29.95623 27.3295209,29.9085962 27.4372185,29.8595 C27.4816751,29.8392347 27.5265491,29.8200141 27.5705882,29.7991221 C27.7185681,29.728507 27.8646695,29.6545493 28.0082663,29.5759953 C28.036443,29.5605352 28.0635761,29.5436127 28.0917528,29.5279437 C28.2077991,29.4627606 28.3225931,29.3954883 28.4355086,29.3255 C28.483722,29.2956244 28.5308919,29.2644953 28.5784792,29.2335751 C28.671358,29.1734061 28.7631932,29.1115657 28.853776,29.048054 C28.9017808,29.0144178 28.9495768,28.9807817 28.9969554,28.9461009 C29.0933824,28.8754859 29.1879308,28.8025728 29.2814357,28.7284061 C29.3169175,28.7002019 29.3534429,28.6730423 29.3885072,28.6442113 C29.5139457,28.5412136 29.6368796,28.4352911 29.756474,28.3258169 C29.7848595,28.2997019 29.8119926,28.2723333 29.8401693,28.2460094 C29.9320044,28.1597254 30.0223786,28.0721878 30.1104569,27.9821432 C30.150113,27.9416127 30.1889342,27.9000376 30.2279642,27.8586714 C30.3043543,27.7778192 30.3790748,27.6955047 30.4523342,27.6117277 C30.4896944,27.569108 30.5270546,27.5266972 30.56358,27.4832418 C30.6447706,27.3869296 30.7234566,27.2885282 30.8006817,27.1886643 C30.8242666,27.158162 30.8488951,27.1284953 30.8720627,27.097784 C30.970368,26.967 31.0651252,26.8335 31.1563343,26.697493 C31.1613434,26.6901808 31.1667701,26.6830775 31.1717793,26.6757653 C31.1767884,26.6832864 31.1824238,26.6903897 31.187433,26.6979108 C31.2784333,26.8337089 31.3729818,26.967 31.4710784,27.0973662 C31.4948721,27.1291221 31.5201268,27.1594155 31.5443379,27.1907535 C31.620728,27.2895728 31.6987879,27.3873474 31.7793524,27.4828239 C31.8162952,27.5266972 31.8540728,27.5695258 31.8918505,27.6127723 C31.9646925,27.6959225 32.0387868,27.7776103 32.1145508,27.8578357 C32.1539982,27.8996197 32.1932368,27.9416127 32.2335191,27.98277 C32.3205538,28.07177 32.4098843,28.1582629 32.5006759,28.2435023 C32.5298962,28.2708709 32.5578642,28.299284 32.5875019,28.3264437 C32.7068876,28.4355 32.8291954,28.5414225 32.9544252,28.6440023 C32.9903244,28.6734601 33.0274759,28.7012465 33.0637925,28.7300775 C33.1564625,28.8036174 33.2501762,28.8759038 33.3457682,28.945892 C33.3935643,28.9807817 33.4419864,29.0148357 33.4904086,29.0488897 C33.5801566,29.1119836 33.6713657,29.1731972 33.7634095,29.2329484 C33.811623,29.2642864 33.8596278,29.2958333 33.9086761,29.3261268 C34.0203393,29.3954883 34.133881,29.4619249 34.2488837,29.5264812 C34.2781039,29.542777 34.3062806,29.5603263 34.3357096,29.5764131 C34.478889,29.6545493 34.624573,29.728507 34.7723441,29.7989131 C34.8170094,29.820223 34.8627183,29.8396526 34.9075923,29.8603357 C35.014455,29.909223 35.1221527,29.956439 35.2313113,30.0011479 C35.2864124,30.0237113 35.3417222,30.04523 35.3972407,30.0667488 C35.5032686,30.1076972 35.6101314,30.1463474 35.7180377,30.1831174 C35.7706342,30.2010845 35.823022,30.2196784 35.8760359,30.2368099 C36.0167107,30.2819366 36.1588465,30.3237207 36.3022346,30.3619531 C36.3216452,30.3671761 36.3406384,30.3734437 36.360049,30.3784577 C36.522639,30.4206596 36.6873162,30.4572207 36.8532456,30.49023 C36.9035463,30.5002582 36.954473,30.5081972 37.0049824,30.5173897 C37.1239507,30.5389085 37.2435451,30.5585469 37.3639744,30.5752606 C37.4232498,30.5834085 37.4825253,30.5909296 37.5422181,30.5980329 C37.66223,30.6122394 37.782868,30.6235211 37.9041322,30.6329225 C37.9417011,30.6358474 37.9786439,30.6412793 38.0162129,30.6437864 C38.0327014,30.644831 38.0496075,30.6444131 38.066096,30.6454577 C38.2401654,30.6556948 38.4150697,30.6621714 38.591435,30.6621714 C38.7678002,30.6621714 38.9429132,30.6554859 39.1167739,30.6454577 C39.1332625,30.6444131 39.1501685,30.644831 39.1666571,30.6437864 C39.2044347,30.6412793 39.2411688,30.6358474 39.2787377,30.6329225 C39.4000019,30.6235211 39.5208487,30.6122394 39.6406518,30.5980329 C39.700136,30.5909296 39.7596201,30.5836174 39.8186868,30.5752606 C39.9393248,30.5585469 40.0589193,30.5389085 40.1778876,30.5173897 C40.2283969,30.5081972 40.2793237,30.5002582 40.3296243,30.49023 C40.4955538,30.4572207 40.6602309,30.4206596 40.8228209,30.3784577 C40.8422315,30.3734437 40.861016,30.3671761 40.8802179,30.362162 C41.0240234,30.3239296 41.1661592,30.2819366 41.3070427,30.2368099 C41.3600567,30.2198873 41.4122358,30.2012934 41.4648323,30.1833263 C41.5729473,30.1463474 41.6800188,30.1076972 41.7862554,30.0667488 C41.8415652,30.045439 41.8966663,30.0239202 41.95135,30.0013568 C42.060926,29.956439 42.1690411,29.909223 42.2763212,29.8601268 C42.3209865,29.8396526 42.366278,29.8204319 42.4105258,29.799331 C42.5585057,29.728716 42.7043984,29.6547582 42.8477865,29.5764131 C42.8763806,29.5607441 42.9041399,29.5436127 42.9325253,29.5275258 C43.0481541,29.4625516 43.1625306,29.3956972 43.27482,29.3257089 C43.3232422,29.2956244 43.3708295,29.2642864 43.4184168,29.2333662 C43.5110869,29.1731972 43.6027133,29.1115657 43.6930875,29.0482629 C43.7410922,29.0144178 43.789097,28.9807817 43.8364756,28.9461009 C43.9329025,28.8756948 44.0272423,28.8027817 44.1205384,28.728615 C44.1562289,28.7002019 44.1925456,28.6730423 44.2278186,28.6442113 C44.3532571,28.5414225 44.4759823,28.4352911 44.5957855,28.3258169 C44.6243796,28.2997019 44.6517214,28.2719155 44.6801068,28.2453826 C44.7717333,28.1593075 44.8618987,28.0719789 44.9497683,27.9821432 C44.9896331,27.9414038 45.0284544,27.8998286 45.0674843,27.8584624 C45.1436657,27.7776103 45.2183862,27.6955047 45.2914369,27.6119366 C45.3287971,27.569108 45.366366,27.5264883 45.4031001,27.4830329 C45.484082,27.3869296 45.5625594,27.2887371 45.639367,27.1892911 C45.6631606,27.1585798 45.6879979,27.1287042 45.7113741,27.0975751 C45.8096795,26.967 45.9042279,26.8337089 45.9952282,26.6977019 C46.0002374,26.6901808 46.0058728,26.6830775 46.010882,26.6755563 C46.0158912,26.6830775 46.0213178,26.6899718 46.026327,26.697284 C46.117536,26.8335 46.2122932,26.967 46.3105986,27.0975751 C46.3337661,27.1284953 46.3583946,27.1579531 46.3819795,27.1884554 C46.4592046,27.2883192 46.5378906,27.3867207 46.6190813,27.4830329 C46.6556066,27.5264883 46.6929668,27.5688991 46.7303271,27.6115188 C46.8035865,27.6952958 46.8783069,27.7776103 46.9546971,27.8584624 C46.993727,27.8998286 47.0325483,27.9411948 47.0722044,27.9819343 C47.1602826,28.0719789 47.2506568,28.1595164 47.342492,28.2458005 C47.3706687,28.2721244 47.3978018,28.2997019 47.4261872,28.325608 C47.5457816,28.4350822 47.6687155,28.5412136 47.794154,28.6440023 C47.8292184,28.6728333 47.8657437,28.699993 47.9012255,28.7281972 C47.9947304,28.8025728 48.0892789,28.875277 48.1857058,28.945892 C48.2328757,28.9805728 48.2808804,29.0142089 48.3288852,29.0478451 C48.4194681,29.1113568 48.5113032,29.1731972 48.604182,29.2333662 C48.6517693,29.2642864 48.6991479,29.2954155 48.7471527,29.3252911 C48.8600682,29.3954883 48.9746534,29.4627606 49.0909084,29.5277347 C49.1188764,29.5434038 49.1462182,29.5603263 49.1743949,29.5757864 C49.317783,29.6541315 49.4638844,29.7282981 49.612073,29.7989131 C49.6561121,29.8198052 49.7009861,29.8390258 49.7454427,29.8592911 C49.8531403,29.9083873 49.9614641,29.9560211 50.0714576,30.000939 C50.1259325,30.0232934 50.1810336,30.0448122 50.235926,30.0659131 C50.3423713,30.1070704 50.4498602,30.1457207 50.558184,30.1829085 C50.6105718,30.2008756 50.6625421,30.2192606 50.7151386,30.2361831 C50.8562309,30.2815188 50.9987841,30.3235117 51.143007,30.3619531 C51.1620002,30.3669671 51.1803673,30.3730258 51.1995692,30.3780399 C51.3621592,30.4202418 51.527045,30.4568028 51.6929745,30.4898122 C51.7430664,30.4998404 51.7937845,30.5077793 51.8442938,30.5169718 C51.9634708,30.5384906 52.0830653,30.5581291 52.203912,30.5748427 C52.2629787,30.5829906 52.3224629,30.5905117 52.381947,30.597615 C52.5019589,30.6118216 52.6225969,30.6231033 52.7440698,30.6325047 C52.7816387,30.6354296 52.8183728,30.6408615 52.8561504,30.6433685 C52.872639,30.6444131 52.889545,30.6439953 52.9060336,30.6450399 C53.080103,30.655277 53.2550073,30.6617535 53.4315813,30.6617535 C53.6081553,30.6617535 53.7830595,30.6550681 53.9571289,30.6450399 C53.9736175,30.6439953 53.9905235,30.6444131 54.0070121,30.6433685 C54.0447898,30.6408615 54.0815238,30.6354296 54.1190928,30.6325047 C54.2405656,30.6231033 54.3612037,30.6118216 54.4812155,30.597615 C54.5406997,30.5905117 54.5999751,30.5831995 54.6592505,30.5748427 C54.7798886,30.5581291 54.8996917,30.5384906 55.0188687,30.5169718 C55.0693781,30.5077793 55.1200961,30.4998404 55.170188,30.4898122 C55.3363262,30.4568028 55.5010034,30.4200329 55.6635934,30.3780399 C55.6825866,30.3730258 55.7011623,30.3669671 55.7201555,30.3619531 C55.8641697,30.3235117 56.0069317,30.2815188 56.1480239,30.2361831 C56.2008291,30.2192606 56.2527995,30.2008756 56.3049786,30.1829085 C56.4133023,30.1459296 56.5207912,30.1070704 56.6272365,30.0659131 C56.6823376,30.0446033 56.73723,30.0230845 56.791705,30.000939 C56.9014897,29.9560211 57.0100222,29.9083873 57.1177198,29.8592911 C57.1621764,29.8390258 57.2070504,29.8198052 57.2510895,29.7989131 C57.3992781,29.7282981 57.5451708,29.6543404 57.6887676,29.5757864 C57.7169443,29.5603263 57.7442862,29.5434038 57.7722541,29.5277347 C57.8883004,29.4625516 58.0030944,29.3952793 58.1160099,29.3252911 C58.1642233,29.2954155 58.2113932,29.2642864 58.2589805,29.2333662 C58.3518593,29.1731972 58.4436945,29.1113568 58.5342773,29.0478451 C58.5822821,29.0142089 58.6300781,28.9805728 58.6774567,28.945892 C58.7738837,28.875277 58.8684321,28.8023638 58.961937,28.7281972 C58.9974188,28.699993 59.0339442,28.6728333 59.0690085,28.6440023 C59.194447,28.5410047 59.3173809,28.4350822 59.4369753,28.325608 C59.4653608,28.299493 59.4924939,28.2721244 59.5206706,28.2458005 C59.6125057,28.1595164 59.7028799,28.0719789 59.7909582,27.9819343 C59.8306143,27.9414038 59.8694355,27.8998286 59.9084655,27.8584624 C59.9848556,27.7776103 60.0595761,27.6952958 60.1328355,27.6115188 C60.1701957,27.5688991 60.2075559,27.5264883 60.2440813,27.4830329 C60.3252719,27.3867207 60.403958,27.2883192 60.481183,27.1884554 C60.5047679,27.1579531 60.5293964,27.1282864 60.552564,27.0975751 C60.6508693,26.9667911 60.7456265,26.8332911 60.8368356,26.697284 C60.8418447,26.6899718 60.8472714,26.6828685 60.8522806,26.6755563 C60.8572898,26.6830775 60.8629251,26.6901808 60.8679343,26.6977019 C60.9589346,26.8337089 61.0536918,26.967 61.1517884,27.0975751 C61.1751647,27.1287042 61.2000019,27.1585798 61.2237956,27.1892911 C61.3006032,27.2887371 61.3792892,27.3869296 61.4600624,27.4830329 C61.4967965,27.5264883 61.5341567,27.569108 61.5717256,27.6119366 C61.6449851,27.6955047 61.7194968,27.7776103 61.7956782,27.8584624 C61.8347082,27.8998286 61.8735294,27.9414038 61.9133942,27.9821432 C62.0012638,28.0719789 62.0914292,28.1593075 62.1830557,28.2453826 C62.2114411,28.2719155 62.2385742,28.299493 62.2673771,28.3258169 C62.3869715,28.4352911 62.5096967,28.5412136 62.6353439,28.6442113 C62.670617,28.6730423 62.7069336,28.7002019 62.7426241,28.728615 C62.8359203,28.8027817 62.9304687,28.8756948 63.026687,28.9461009 C63.0740656,28.9807817 63.1220703,29.0146268 63.1700751,29.0482629 C63.2604492,29.1117746 63.3520757,29.1731972 63.4447457,29.2333662 C63.4925417,29.2642864 63.5401291,29.2956244 63.5883425,29.3257089 C63.7008406,29.3954883 63.8150084,29.4625516 63.9306373,29.5275258 C63.9590227,29.5434038 63.9867819,29.5607441 64.0153761,29.5764131 C64.1587642,29.6547582 64.3046569,29.728716 64.4526367,29.799331 C64.4968846,29.8204319 64.542176,29.8396526 64.5868413,29.8601268 C64.6941215,29.909223 64.8022365,29.9566479 64.9118126,30.0013568 C64.9664962,30.0237113 65.0215973,30.04523 65.0769072,30.0667488 C65.1831438,30.1076972 65.2902152,30.1463474 65.3983303,30.1833263 C65.4509268,30.2012934 65.5031059,30.2198873 65.5561198,30.2368099 C65.6970033,30.2819366 65.8391391,30.3239296 65.9829446,30.362162 C66.0021465,30.367385 66.0211397,30.3734437 66.0403416,30.3784577 C66.2029316,30.4206596 66.3676088,30.4572207 66.5335382,30.49023 C66.5838388,30.5002582 66.6345569,30.5081972 66.685275,30.5173897 C66.8042433,30.5389085 66.9238377,30.5585469 67.0444757,30.5752606 C67.1037511,30.5834085 67.1630266,30.5909296 67.2225107,30.5980329 C67.3425226,30.6122394 67.4631606,30.6235211 67.5844248,30.6329225 C67.6219937,30.6358474 67.6589365,30.6412793 67.6965054,30.6437864 C67.712994,30.644831 67.7299,30.6444131 67.7463886,30.6454577 C67.920458,30.6556948 68.0953623,30.6621714 68.2717276,30.6621714 C68.4480928,30.6621714 68.6232058,30.6554859 68.7970665,30.6454577 C68.8135551,30.6444131 68.8304611,30.644831 68.8469497,30.6437864 C68.8847273,30.6412793 68.9214614,30.6358474 68.9590303,30.6329225 C69.0802945,30.6235211 69.2011412,30.6122394 69.3209444,30.5980329 C69.3804285,30.5909296 69.4399127,30.5836174 69.4989794,30.5752606 C69.6196174,30.5585469 69.7390031,30.5389085 69.8579714,30.5173897 C69.9084808,30.5081972 69.9594076,30.5002582 70.0097082,30.49023 C70.1756376,30.4572207 70.3403148,30.4206596 70.5029048,30.3784577 C70.5223154,30.3734437 70.5413086,30.3671761 70.5607192,30.3619531 C70.704316,30.3237207 70.8462431,30.2819366 70.9869179,30.2368099 C71.0399318,30.2196784 71.0923196,30.2010845 71.1449161,30.1831174 C71.2528225,30.1461385 71.3596852,30.1074883 71.4657131,30.0667488 C71.5212316,30.04523 71.5765414,30.0237113 71.6316425,30.0011479 C71.7408012,29.956439 71.8484988,29.909223 71.9553615,29.8603357 C72.0004442,29.8396526 72.0459444,29.820223 72.0906097,29.7989131 C72.2383808,29.728507 72.3840648,29.6545493 72.5272442,29.5764131 C72.5566732,29.5603263 72.5848499,29.542777 72.6140702,29.5264812 C72.7288641,29.4619249 72.8424058,29.3954883 72.9542777,29.3261268 C73.0031173,29.2958333 73.0511221,29.2640775 73.0995443,29.2329484 C73.1917969,29.1731972 73.2827972,29.1119836 73.3725452,29.0488897 C73.4209674,29.0148357 73.4693896,28.9807817 73.5171856,28.945892 C73.6127777,28.8759038 73.7064913,28.8036174 73.7991613,28.7300775 C73.8354779,28.7012465 73.8726294,28.6734601 73.9085286,28.6440023 C74.0335497,28.5414225 74.1560662,28.4357089 74.2754519,28.3264437 C74.3050896,28.299493 74.3330576,28.2710798 74.3622779,28.2435023 C74.4530695,28.1582629 74.5421913,28.07177 74.6294347,27.98277 C74.669717,27.9416127 74.7089557,27.8996197 74.748403,27.8578357 C74.824167,27.7774014 74.8984701,27.6957136 74.9711033,27.6127723 C75.008881,27.5697347 75.0466586,27.5266972 75.0836014,27.4828239 C75.1641659,27.3873474 75.2420171,27.2897817 75.318616,27.1907535 C75.3428271,27.1594155 75.3680817,27.1291221 75.3918754,27.0973662 C75.489972,26.967 75.5845205,26.8337089 75.6755208,26.6979108 C75.68053,26.6903897 75.6861654,26.6832864 75.6911746,26.6757653 C75.6961837,26.6832864 75.7016104,26.6901808 75.7066196,26.697493 C75.7978286,26.8337089 75.8925858,26.9672089 75.9908912,27.097784 C76.0140587,27.1287042 76.0386872,27.158162 76.0622721,27.1886643 C76.1394972,27.2885282 76.2181832,27.3869296 76.2993739,27.4832418 C76.3358992,27.5266972 76.3732594,27.569108 76.4106196,27.6117277 C76.4838791,27.6955047 76.5585995,27.7778192 76.6349897,27.8586714 C76.6740196,27.9000376 76.7128408,27.9414038 76.7524969,27.9821432 C76.8405752,28.0721878 76.9309494,28.1597254 77.0227845,28.2460094 C77.0509612,28.2723333 77.0780944,28.2999108 77.1064798,28.3258169 C77.2260742,28.4352911 77.3490081,28.5414225 77.4744466,28.6442113 C77.509511,28.6730423 77.5460363,28.7002019 77.5815181,28.7284061 C77.675023,28.8027817 77.7695715,28.8754859 77.8659984,28.9461009 C77.9131683,28.9807817 77.961173,29.0144178 78.0091778,29.048054 C78.0997606,29.1115657 78.1915958,29.1734061 78.2844746,29.2335751 C78.3320619,29.2644953 78.3794405,29.2956244 78.4274452,29.3255 C78.5403608,29.3956972 78.654946,29.4629695 78.771201,29.5279437 C78.799169,29.5436127 78.8265108,29.5605352 78.8546875,29.5759953 C78.9980756,29.6543404 79.144177,29.728507 79.2923656,29.7991221 C79.3364047,29.8200141 79.3812787,29.8392347 79.4257353,29.8595 C79.5334329,29.9085962 79.6417567,29.95623 79.7517502,30.0011479 C79.8062251,30.0235023 79.8613262,30.0450211 79.9162186,30.0661221 C80.0226639,30.1072793 80.1301528,30.1459296 80.2384766,30.1831174 C80.2908644,30.2010845 80.3428347,30.2194695 80.3954312,30.236392 C80.5365234,30.2817277 80.6790767,30.3237207 80.8232996,30.362162 C80.8422928,30.3671761 80.8606598,30.3732347 80.8798617,30.3782488 C81.0424517,30.4204507 81.2073376,30.4570117 81.3732671,30.4900211 C81.423359,30.5000493 81.4740771,30.5079883 81.5245864,30.5171808 C81.6437634,30.5386995 81.7633578,30.558338 81.8842046,30.5750516 C81.9432713,30.5831995 82.0027554,30.5907207 82.0622396,30.5978239 C82.1822515,30.6120305 82.3028895,30.6233122 82.4243624,30.6327136 C82.4619313,30.6356385 82.4986654,30.6410704 82.536443,30.6435775 C82.5529316,30.6446221 82.5698376,30.6442042 82.5863262,30.6452488 C82.7603956,30.6554859 82.9352999,30.6619624 83.1118739,30.6619624 C83.2882391,30.6619624 83.4631434,30.655277 83.6372128,30.6452488 C83.6537014,30.6442042 83.6708161,30.6446221 83.6873047,30.6435775 C83.7250823,30.6410704 83.7618164,30.6356385 83.7993853,30.6327136 C83.9206495,30.6233122 84.0414962,30.6120305 84.1612994,30.5978239 C84.1915633,30.5942723 84.222662,30.5928099 84.2527171,30.5890493 C84.2819374,30.5852887 84.3103228,30.57923 84.3393344,30.5750516 C84.4599724,30.558338 84.5795669,30.5386995 84.6985352,30.5171808 C84.7346431,30.5107042 84.7715859,30.5065258 84.8076938,30.4996315 C84.8220952,30.4969155 84.8358705,30.492946 84.8502719,30.4900211 C85.0164101,30.4570117 85.1810872,30.4204507 85.3436772,30.3782488 C85.3459731,30.3776221 85.3484777,30.3772042 85.3507736,30.3765775 C85.3674709,30.3721901 85.383542,30.3665493 85.4002394,30.362162 C85.5442536,30.3239296 85.6865981,30.2819366 85.8276903,30.2366009 C85.8452225,30.2309601 85.8633808,30.2265728 85.880913,30.2209319 C85.916186,30.2094413 85.9499981,30.1952347 85.9850624,30.1831174 C86.0933862,30.1461385 86.2008751,30.1072793 86.3071117,30.066331 C86.3367494,30.0548404 86.367222,30.0456479 86.3964422,30.0339484 C86.4219056,30.0237113 86.4463254,30.0115939 86.4717888,30.0013568 C86.5813649,29.956439 86.6896886,29.9090141 86.7971775,29.8599178 C86.8303634,29.8448756 86.8645929,29.8319225 86.8973614,29.8162535 C86.9088408,29.8108216 86.919694,29.804554 86.9309647,29.7991221 C87.0789445,29.728507 87.2248372,29.6545493 87.3682253,29.5762042 C87.3726084,29.5736972 87.3772001,29.5718169 87.3815832,29.5693099 C87.4055856,29.5561479 87.4283356,29.5411056 87.4521293,29.5277347 C87.5679668,29.4627606 87.6825521,29.3954883 87.7952589,29.3255 C87.8127911,29.3146362 87.8309494,29.3050258 87.8484815,29.294162 C87.8791628,29.2747324 87.9083831,29.2530047 87.9390644,29.2331573 C88.0317345,29.1729883 88.1233609,29.1115657 88.2137351,29.048054 C88.2410769,29.0288333 88.269671,29.011493 88.2968042,28.9920634 C88.3174671,28.97723 88.3370864,28.9607254 88.3575406,28.9456831 C88.4535501,28.8754859 88.5476811,28.8029906 88.6405599,28.7290329 C88.6683192,28.7068873 88.6975394,28.6866221 88.72509,28.6642676 C88.7332299,28.6575822 88.7409524,28.65027 88.7490924,28.6435845 C88.8743222,28.5407958 88.9970473,28.4348732 89.1164331,28.325608 C89.121651,28.3208028 89.127495,28.3164155 89.1327129,28.3114014 C89.1560892,28.2898826 89.1775869,28.2666925 89.2007544,28.2449648 C89.2923809,28.1590986 89.3823376,28.071561 89.4702072,27.9819343 C89.4858609,27.9660563 89.5025582,27.951223 89.5180032,27.9351362 C89.5422143,27.9100657 89.5643382,27.883115 89.5883406,27.8578357 C89.6643133,27.7774014 89.7388251,27.6955047 89.811667,27.6121455 C89.8342084,27.5864484 89.8582108,27.5622136 89.8805434,27.5363075 C89.895571,27.5187582 89.9091376,27.4999554 89.9239564,27.4824061 C90.0045209,27.3867207 90.0825808,27.2891549 90.1591797,27.1901268 C90.1785903,27.1650563 90.1994619,27.1414484 90.2184551,27.1163779 C90.2232556,27.1101103 90.2276386,27.103216 90.2324391,27.0969484 C90.3305358,26.9665822 90.4248755,26.8335 90.5158758,26.6979108 C90.5206763,26.6908075 90.5258942,26.6841221 90.5306947,26.6770188 C90.69892,26.9298122 90.8809206,27.1748756 91.0758617,27.4113732 L91.0758617,62.6660282 L15.7866747,62.6660282 Z" id="Shape" stroke="#FFFFFF" stroke-width="2" fill="#4A4A4A"></path>
                </g>
            </g>
        </g>
    </g>
</svg>