<?xml version="1.0" encoding="iso-8859-1"?>
<!-- Generator: Adobe Illustrator 19.0.0, SVG Export Plug-In . SVG Version: 6.00 Build 0)  -->
<svg version="1.1" id="Capa_1" xmlns="http://www.w3.org/2000/svg" xmlns:xlink="http://www.w3.org/1999/xlink" x="0px" y="0px"
	 viewBox="0 0 512 512" style="enable-background:new 0 0 512 512;" xml:space="preserve">
<g>
	<g transform="translate(1 1)">
		<path style="fill:#607D8B;" d="M502.467,41.667v452.267c-0.014,4.707-3.826,8.519-8.533,8.533H16.067
			c-4.707-0.014-8.519-3.826-8.533-8.533V41.667H502.467z"/>
		<path style="fill:#CFD8DC;" d="M476.869,41.667l-0.002,452.267c0.105,4.584-3.508,8.395-8.092,8.533H15.625
			c-4.584-0.138-8.197-3.949-8.092-8.533L7.531,41.667H476.869z"/>
		<path style="fill:#00838F;" d="M502.467,16.067v42.667H7.533V16.067c0.014-4.707,3.826-8.519,8.533-8.533h477.867
			C498.64,7.547,502.453,11.36,502.467,16.067z"/>
		<path style="fill:#00BCD4;" d="M476.867,16.067l0.002,42.667H7.531l0.002-42.667c-0.105-4.584,3.508-8.395,8.092-8.533h453.149
			C473.358,7.672,476.972,11.482,476.867,16.067z"/>
		<path style="fill:#F5F5F5;" d="M203.8,289.133V152.6c-0.028-9.414-7.652-17.039-17.067-17.067H67.267
			c-9.414,0.028-17.039,7.652-17.067,17.067v213.333c0.028,9.414,7.652,17.039,17.067,17.067h119.467
			c9.414-0.028,17.039-7.652,17.067-17.067v-42.667"/>
		<path style="fill:#37474F;" d="M459.8,109.933V127H306.2v-17.067c0.027-9.414,7.652-17.039,17.067-17.067h119.467
			C452.148,92.894,459.773,100.519,459.8,109.933z"/>
		<path style="fill:#F5F5F5;" d="M459.8,127v196.267c-0.028,9.414-7.652,17.039-17.067,17.067H323.267
			c-9.414-0.028-17.039-7.652-17.067-17.067V127H459.8z"/>
		<path style="fill:#37474F;" d="M459.8,400.067v17.067H306.2v-17.067c0.027-9.414,7.652-17.039,17.067-17.067h119.467
			C452.148,383.028,459.773,390.652,459.8,400.067z"/>
		<polygon style="fill:#F5F5F5;" points="459.8,417.133 459.8,502.467 306.2,502.467 306.2,485.4 306.2,451.267 306.2,417.133 		"/>
		<path style="fill:#37474F;" d="M203.8,442.733V459.8H50.2v-17.067c0.028-9.414,7.652-17.039,17.067-17.067h119.467
			C196.148,425.694,203.773,433.319,203.8,442.733z"/>
		<polygon style="fill:#F5F5F5;" points="203.8,459.8 203.8,502.467 50.2,502.467 50.2,493.933 50.2,476.867 50.2,459.8 		"/>
		<circle style="fill:#FF5722;" cx="127" cy="272.067" r="34.133"/>
		<rect x="348.867" y="161.133" style="fill:#FFEB3A;" width="34.133" height="42.667"/>
		<rect x="331.8" y="237.933" style="fill:#FF5722;" width="51.2" height="42.667"/>
		<path d="M383,511h-51.2c-4.713,0-8.533-3.821-8.533-8.533v-51.2c0-4.713,3.82-8.533,8.533-8.533H383
			c4.713,0,8.533,3.82,8.533,8.533v51.2C391.533,507.18,387.713,511,383,511z M340.333,493.933h34.133V459.8h-34.133V493.933z"/>
		<polyline style="fill:#E91E63;" points="383,340.333 383,314.733 331.8,314.733 331.8,340.333 		"/>
		<path style="fill:#37474F;" d="M203.8,152.6v17.067H50.2V152.6c0.028-9.414,7.652-17.039,17.067-17.067h119.467
			C196.148,135.561,203.773,143.186,203.8,152.6z"/>
		<g>
			<path style="fill:#607D8B;" d="M434.2,109.933V127h-128v-17.067c-0.686-8.609,5.631-16.189,14.222-17.067h99.555
				C428.569,93.745,434.886,101.325,434.2,109.933z"/>
			<path style="fill:#607D8B;" d="M434.2,400.067v17.067h-128v-17.067c-0.686-8.609,5.631-16.189,14.222-17.067h99.555
				C428.569,383.878,434.886,391.458,434.2,400.067z"/>
			<path style="fill:#607D8B;" d="M178.2,442.733V459.8h-128v-17.067c-0.686-8.609,5.631-16.189,14.222-17.067h99.555
				C172.569,426.545,178.886,434.125,178.2,442.733z"/>
			<path style="fill:#607D8B;" d="M178.2,152.6v17.067h-128V152.6c-0.686-8.609,5.631-16.189,14.222-17.067h99.555
				C172.569,136.411,178.886,143.991,178.2,152.6z"/>
		</g>
		<g>
			<circle style="fill:#CC4B4C;" cx="203.8" cy="306.2" r="17.067"/>
			<circle style="fill:#CC4B4C;" cx="306.2" cy="178.2" r="17.067"/>
		</g>
		<rect x="331.8" y="451.267" style="fill:#FFEB3A;" width="51.2" height="51.2"/>
	</g>
	<g>
		<path d="M494.933,0H17.067C7.645,0.009,0.009,7.645,0,17.067v477.867c0.009,9.422,7.645,17.057,17.067,17.067h477.867
			c9.422-0.009,17.057-7.645,17.067-17.067V17.067C511.991,7.645,504.355,0.009,494.933,0z M494.934,17.067V51.2H17.067V17.067
			H494.934z M196.267,452.267H59.733v-8.533c0.006-4.71,3.823-8.527,8.533-8.533h119.467c4.71,0.006,8.527,3.823,8.533,8.533
			V452.267z M59.733,469.333h136.533v25.6H59.733V469.333z M452.267,409.6H315.733v-8.533c0.006-4.71,3.823-8.527,8.533-8.533
			h119.467c4.71,0.006,8.527,3.823,8.533,8.533V409.6z M315.733,426.667h136.533v68.267h-59.733v-42.667
			c0-4.713-3.82-8.533-8.533-8.533h-51.2c-4.713,0-8.533,3.82-8.533,8.533v42.667h-8.533V426.667z M341.333,494.933V460.8h34.133
			v34.133H341.333z M469.333,494.933v-93.867c-0.015-14.132-11.468-25.585-25.6-25.6H324.267c-14.132,0.015-25.585,11.468-25.6,25.6
			v93.867h-85.333v-51.2c-0.015-14.132-11.468-25.585-25.6-25.6H68.267c-14.132,0.015-25.585,11.468-25.6,25.6v51.2h-25.6V68.267
			h477.868l0.011,426.667H469.333z"/>
		<path d="M42.667,42.667h51.2c4.713,0,8.533-3.821,8.533-8.533S98.579,25.6,93.867,25.6h-51.2c-4.713,0-8.533,3.821-8.533,8.533
			S37.954,42.667,42.667,42.667z"/>
		<path d="M128,42.667h17.067c4.713,0,8.533-3.821,8.533-8.533s-3.821-8.533-8.533-8.533H128c-4.713,0-8.533,3.821-8.533,8.533
			S123.287,42.667,128,42.667z"/>
		<path d="M179.2,42.667h17.067c4.713,0,8.533-3.821,8.533-8.533s-3.821-8.533-8.533-8.533H179.2c-4.713,0-8.533,3.821-8.533,8.533
			S174.487,42.667,179.2,42.667z"/>
		<path d="M230.4,42.667h17.067c4.713,0,8.533-3.821,8.533-8.533s-3.82-8.533-8.533-8.533H230.4c-4.713,0-8.533,3.821-8.533,8.533
			S225.687,42.667,230.4,42.667z"/>
		<path d="M281.6,42.667h17.067c4.713,0,8.533-3.821,8.533-8.533s-3.82-8.533-8.533-8.533H281.6c-4.713,0-8.533,3.821-8.533,8.533
			S276.887,42.667,281.6,42.667z"/>
		<path d="M469.333,42.667h8.533c4.713,0,8.533-3.821,8.533-8.533s-3.82-8.533-8.533-8.533h-8.533c-4.713,0-8.533,3.821-8.533,8.533
			S464.621,42.667,469.333,42.667z"/>
		<path d="M443.733,85.333H324.267c-14.132,0.015-25.585,11.468-25.6,25.6v44.239c-10.199,3.592-17.033,13.214-17.067,24.028
			c0,0.465,0.113,0.899,0.137,1.358c-22.724,14.427-35.842,40.038-34.271,66.908c0,21.855-7.316,36.967-21.718,45.098
			c-3.064-4.343-7.403-7.625-12.415-9.392V153.6c-0.015-14.132-11.468-25.585-25.6-25.6H68.267
			c-14.132,0.015-25.585,11.468-25.6,25.6v213.333c0.015,14.132,11.468,25.585,25.6,25.6h119.467
			c14.132-0.015,25.585-11.468,25.6-25.6v-35.706c9.373-3.34,15.946-11.827,16.835-21.737c14.883-7.107,34.365-23.723,34.365-62.024
			c-1.406-19.981,7.676-39.255,23.98-50.891c2.8,3.001,6.283,5.283,10.153,6.652v121.04c0.015,14.132,11.468,25.585,25.6,25.6
			h119.467c14.132-0.015,25.585-11.468,25.6-25.6V110.933C469.318,96.801,457.865,85.349,443.733,85.333z M68.267,145.067h119.467
			c4.71,0.006,8.527,3.823,8.533,8.533v8.533H59.733V153.6C59.739,148.89,63.556,145.073,68.267,145.067z M187.733,375.467H68.267
			c-4.71-0.006-8.527-3.823-8.533-8.533V179.2h136.533v103.972c-10.22,3.564-17.068,13.203-17.068,24.027
			c0,10.824,6.847,20.463,17.068,24.027v35.706C196.261,371.644,192.444,375.461,187.733,375.467z M204.8,315.733
			c-4.713,0-8.533-3.82-8.533-8.533s3.821-8.533,8.533-8.533c4.713,0,8.533,3.82,8.533,8.533
			C213.327,311.91,209.51,315.727,204.8,315.733z M324.267,102.4h119.467c4.71,0.006,8.527,3.823,8.533,8.533v8.533H315.733v-8.533
			C315.739,106.223,319.556,102.406,324.267,102.4z M307.2,170.667c4.713,0,8.533,3.821,8.533,8.533s-3.82,8.533-8.533,8.533
			s-8.533-3.82-8.533-8.533C298.673,174.49,302.49,170.673,307.2,170.667z M375.467,332.8h-34.133v-8.533h34.133V332.8z
			 M452.267,324.267c-0.006,4.71-3.823,8.527-8.533,8.533h-51.2v-17.067c0-4.713-3.82-8.533-8.533-8.533h-51.2
			c-4.713,0-8.533,3.821-8.533,8.533V332.8c-4.71-0.006-8.527-3.823-8.533-8.533V203.228c10.22-3.565,17.067-13.204,17.067-24.028
			s-6.847-20.463-17.067-24.028v-18.639h136.533V324.267z"/>
		<path d="M170.667,273.067c0-23.564-19.103-42.667-42.667-42.667s-42.667,19.103-42.667,42.667s19.103,42.667,42.667,42.667
			C151.553,315.706,170.639,296.619,170.667,273.067z M128,298.667c-14.138,0-25.6-11.462-25.6-25.6s11.462-25.6,25.6-25.6
			c14.139,0,25.6,11.462,25.6,25.6C153.585,287.199,142.132,298.651,128,298.667z"/>
		<path d="M110.933,332.8h-25.6c-4.713,0-8.533,3.82-8.533,8.533s3.821,8.533,8.533,8.533h25.6c4.713,0,8.533-3.821,8.533-8.533
			S115.646,332.8,110.933,332.8z"/>
		<path d="M170.667,332.8h-25.6c-4.713,0-8.533,3.82-8.533,8.533s3.821,8.533,8.533,8.533h25.6c4.713,0,8.533-3.821,8.533-8.533
			S175.38,332.8,170.667,332.8z"/>
		<path d="M85.333,213.333h85.333c4.713,0,8.533-3.821,8.533-8.533c0-4.713-3.821-8.533-8.533-8.533H85.333
			c-4.713,0-8.533,3.821-8.533,8.533C76.8,209.513,80.621,213.333,85.333,213.333z"/>
		<path d="M349.867,213.333H384c4.713,0,8.533-3.821,8.533-8.533v-42.667c0-4.713-3.82-8.533-8.533-8.533h-25.6
			c-4.713,0-8.533,3.821-8.533,8.533c0,4.713,3.82,8.533,8.533,8.533h17.067v25.6h-25.6c-4.713,0-8.533,3.821-8.533,8.533
			C341.333,209.513,345.154,213.333,349.867,213.333z"/>
		<path d="M384,230.4h-51.2c-4.713,0-8.533,3.821-8.533,8.533V281.6c0,4.713,3.82,8.533,8.533,8.533H384
			c4.713,0,8.533-3.821,8.533-8.533v-42.667C392.533,234.221,388.713,230.4,384,230.4z M375.467,273.067h-34.133v-25.6h34.133
			V273.067z"/>
		<path d="M409.6,170.667h17.067c4.713,0,8.533-3.821,8.533-8.533c0-4.713-3.82-8.533-8.533-8.533H409.6
			c-4.713,0-8.533,3.821-8.533,8.533C401.067,166.846,404.887,170.667,409.6,170.667z"/>
		<path d="M409.6,196.267h17.067c4.713,0,8.533-3.821,8.533-8.533c0-4.713-3.82-8.533-8.533-8.533H409.6
			c-4.713,0-8.533,3.821-8.533,8.533C401.067,192.446,404.887,196.267,409.6,196.267z"/>
		<path d="M409.6,247.467h17.067c4.713,0,8.533-3.821,8.533-8.533c0-4.713-3.82-8.533-8.533-8.533H409.6
			c-4.713,0-8.533,3.821-8.533,8.533C401.067,243.646,404.887,247.467,409.6,247.467z"/>
		<path d="M409.6,273.067h17.067c4.713,0,8.533-3.82,8.533-8.533S431.38,256,426.667,256H409.6c-4.713,0-8.533,3.821-8.533,8.533
			S404.887,273.067,409.6,273.067z"/>
		<path d="M409.6,460.8h17.067c4.713,0,8.533-3.82,8.533-8.533s-3.82-8.533-8.533-8.533H409.6c-4.713,0-8.533,3.82-8.533,8.533
			S404.887,460.8,409.6,460.8z"/>
		<path d="M409.6,486.4h17.067c4.713,0,8.533-3.82,8.533-8.533s-3.82-8.533-8.533-8.533H409.6c-4.713,0-8.533,3.821-8.533,8.533
			S404.887,486.4,409.6,486.4z"/>
		<path d="M409.6,324.267h17.067c4.713,0,8.533-3.821,8.533-8.533c0-4.713-3.82-8.533-8.533-8.533H409.6
			c-4.713,0-8.533,3.821-8.533,8.533C401.067,320.446,404.887,324.267,409.6,324.267z"/>
	</g>
</g>
<g>
</g>
<g>
</g>
<g>
</g>
<g>
</g>
<g>
</g>
<g>
</g>
<g>
</g>
<g>
</g>
<g>
</g>
<g>
</g>
<g>
</g>
<g>
</g>
<g>
</g>
<g>
</g>
<g>
</g>
</svg>
