<?xml version="1.0" encoding="UTF-8"?>
<svg width="32px" height="32px" viewBox="0 0 32 32" version="1.1" xmlns="http://www.w3.org/2000/svg" xmlns:xlink="http://www.w3.org/1999/xlink">
    <!-- Generator: Sketch 47.1 (45422) - http://www.bohemiancoding.com/sketch -->
    <title>nav-monitoring</title>
    <desc>Created with Sketch.</desc>
    <defs></defs>
    <g id="Page-1" stroke="none" stroke-width="1" fill="none" fill-rule="evenodd">
        <g id="monitoring" stroke="#999999">
            <g id="monitor" transform="translate(1.000000, 3.000000)" stroke-width="0.2" fill="#999999" fill-rule="nonzero">
                <path d="M27.7272727,21 L2.27272727,21 C1.02,21 0,20.0190841 0,18.8124089 L0,2.18759115 C0,0.980915871 1.02,0 2.27272727,0 L27.7272727,0 C28.98,0 30,0.980915871 30,2.18759115 L30,18.8124089 C30,20.0190841 28.98,21 27.7272727,21 Z M2.27272727,0.87503646 C1.52090909,0.87503646 0.909090909,1.463936 0.909090909,2.18759115 L0.909090909,18.8124089 C0.909090909,19.536064 1.52090909,20.1249635 2.27272727,20.1249635 L27.7272727,20.1249635 C28.4790909,20.1249635 29.0909091,19.536064 29.0909091,18.8124089 L29.0909091,2.18759115 C29.0909091,1.463936 28.4790909,0.87503646 27.7272727,0.87503646 L2.27272727,0.87503646 Z" id="Shape"></path>
                <path d="M21.5272727,26 L9.47272727,26 C9.21178182,26 9,25.776 9,25.5 C9,25.224 9.21178182,25 9.47272727,25 L21.5272727,25 C21.7882182,25 22,25.224 22,25.5 C22,25.776 21.7882182,26 21.5272727,26 Z" id="Shape"></path>
                <path d="M15.5,26 C15.224,26 15,25.8062619 15,25.5675489 L15,21.4324511 C15,21.1937381 15.224,21 15.5,21 C15.776,21 16,21.1937381 16,21.4324511 L16,25.5675489 C16,25.8071268 15.776,26 15.5,26 Z" id="Shape"></path>
            </g>
            <rect id="Rectangle-4" stroke-width="1.2" x="4.6" y="6.6" width="22.8" height="13.8" rx="1"></rect>
        </g>
    </g>
</svg>