<?xml version="1.0" encoding="UTF-8"?>
<svg width="32px" height="32px" viewBox="0 0 32 32" version="1.1" xmlns="http://www.w3.org/2000/svg" xmlns:xlink="http://www.w3.org/1999/xlink">
    <!-- Generator: Sketch 47.1 (45422) - http://www.bohemiancoding.com/sketch -->
    <title>nav-api</title>
    <desc>Created with Sketch.</desc>
    <defs></defs>
    <g id="Page-1" stroke="none" stroke-width="1" fill="none" fill-rule="evenodd">
        <g id="api" stroke="#999999" stroke-width="0.4" fill="#999999" fill-rule="nonzero">
            <g id="circuit" transform="translate(0.571429, 3.000000)">
                <path d="M26.5306122,14.3265306 C24.9561531,14.3265306 23.6487245,15.4763673 23.3948265,16.9795918 L21.2244898,16.9795918 C19.4689592,16.9795918 18.0408163,18.4069388 18.0408163,20.1614082 L18.0408163,26 L19.1020408,26 L19.1020408,20.1614082 C19.1020408,18.9922041 20.0542245,18.0408163 21.2244898,18.0408163 L23.3948265,18.0408163 C23.6485918,19.5440408 24.9561531,20.6938776 26.5306122,20.6938776 C28.2861429,20.6938776 29.7142857,19.2657347 29.7142857,17.5102041 C29.7142857,15.7546735 28.2861429,14.3265306 26.5306122,14.3265306 Z M26.5306122,19.6326531 C25.3603469,19.6326531 24.4081633,18.6804694 24.4081633,17.5102041 C24.4081633,16.3399388 25.3603469,15.3877551 26.5306122,15.3877551 C27.7008776,15.3877551 28.6530612,16.3399388 28.6530612,17.5102041 C28.6530612,18.6804694 27.7008776,19.6326531 26.5306122,19.6326531 Z" id="Shape"></path>
                <path d="M12.2040816,6.36734694 L10.0816327,6.36734694 C10.0816327,4.61181633 8.6534898,3.18367347 6.89795918,3.18367347 C5.14242857,3.18367347 3.71428571,4.61181633 3.71428571,6.36734694 C3.71428571,8.12287755 5.14242857,9.55102041 6.89795918,9.55102041 C8.281,9.55102041 9.4575,8.66317347 9.89591837,7.42857143 L12.2040816,7.42857143 C13.3743469,7.42857143 14.3265306,8.38208163 14.3265306,9.55420408 L14.3265306,26 L15.3877551,26 L15.3877551,9.55420408 C15.3877551,7.79694898 13.9596122,6.36734694 12.2040816,6.36734694 Z M6.89795918,8.48979592 C5.72769388,8.48979592 4.7755102,7.53761224 4.7755102,6.36734694 C4.7755102,5.19708163 5.72769388,4.24489796 6.89795918,4.24489796 C8.06822449,4.24489796 9.02040816,5.19708163 9.02040816,6.36734694 C9.02040816,7.53761224 8.06822449,8.48979592 6.89795918,8.48979592 Z" id="Shape"></path>
                <path d="M8.48979592,14.3265306 L6.31945918,14.3265306 C6.06556122,12.8233061 4.75813265,11.6734694 3.18367347,11.6734694 C1.42814286,11.6734694 0,13.1016122 0,14.8571429 C0,16.6126735 1.42814286,18.0408163 3.18367347,18.0408163 C4.75813265,18.0408163 6.06556122,16.8909796 6.31945918,15.3877551 L8.48979592,15.3877551 C9.66006122,15.3877551 10.6122449,16.3407347 10.6122449,17.5120612 L10.6122449,26 L11.6734694,26 L11.6734694,17.5120612 C11.6734694,15.7557347 10.2453265,14.3265306 8.48979592,14.3265306 Z M3.18367347,16.9795918 C2.01340816,16.9795918 1.06122449,16.0274082 1.06122449,14.8571429 C1.06122449,13.6868776 2.01340816,12.7346939 3.18367347,12.7346939 C4.35393878,12.7346939 5.30612245,13.6868776 5.30612245,14.8571429 C5.30612245,16.0274082 4.35393878,16.9795918 3.18367347,16.9795918 Z" id="Shape"></path>
                <path d="M21.683602,10.6122449 L23.3948265,10.6122449 C23.6485918,12.1154694 24.9561531,13.2653061 26.5306122,13.2653061 C28.2861429,13.2653061 29.7142857,11.8371633 29.7142857,10.0816327 C29.7142857,8.32610204 28.2861429,6.89795918 26.5306122,6.89795918 C24.9561531,6.89795918 23.6487245,8.04779592 23.3948265,9.55102041 L21.683602,9.55102041 C20.8482857,9.55102041 20.1687041,8.87117347 20.1687041,8.03532653 L20.1687041,0 L19.1074796,0 L19.1074796,8.03532653 C19.1074796,9.45617347 20.2630204,10.6122449 21.683602,10.6122449 Z M26.5306122,7.95918367 C27.7008776,7.95918367 28.6530612,8.91136735 28.6530612,10.0816327 C28.6530612,11.251898 27.7008776,12.2040816 26.5306122,12.2040816 C25.3603469,12.2040816 24.4081633,11.251898 24.4081633,10.0816327 C24.4081633,8.91136735 25.3603469,7.95918367 26.5306122,7.95918367 Z" id="Shape"></path>
            </g>
        </g>
    </g>
</svg>