<?xml version="1.0" encoding="utf-8"?>
<!-- Generator: Adobe Illustrator 21.1.0, SVG Export Plug-In . SVG Version: 6.00 Build 0)  -->
<svg version="1.1" id="Layer_1" xmlns="http://www.w3.org/2000/svg" xmlns:xlink="http://www.w3.org/1999/xlink" x="0px" y="0px"
	 viewBox="0 0 32 32" style="enable-background:new 0 0 32 32;" xml:space="preserve">
<style type="text/css">
	.st0{fill:#231F20;}
</style>
<title>nav-overview</title>
<desc>Created with Sketch.</desc>
<g>
	<g>
		<g id="XMLID_43_">
			<path class="st0" d="M24.6,31H7.6c-1.7,0-3-1.3-3-3V17.6H2.1c-0.7,0-1.3-0.4-1.5-1c-0.3-0.6-0.1-1.3,0.3-1.8l3.9-3.9l9.1-9.1
				c1.2-1.2,3.1-1.1,4.2,0l13.1,13.1c0.5,0.5,0.6,1.2,0.3,1.8c-0.2,0.5-0.8,0.9-1.5,0.9h-2.5v10.4C27.6,29.7,26.2,31,24.6,31z
				 M2.9,15.6h2.7c0.5,0,1,0.5,1,1v11.4c0,0.5,0.5,1,1,1h16.9c0.5,0,1-0.5,1-1V16.6c0-0.5,0.5-1,1-1h2.7L16.8,3.2
				c-0.4-0.4-1-0.4-1.4,0L2.9,15.6z"/>
		</g>
		<path class="st0" d="M19.8,31h-7.3c-0.5,0-1-0.5-1-1v-10c0-0.5,0.5-1,1-1h7.3c0.5,0,1,0.5,1,1v10C20.8,30.6,20.3,31,19.8,31z
			 M13.5,29.1h5.3v-8h-5.3V29.1z"/>
	</g>
</g>
</svg>
