<?xml version="1.0" encoding="utf-8"?>
<!-- Generator: Adobe Illustrator 21.1.0, SVG Export Plug-In . SVG Version: 6.00 Build 0)  -->
<svg version="1.1" id="Layer_1" xmlns="http://www.w3.org/2000/svg" xmlns:xlink="http://www.w3.org/1999/xlink" x="0px" y="0px"
	 viewBox="0 0 32 32" style="enable-background:new 0 0 32 32;" xml:space="preserve">
<style type="text/css">
	.st0{fill:#020202;}
</style>
<title>nav-statistic</title>
<desc>Created with Sketch.</desc>
<g id="Page-1">
	<g id="statistic">
		<g id="Group" transform="translate(3.000000, 5.000000)">
			<path class="st0" d="M24,2.3h-1c-1.5,0-2.7,1.2-2.7,2.7v3.6c-0.4-0.2-0.8-0.3-1.3-0.3h-1c-0.5,0-0.9,0.1-1.3,0.3V2
				c0-1.5-1.2-2.7-2.7-2.7h-1c-1.5,0-2.7,1.2-2.7,2.7v11.6c-0.4-0.2-0.8-0.3-1.3-0.3H8c-0.5,0-0.9,0.1-1.3,0.3V10
				c0-1.5-1.2-2.7-2.7-2.7H3c-1.5,0-2.7,1.2-2.7,2.7v10c0,1.5,1.2,2.7,2.7,2.7h1c0.8,0,1.5-0.4,2-0.9c0.5,0.5,1.2,0.9,2,0.9h1
				c0.8,0,1.5-0.4,2-0.9c0.5,0.5,1.2,0.9,2,0.9h1c0.8,0,1.5-0.4,2-0.9c0.5,0.5,1.2,0.9,2,0.9h1c0.8,0,1.5-0.4,2-0.9
				c0.5,0.5,1.2,0.9,2,0.9h1c1.5,0,2.7-1.2,2.7-2.7V5C26.7,3.5,25.5,2.3,24,2.3z M4,21.3H3c-0.7,0-1.3-0.6-1.3-1.3V10
				c0-0.7,0.6-1.3,1.3-1.3h1c0.7,0,1.3,0.6,1.3,1.3v6v4C5.3,20.7,4.7,21.3,4,21.3z M9,21.3H8c-0.7,0-1.3-0.6-1.3-1.3v-4
				c0-0.7,0.6-1.3,1.3-1.3h1c0.7,0,1.3,0.6,1.3,1.3v4C10.3,20.7,9.7,21.3,9,21.3z M14,21.3h-1c-0.7,0-1.3-0.6-1.3-1.3v-4V2
				c0-0.7,0.6-1.3,1.3-1.3h1c0.7,0,1.3,0.6,1.3,1.3v9v9C15.3,20.7,14.7,21.3,14,21.3z M19,21.3h-1c-0.7,0-1.3-0.6-1.3-1.3v-9
				c0-0.7,0.6-1.3,1.3-1.3h1c0.7,0,1.3,0.6,1.3,1.3v9C20.3,20.7,19.7,21.3,19,21.3z M25.3,20c0,0.7-0.6,1.3-1.3,1.3h-1
				c-0.7,0-1.3-0.6-1.3-1.3v-9V5c0-0.7,0.6-1.3,1.3-1.3h1c0.7,0,1.3,0.6,1.3,1.3V20z"/>
			<path id="Rectangle" class="st0" d="M0.8,25h25.5c0.4,0,0.8,0.3,0.8,0.8l0,0c0,0.4-0.3,0.8-0.8,0.8H0.8c-0.4,0-0.8-0.3-0.8-0.8
				l0,0C0,25.3,0.3,25,0.8,25z"/>
		</g>
	</g>
</g>
</svg>
