<?xml version="1.0" encoding="utf-8"?>
<!-- Generator: Adobe Illustrator 21.1.0, SVG Export Plug-In . SVG Version: 6.00 Build 0)  -->
<svg version="1.1" id="Layer_1" xmlns="http://www.w3.org/2000/svg" xmlns:xlink="http://www.w3.org/1999/xlink" x="0px" y="0px"
	 viewBox="0 0 32 32" style="enable-background:new 0 0 32 32;" xml:space="preserve">
<title>nav-monitoring</title>
<desc>Created with Sketch.</desc>
<g id="Page-1">
	<g id="monitoring">
		<g id="monitor" transform="translate(1.000000, 3.000000)">
			<g>
				<path id="Shape_1_" d="M27.7,21H2.3C1,21,0,20,0,18.8V2.2C0,1,1,0,2.3,0h25.5C29,0,30,1,30,2.2v16.6C30,20,29,21,27.7,21z
					 M2.3,0.9c-0.8,0-1.4,0.6-1.4,1.3v16.6c0,0.7,0.6,1.3,1.4,1.3h25.5c0.8,0,1.4-0.6,1.4-1.3V2.2c0-0.7-0.6-1.3-1.4-1.3H2.3z"/>
				<path d="M27.7,21.2H2.3c-1.4,0-2.5-1.1-2.5-2.4V2.2c0-1.3,1.1-2.4,2.5-2.4h25.5c1.4,0,2.5,1.1,2.5,2.4v16.6
					C30.2,20.1,29.1,21.2,27.7,21.2z M2.3,0.2c-1.1,0-2.1,0.9-2.1,2v16.6c0,1.1,0.9,2,2.1,2h25.5c1.1,0,2.1-0.9,2.1-2V2.2
					c0-1.1-0.9-2-2.1-2H2.3z M27.7,20.3H2.3c-0.9,0-1.6-0.7-1.6-1.5V2.2c0-0.8,0.7-1.5,1.6-1.5h25.5c0.9,0,1.6,0.7,1.6,1.5v16.6
					C29.3,19.6,28.6,20.3,27.7,20.3z M2.3,1.1c-0.6,0-1.2,0.5-1.2,1.1v16.6c0,0.6,0.5,1.1,1.2,1.1h25.5c0.6,0,1.2-0.5,1.2-1.1V2.2
					c0-0.6-0.5-1.1-1.2-1.1H2.3z"/>
			</g>
			<g>
				<path id="Shape_2_" d="M21.5,26H9.5C9.2,26,9,25.8,9,25.5S9.2,25,9.5,25h12.1c0.3,0,0.5,0.2,0.5,0.5S21.8,26,21.5,26z"/>
				<path d="M21.5,26.2H9.5c-0.4,0-0.7-0.3-0.7-0.7s0.3-0.7,0.7-0.7h12.1c0.4,0,0.7,0.3,0.7,0.7S21.9,26.2,21.5,26.2z M9.5,25.2
					c-0.2,0-0.3,0.1-0.3,0.3s0.1,0.3,0.3,0.3h12.1c0.2,0,0.3-0.1,0.3-0.3s-0.1-0.3-0.3-0.3H9.5z"/>
			</g>
			<g>
				<path id="Shape_3_" d="M15.5,26c-0.3,0-0.5-0.2-0.5-0.4v-4.1c0-0.2,0.2-0.4,0.5-0.4s0.5,0.2,0.5,0.4v4.1
					C16,25.8,15.8,26,15.5,26z"/>
				<path d="M15.5,26.2c-0.4,0-0.7-0.3-0.7-0.6v-4.1c0-0.3,0.3-0.6,0.7-0.6s0.7,0.3,0.7,0.6v4.1C16.2,25.9,15.9,26.2,15.5,26.2z
					 M15.5,21.2c-0.2,0-0.3,0.1-0.3,0.2v4.1c0,0.1,0.1,0.2,0.3,0.2s0.3-0.1,0.3-0.2v-4.1C15.8,21.3,15.7,21.2,15.5,21.2z"/>
			</g>
		</g>
		<path d="M26.4,21H5.6C4.7,21,4,20.3,4,19.4V7.6C4,6.7,4.7,6,5.6,6h20.8C27.3,6,28,6.7,28,7.6v11.8C28,20.3,27.3,21,26.4,21z
			 M5.6,7.2c-0.2,0-0.4,0.2-0.4,0.4v11.8c0,0.2,0.2,0.4,0.4,0.4h20.8c0.2,0,0.4-0.2,0.4-0.4V7.6c0-0.2-0.2-0.4-0.4-0.4H5.6z"/>
	</g>
</g>
</svg>
