<?xml version="1.0" encoding="utf-8"?>
<!-- Generator: Adobe Illustrator 21.1.0, SVG Export Plug-In . SVG Version: 6.00 Build 0)  -->
<svg version="1.1" id="Layer_1" xmlns="http://www.w3.org/2000/svg" xmlns:xlink="http://www.w3.org/1999/xlink" x="0px" y="0px"
	 viewBox="0 0 32 32" style="enable-background:new 0 0 32 32;" xml:space="preserve">
<title>nav-db</title>
<desc>Created with Sketch.</desc>
<g id="Page-1">
	<g id="db">
		<g id="_x30_06-technology" transform="translate(0.000000, 2.000000)">
			<g>
				<path id="Shape_1_" d="M23.2,4.4h-8.9c-0.4,0-0.8,0.4-0.8,0.8S13.9,6,14.3,6h8.9C23.7,6,24,5.6,24,5.2S23.7,4.4,23.2,4.4z"/>
				<path d="M23.2,6.2h-8.9c-0.5,0-1-0.4-1-1s0.4-1,1-1h8.9c0.5,0,1,0.4,1,1S23.8,6.2,23.2,6.2z M14.3,4.6c-0.3,0-0.6,0.3-0.6,0.6
					s0.3,0.6,0.6,0.6h8.9c0.3,0,0.6-0.3,0.6-0.6s-0.3-0.6-0.6-0.6H14.3z"/>
			</g>
			<g>
				<ellipse id="Oval_1_" cx="7.1" cy="5.2" rx="1" ry="1"/>
				<path d="M7.1,6.4c-0.7,0-1.2-0.5-1.2-1.2S6.4,4,7.1,4c0.7,0,1.2,0.5,1.2,1.2S7.7,6.4,7.1,6.4z M7.1,4.4c-0.4,0-0.8,0.4-0.8,0.8
					S6.6,6,7.1,6c0.4,0,0.8-0.4,0.8-0.8S7.5,4.4,7.1,4.4z"/>
			</g>
			<g>
				<path id="Shape_2_" d="M23.2,13.2h-8.9c-0.4,0-0.8,0.4-0.8,0.8c0,0.4,0.4,0.8,0.8,0.8h8.9c0.4,0,0.8-0.4,0.8-0.8
					C24,13.5,23.7,13.2,23.2,13.2z"/>
				<path d="M23.2,14.9h-8.9c-0.5,0-1-0.4-1-1s0.4-1,1-1h8.9c0.5,0,1,0.4,1,1S23.8,14.9,23.2,14.9z M14.3,13.4
					c-0.3,0-0.6,0.3-0.6,0.6s0.3,0.6,0.6,0.6h8.9c0.3,0,0.6-0.3,0.6-0.6s-0.3-0.6-0.6-0.6H14.3z"/>
			</g>
			<g>
				<ellipse id="Oval_2_" cx="7.1" cy="14" rx="1" ry="1"/>
				<path d="M7.1,15.2c-0.7,0-1.2-0.5-1.2-1.2s0.5-1.2,1.2-1.2c0.7,0,1.2,0.5,1.2,1.2S7.7,15.2,7.1,15.2z M7.1,13.1
					c-0.4,0-0.8,0.4-0.8,0.8s0.4,0.8,0.8,0.8c0.4,0,0.8-0.4,0.8-0.8S7.5,13.1,7.1,13.1z"/>
			</g>
			<g>
				<path id="Shape_3_" d="M30.6,23v-1.2c0-1.5-0.8-2.8-1.9-3.6c1.2-0.8,1.9-2.1,1.9-3.6v-1.2c0-1.5-0.8-2.8-1.9-3.6
					c1.2-0.8,1.9-2.1,1.9-3.6V4.9c0-2.4-2-4.3-4.4-4.3H5c-2.4,0-4.4,1.9-4.4,4.3v1.2c0,1.5,0.8,2.8,1.9,3.6
					c-1.2,0.8-1.9,2.1-1.9,3.6v1.2c0,1.5,0.8,2.8,1.9,3.6c-1.2,0.8-1.9,2.1-1.9,3.6V23c0,2.4,2,4.3,4.4,4.3h21.3
					C28.7,27.3,30.6,25.4,30.6,23z M2.1,6.2V4.9c0-1.6,1.3-2.8,2.9-2.8h21.3c1.6,0,2.9,1.3,2.9,2.8v1.2c0,1.6-1.3,2.8-2.9,2.8H5
					C3.4,9,2.1,7.7,2.1,6.2z M2.1,14.6v-1.2c0-1.6,1.3-2.8,2.9-2.8h21.3c1.6,0,2.9,1.3,2.9,2.8v1.2c0,1.6-1.3,2.8-2.9,2.8H5
					C3.4,17.4,2.1,16.1,2.1,14.6z M2.1,23v-1.2c0-1.6,1.3-2.8,2.9-2.8h21.3c1.6,0,2.9,1.3,2.9,2.8V23c0,1.6-1.3,2.8-2.9,2.8H5
					C3.4,25.8,2.1,24.6,2.1,23z"/>
				<path d="M26.3,27.5H5c-2.5,0-4.6-2-4.6-4.5v-1.2c0-1.4,0.7-2.7,1.8-3.6c-1.1-0.9-1.8-2.2-1.8-3.6v-1.2c0-1.4,0.7-2.7,1.8-3.6
					C1.1,8.9,0.4,7.6,0.4,6.2V4.9c0-2.5,2-4.5,4.6-4.5h21.3c2.5,0,4.6,2,4.6,4.5v1.2c0,1.4-0.7,2.7-1.8,3.6c1.1,0.9,1.8,2.2,1.8,3.6
					v1.2c0,1.4-0.7,2.7-1.8,3.6c1.1,0.9,1.8,2.2,1.8,3.6V23C30.8,25.5,28.8,27.5,26.3,27.5z M5,0.8c-2.3,0-4.2,1.9-4.2,4.1v1.2
					c0,1.4,0.7,2.7,1.8,3.4l0.2,0.2L2.7,9.9c-1.1,0.8-1.8,2.1-1.8,3.4v1.2c0,1.4,0.7,2.7,1.8,3.4l0.2,0.2l-0.2,0.2
					c-1.1,0.8-1.8,2.1-1.8,3.4V23c0,2.3,1.9,4.1,4.2,4.1h21.3c2.3,0,4.1-1.9,4.1-4.1v-1.2c0-1.4-0.7-2.7-1.8-3.4l-0.2-0.2l0.2-0.2
					c1.1-0.8,1.8-2.1,1.8-3.4v-1.2c0-1.4-0.7-2.7-1.8-3.4l-0.2-0.2l0.2-0.2c1.1-0.8,1.8-2.1,1.8-3.4V4.9c0-2.3-1.9-4.1-4.2-4.1H5z
					 M26.3,26H5c-1.7,0-3.1-1.4-3.1-3v-1.2c0-1.7,1.4-3,3.1-3h21.3c1.7,0,3.1,1.4,3.1,3V23C29.3,24.7,28,26,26.3,26z M5,19.1
					c-1.5,0-2.7,1.2-2.7,2.6V23c0,1.5,1.2,2.6,2.7,2.6h21.3c1.5,0,2.7-1.2,2.7-2.6v-1.2c0-1.5-1.2-2.6-2.7-2.6H5z M26.3,17.6H5
					c-1.7,0-3.1-1.4-3.1-3v-1.2c0-1.7,1.4-3,3.1-3h21.3c1.7,0,3.1,1.4,3.1,3v1.2C29.3,16.3,28,17.6,26.3,17.6z M5,10.7
					c-1.5,0-2.7,1.2-2.7,2.6v1.2c0,1.5,1.2,2.6,2.7,2.6h21.3c1.5,0,2.7-1.2,2.7-2.6v-1.2c0-1.5-1.2-2.6-2.7-2.6H5z M26.3,9.2H5
					c-1.7,0-3.1-1.4-3.1-3V4.9c0-1.7,1.4-3,3.1-3h21.3c1.7,0,3.1,1.4,3.1,3v1.2C29.3,7.8,28,9.2,26.3,9.2z M5,2.3
					c-1.5,0-2.7,1.2-2.7,2.6v1.2c0,1.5,1.2,2.6,2.7,2.6h21.3c1.5,0,2.7-1.2,2.7-2.6V4.9c0-1.5-1.2-2.6-2.7-2.6H5z"/>
			</g>
			<g>
				<path id="Shape_4_" d="M23.2,22h-8.9c-0.4,0-0.8,0.4-0.8,0.8c0,0.4,0.4,0.8,0.8,0.8h8.9c0.4,0,0.8-0.4,0.8-0.8
					C24,22.3,23.7,22,23.2,22z"/>
				<path d="M23.2,23.7h-8.9c-0.5,0-1-0.4-1-1c0-0.5,0.4-1,1-1h8.9c0.5,0,1,0.4,1,1C24.2,23.3,23.8,23.7,23.2,23.7z M14.3,22.2
					c-0.3,0-0.6,0.3-0.6,0.6c0,0.3,0.3,0.6,0.6,0.6h8.9c0.3,0,0.6-0.3,0.6-0.6c0-0.3-0.3-0.6-0.6-0.6H14.3z"/>
			</g>
			<g>
				<ellipse id="Oval_3_" cx="7.1" cy="22.7" rx="1" ry="1"/>
				<path d="M7.1,23.9c-0.7,0-1.2-0.5-1.2-1.2s0.5-1.2,1.2-1.2c0.7,0,1.2,0.5,1.2,1.2S7.7,23.9,7.1,23.9z M7.1,21.9
					c-0.4,0-0.8,0.4-0.8,0.8c0,0.4,0.4,0.8,0.8,0.8c0.4,0,0.8-0.4,0.8-0.8C7.9,22.3,7.5,21.9,7.1,21.9z"/>
			</g>
		</g>
	</g>
</g>
</svg>
