<?xml version="1.0" encoding="UTF-8"?>
<svg width="32px" height="32px" viewBox="0 0 32 32" version="1.1" xmlns="http://www.w3.org/2000/svg" xmlns:xlink="http://www.w3.org/1999/xlink">
    <!-- Generator: Sketch 47.1 (45422) - http://www.bohemiancoding.com/sketch -->
    <title>nav-documents</title>
    <desc>Created with Sketch.</desc>
    <defs></defs>
    <g id="Page-1" stroke="none" stroke-width="1" fill="none" fill-rule="evenodd">
        <g id="documents">
            <g id="Group-Copy" transform="translate(1.000000, 4.000000)">
                <rect id="Rectangle-3" stroke="#000000" stroke-width="1.5" x="0" y="0" width="7" height="26" rx="1"></rect>
                <rect id="Rectangle-2" fill="#000000" x="2" y="2" width="3" height="1" rx="0.5"></rect>
                <rect id="Rectangle" fill="#000000" x="0" y="22" width="7" height="1"></rect>
                <rect id="Rectangle-Copy" fill="#000000" x="0" y="18" width="7" height="1"></rect>
            </g>
            <g id="Group-Copy-2" transform="translate(11.000000, 4.000000)">
                <rect id="Rectangle-3" stroke="#000000" stroke-width="1.5" x="0" y="0" width="7" height="26" rx="1"></rect>
                <rect id="Rectangle-2" fill="#000000" x="2" y="2" width="3" height="1" rx="0.5"></rect>
                <rect id="Rectangle" fill="#000000" x="0" y="22" width="7" height="1"></rect>
                <rect id="Rectangle-Copy" fill="#000000" x="0" y="18" width="7" height="1"></rect>
            </g>
            <g id="Group-Copy-3" transform="translate(25.500000, 17.000000) rotate(-7.000000) translate(-25.500000, -17.000000) translate(22.000000, 4.000000)">
                <rect id="Rectangle-3" stroke="#000000" stroke-width="1.5" x="0" y="0" width="7" height="26" rx="1"></rect>
                <rect id="Rectangle-2" fill="#000000" x="2" y="2" width="3" height="1" rx="0.5"></rect>
                <rect id="Rectangle" fill="#000000" x="0" y="22" width="7" height="1"></rect>
                <rect id="Rectangle-Copy" fill="#000000" x="0" y="18" width="7" height="1"></rect>
            </g>
        </g>
    </g>
</svg>