<?xml version="1.0" encoding="utf-8"?>
<!-- Generator: Adobe Illustrator 21.1.0, SVG Export Plug-In . SVG Version: 6.00 Build 0)  -->
<svg version="1.1" id="Layer_1" xmlns="http://www.w3.org/2000/svg" xmlns:xlink="http://www.w3.org/1999/xlink" x="0px" y="0px"
	 viewBox="0 0 32 32" style="enable-background:new 0 0 32 32;" xml:space="preserve">
<title>nav-api</title>
<desc>Created with Sketch.</desc>
<g id="Page-1">
	<g id="api">
		<g id="circuit" transform="translate(0.571429, 3.000000)">
			<g>
				<path id="Shape_1_" d="M26.5,14.3c-1.6,0-2.9,1.1-3.1,2.7h-2.2c-1.8,0-3.2,1.4-3.2,3.2V26h1.1v-5.8c0-1.2,1-2.1,2.1-2.1h2.2
					c0.3,1.5,1.6,2.7,3.1,2.7c1.8,0,3.2-1.4,3.2-3.2S28.3,14.3,26.5,14.3z M26.5,19.6c-1.2,0-2.1-1-2.1-2.1s1-2.1,2.1-2.1
					s2.1,1,2.1,2.1S27.7,19.6,26.5,19.6z"/>
				<path d="M19.6,26.5h-2.1v-6.3c0-2,1.7-3.7,3.7-3.7H23c0.5-1.6,1.9-2.7,3.5-2.7c2,0,3.7,1.7,3.7,3.7s-1.7,3.7-3.7,3.7
					c-1.7,0-3.1-1.1-3.5-2.7h-1.8c-0.9,0-1.6,0.7-1.6,1.6V26.5z M18.5,25.5L18.5,25.5l0.1-5.3c0-1.4,1.2-2.6,2.6-2.6h2.6l0.1,0.4
					c0.2,1.3,1.3,2.2,2.6,2.2c1.5,0,2.7-1.2,2.7-2.7s-1.2-2.7-2.7-2.7c-1.3,0-2.4,0.9-2.6,2.2l-0.1,0.4h-2.6c-1.5,0-2.7,1.2-2.7,2.7
					V25.5z M26.5,20.1c-1.4,0-2.6-1.2-2.6-2.6s1.2-2.6,2.6-2.6s2.6,1.2,2.6,2.6S28,20.1,26.5,20.1z M26.5,15.9
					c-0.9,0-1.6,0.7-1.6,1.6s0.7,1.6,1.6,1.6s1.6-0.7,1.6-1.6S27.4,15.9,26.5,15.9z"/>
			</g>
			<g>
				<path id="Shape_2_" d="M12.2,6.4h-2.1c0-1.8-1.4-3.2-3.2-3.2S3.7,4.6,3.7,6.4s1.4,3.2,3.2,3.2c1.4,0,2.6-0.9,3-2.1h2.3
					c1.2,0,2.1,1,2.1,2.1V26h1.1V9.6C15.4,7.8,14,6.4,12.2,6.4z M6.9,8.5c-1.2,0-2.1-1-2.1-2.1s1-2.1,2.1-2.1S9,5.2,9,6.4
					S8.1,8.5,6.9,8.5z"/>
				<path d="M15.9,26.5h-2.1V9.6c0-0.9-0.7-1.6-1.6-1.6h-2c-0.6,1.3-1.9,2.1-3.3,2.1c-2,0-3.7-1.7-3.7-3.7s1.7-3.7,3.7-3.7
					c1.9,0,3.4,1.4,3.6,3.2h1.7c2,0,3.7,1.7,3.7,3.7V26.5z M14.8,25.5L14.8,25.5l0.1-15.9c0-1.5-1.2-2.7-2.7-2.7H9.6V6.4
					c0-1.5-1.2-2.7-2.7-2.7S4.2,4.9,4.2,6.4s1.2,2.7,2.7,2.7C8,9.1,9,8.3,9.4,7.3l0.1-0.3h2.7c1.4,0,2.6,1.2,2.6,2.6V25.5z M6.9,9
					C5.5,9,4.3,7.8,4.3,6.4s1.2-2.6,2.6-2.6c1.4,0,2.6,1.2,2.6,2.6S8.3,9,6.9,9z M6.9,4.7C6,4.7,5.3,5.5,5.3,6.4S6,8,6.9,8
					s1.6-0.7,1.6-1.6S7.8,4.7,6.9,4.7z"/>
			</g>
			<g>
				<path id="Shape_3_" d="M8.5,14.3H6.3c-0.3-1.5-1.6-2.7-3.1-2.7c-1.8,0-3.2,1.4-3.2,3.2S1.4,18,3.2,18c1.6,0,2.9-1.1,3.1-2.7h2.2
					c1.2,0,2.1,1,2.1,2.1V26h1.1v-8.5C11.7,15.8,10.2,14.3,8.5,14.3z M3.2,17c-1.2,0-2.1-1-2.1-2.1s1-2.1,2.1-2.1s2.1,1,2.1,2.1
					S4.4,17,3.2,17z"/>
				<path d="M12.2,26.5h-2.1v-9c0-0.9-0.7-1.6-1.6-1.6H6.7c-0.5,1.6-1.9,2.7-3.5,2.7c-2,0-3.7-1.7-3.7-3.7c0-2,1.7-3.7,3.7-3.7
					c1.7,0,3.1,1.1,3.5,2.7h1.8c2,0,3.7,1.7,3.7,3.7V26.5z M11.1,25.5L11.1,25.5l0.1-8c0-1.5-1.2-2.7-2.7-2.7H5.9l-0.1-0.4
					c-0.2-1.3-1.3-2.2-2.6-2.2c-1.5,0-2.7,1.2-2.7,2.7c0,1.5,1.2,2.7,2.7,2.7c1.3,0,2.4-0.9,2.6-2.2l0.1-0.4h2.6
					c1.4,0,2.6,1.2,2.6,2.6V25.5z M3.2,17.5c-1.4,0-2.6-1.2-2.6-2.6c0-1.4,1.2-2.6,2.6-2.6c1.4,0,2.6,1.2,2.6,2.6
					C5.8,16.3,4.6,17.5,3.2,17.5z M3.2,13.2c-0.9,0-1.6,0.7-1.6,1.6s0.7,1.6,1.6,1.6s1.6-0.7,1.6-1.6S4.1,13.2,3.2,13.2z"/>
			</g>
			<g>
				<path id="Shape_4_" d="M21.7,10.6h1.7c0.3,1.5,1.6,2.7,3.1,2.7c1.8,0,3.2-1.4,3.2-3.2s-1.4-3.2-3.2-3.2c-1.6,0-2.9,1.1-3.1,2.7
					h-1.7c-0.8,0-1.5-0.7-1.5-1.5V0h-1.1v8C19.1,9.5,20.3,10.6,21.7,10.6z M26.5,8c1.2,0,2.1,1,2.1,2.1s-1,2.1-2.1,2.1
					s-2.1-1-2.1-2.1S25.4,8,26.5,8z"/>
				<path d="M26.5,13.8c-1.7,0-3.1-1.1-3.5-2.7h-1.3c-1.7,0-3.1-1.4-3.1-3.1v-8.5h2.1V8c0,0.6,0.5,1,1,1H23c0.5-1.6,1.9-2.7,3.5-2.7
					c2,0,3.7,1.7,3.7,3.7S28.6,13.8,26.5,13.8z M19.6,0.5V8c0,1.1,0.9,2.1,2.1,2.1h2.1l0.1,0.4c0.2,1.3,1.3,2.2,2.6,2.2
					c1.5,0,2.7-1.2,2.7-2.7S28,7.4,26.5,7.4c-1.3,0-2.4,0.9-2.6,2.2l-0.1,0.4h-2.1c-1.1,0-2-0.9-2-2L19.6,0.5L19.6,0.5z M26.5,12.7
					c-1.4,0-2.6-1.2-2.6-2.6c0-1.4,1.2-2.6,2.6-2.6s2.6,1.2,2.6,2.6C29.2,11.5,28,12.7,26.5,12.7z M26.5,8.5c-0.9,0-1.6,0.7-1.6,1.6
					s0.7,1.6,1.6,1.6s1.6-0.7,1.6-1.6S27.4,8.5,26.5,8.5z"/>
			</g>
		</g>
	</g>
</g>
</svg>
