<?xml version="1.0" encoding="UTF-8"?>
<svg width="32px" height="32px" viewBox="0 0 32 32" version="1.1" xmlns="http://www.w3.org/2000/svg" xmlns:xlink="http://www.w3.org/1999/xlink">
    <!-- Generator: Sketch 47.1 (45422) - http://www.bohemiancoding.com/sketch -->
    <title>nav-api</title>
    <desc>Created with Sketch.</desc>
    <defs></defs>
    <g id="Page-1" stroke="none" stroke-width="1" fill="none" fill-rule="evenodd">
        <g id="api"></g>
        <g id="007-cpu" fill-rule="nonzero" fill="#000000">
            <path d="M31.2727056,12.3372906 C31.674705,12.3372906 32,12.0126877 32,11.6115436 C32,11.2103995 31.674705,10.8858646 31.2727056,10.8858646 L29.0908905,10.8858646 L29.0908905,7.98294471 L31.2727056,7.98294471 C31.674705,7.98294471 32,7.65834183 32,7.25719772 C32,6.85605361 31.674705,6.53151877 31.2727056,6.53151877 L29.0908905,6.53151877 L29.0908905,5.80577178 C29.0908905,4.20548165 27.7862333,2.90285187 26.181781,2.90285187 L25.4544866,2.90285187 L25.4544866,0.72567895 C25.4544866,0.324602875 25.1292598,0 24.7272603,0 C24.3252609,0 23.9999659,0.324602875 23.9999659,0.725746987 L23.9999659,2.90291991 L21.0908564,2.90291991 L21.0908564,0.725746987 C21.0908564,0.324602875 20.7655614,0 20.3636302,0 C19.9616989,0 19.6363357,0.324602875 19.6363357,0.725746987 L19.6363357,2.90291991 L16.7272262,2.90291991 L16.7272262,0.725746987 C16.7272262,0.324602875 16.4019312,0 16,0 C15.5980688,0 15.2727056,0.324602875 15.2727056,0.725746987 L15.2727056,2.90291991 L12.3635961,2.90291991 L12.3635961,0.725746987 C12.3635961,0.324602875 12.0383011,0 11.6363698,0 C11.2344386,0 10.9090754,0.324602875 10.9090754,0.725746987 L10.9090754,2.90291991 L7.99996591,2.90291991 L7.99996591,0.725746987 C7.99996591,0.324602875 7.67467092,0 7.27273967,0 C6.87080842,0 6.54544525,0.324602875 6.54544525,0.725746987 L6.54544525,2.90291991 L5.81815083,2.90291991 C4.21376674,2.90291991 2.90904132,4.20554968 2.90904132,5.80583982 L2.90904132,6.53151877 L0.72722624,6.53151877 C0.325294992,6.53151877 0,6.85612164 0,7.25726576 C0,7.65840987 0.325294992,7.98301274 0.727294421,7.98301274 L2.9091095,7.98301274 L2.9091095,10.8858646 L0.727294421,10.8858646 C0.325294992,10.8858646 0,11.2104675 0,11.6116116 C0,12.0127557 0.325294992,12.3373586 0.727294421,12.3373586 L2.9091095,12.3373586 L2.9091095,15.2402105 L0.727294421,15.2402105 C0.325294992,15.2402105 0,15.5648133 0,15.9659574 C0,16.3671016 0.325294992,16.6917044 0.727294421,16.6917044 L2.9091095,16.6917044 L2.9091095,19.5945563 L0.727294421,19.5945563 C0.325294992,19.5945563 0,19.9191592 0,20.3203033 C0,20.7214474 0.325294992,21.0460503 0.727294421,21.0460503 L2.9091095,21.0460503 L2.9091095,23.9489022 L0.727294421,23.9489022 C0.325294992,23.9489022 0,24.273505 0,24.6746491 C0,25.0757932 0.325294992,25.4003961 0.727294421,25.4003961 L2.9091095,25.4003961 L2.9091095,26.1260751 C2.9091095,27.7263652 4.21376674,29.028995 5.81821901,29.028995 L6.54544525,29.028995 L6.54544525,31.2061679 C6.54544525,31.607312 6.87074024,31.9319149 7.27273967,31.9319149 C7.6747391,31.9319149 8.00003409,31.607312 8.00003409,31.2061679 L8.00003409,29.028995 L10.9090754,29.028995 L10.9090754,31.2061679 C10.9090754,31.607312 11.2343704,31.9319149 11.6363698,31.9319149 C12.0383693,31.9319149 12.3636643,31.607312 12.3636643,31.2061679 L12.3636643,29.028995 L15.2727056,29.028995 L15.2727056,31.2061679 C15.2727056,31.607312 15.5980006,31.9319149 16,31.9319149 C16.4019994,31.9319149 16.7272944,31.607312 16.7272944,31.2061679 L16.7272944,29.028995 L19.6363357,29.028995 L19.6363357,31.2061679 C19.6363357,31.607312 19.9616307,31.9319149 20.3636302,31.9319149 C20.7656296,31.9319149 21.0909246,31.607312 21.0909246,31.2061679 L21.0909246,29.028995 L23.9999659,29.028995 L23.9999659,31.2061679 C23.9999659,31.607312 24.3252609,31.9319149 24.7272603,31.9319149 C25.1292598,31.9319149 25.4545548,31.607312 25.4545548,31.2061679 L25.4545548,29.028995 L26.181781,29.028995 C27.7861651,29.028995 29.0908905,27.7263652 29.0908905,26.1260751 L29.0908905,25.4003281 L31.2727056,25.4003281 C31.674705,25.4003281 32,25.0757252 32,24.6745811 C32,24.273437 31.674705,23.9488341 31.2727056,23.9488341 L29.0908905,23.9488341 L29.0908905,21.0459142 L31.2727056,21.0459142 C31.674705,21.0459142 32,20.7213113 32,20.3201672 C32,19.9190231 31.674705,19.5945563 31.2727056,19.5945563 L29.0908905,19.5945563 L29.0908905,16.6916364 L31.2727056,16.6916364 C31.674705,16.6916364 32,16.3670335 32,15.9658894 C32,15.5647453 31.674705,15.2402105 31.2727056,15.2402105 L29.0908905,15.2402105 L29.0908905,12.3372906 L31.2727056,12.3372906 Z M27.6363017,26.1260751 C27.6363017,26.9269345 26.983598,27.577501 26.181781,27.577501 L5.81815083,27.577501 C5.01633378,27.577501 4.36363017,26.9269345 4.36363017,26.1260751 L4.36363017,5.80577178 C4.36363017,5.00491233 5.01633378,4.35434585 5.81815083,4.35434585 L26.181781,4.35434585 C26.983598,4.35434585 27.6363017,5.00498037 27.6363017,5.80577178 L27.6363017,26.1260751 L27.6363017,26.1260751 Z" id="Shape"></path>
            <path d="M25.417459,5.78433948 L6.52339132,5.78433948 C6.12171023,5.78433948 5.79667283,6.10868531 5.79667283,6.50951176 L5.79667283,25.3633793 C5.79667283,25.7642057 6.12171023,26.0885515 6.52339132,26.0885515 L25.417459,26.0885515 C25.8191401,26.0885515 26.1441774,25.7642057 26.1441774,25.3633793 L26.1441774,6.50951176 C26.1441774,6.10868531 25.8191401,5.78433948 25.417459,5.78433948 Z M24.6908086,24.638275 L7.25010981,24.638275 L7.25010981,7.23468405 L24.6908086,7.23468405 L24.6908086,24.638275 Z" id="Shape"></path>
        </g>
    </g>
</svg>