<?xml version="1.0" encoding="UTF-8"?>
<svg width="32px" height="32px" viewBox="0 0 32 32" version="1.1" xmlns="http://www.w3.org/2000/svg" xmlns:xlink="http://www.w3.org/1999/xlink">
    <!-- Generator: Sketch 47.1 (45422) - http://www.bohemiancoding.com/sketch -->
    <title>nav-overview</title>
    <desc>Created with Sketch.</desc>
    <defs></defs>
    <g id="Page-1" stroke="none" stroke-width="1" fill="none" fill-rule="evenodd">
        <g id="overview" fill-rule="nonzero" fill="#999999">
            <g id="eye" transform="translate(0.000000, 8.000000)">
                <path d="M31.1115205,7.51407534 C29.3401849,5.24293151 27.0457397,3.36433562 24.476363,2.0815274 C21.8535411,0.772027397 19.0319178,0.0925890411 16.0863904,0.0569589041 C16.0052671,0.054739726 15.6795411,0.054739726 15.5984178,0.0569589041 C12.6529521,0.0926506849 9.83126712,0.772027397 7.20844521,2.0815274 C4.63906849,3.36433562 2.34474658,5.24286986 0.573349315,7.51407534 C-0.109047945,8.3889863 -0.109047945,9.61107534 0.573349315,10.4859863 C2.34468493,12.7571301 4.63906849,14.635726 7.20844521,15.9185342 C9.83126712,17.2280342 12.6528904,17.9074726 15.5984178,17.9431027 C15.6795411,17.9453219 16.0052671,17.9453219 16.0863904,17.9431027 C19.0318562,17.907411 21.8535411,17.2280342 24.476363,15.9185342 C27.0457397,14.635726 29.3401233,12.7571918 31.1115205,10.4859863 C31.7939178,9.61095205 31.7939178,8.3889863 31.1115205,7.51407534 Z M7.7820411,14.7698014 C5.38286301,13.5719384 3.24024658,11.8175548 1.58578767,9.69632877 C1.2660411,9.28633562 1.2660411,8.71372603 1.58578767,8.30373288 C3.24018493,6.18250685 5.38280137,4.42812329 7.7820411,3.23026027 C8.46345205,2.89010959 9.15928767,2.59594521 9.86800685,2.34690411 C8.04470548,3.98589041 6.8959726,6.36115068 6.8959726,9 C6.8959726,11.6389726 8.04476712,14.0144178 9.86825342,15.6533425 C9.15953425,15.4043014 8.4635137,15.1100137 7.7820411,14.7698014 Z M15.8424658,16.6625137 C11.617274,16.6625137 8.17989041,13.2251301 8.17989041,8.99993836 C8.17989041,4.77474658 11.617274,1.33742466 15.8424658,1.33742466 C20.0676575,1.33742466 23.5050411,4.77480822 23.5050411,9 C23.5050411,13.2251918 20.0676575,16.6625137 15.8424658,16.6625137 Z M30.0991438,9.69626712 C28.4447466,11.8174932 26.3021301,13.5718767 23.9028904,14.7697397 C23.2222808,15.1095205 22.5268767,15.4023904 21.8190205,15.6511849 C23.641089,14.0122603 24.7889589,11.6377397 24.7889589,8.99993836 C24.7889589,6.36071918 23.6399178,3.98515068 21.8163082,2.34616438 C22.5252123,2.59526712 23.2213562,2.88980137 23.9029521,3.23013699 C26.3021301,4.428 28.4447466,6.18238356 30.0992055,8.30360959 C30.4188904,8.71366438 30.4188904,9.28627397 30.0991438,9.69626712 Z" id="Shape"></path>
                <path d="M15.8424658,5.72079452 C14.0343288,5.72079452 12.5633219,7.19180137 12.5633219,8.99993836 C12.5633219,10.8080753 14.0343288,12.2790822 15.8424658,12.2790822 C17.6506027,12.2790822 19.1216096,10.8080753 19.1216096,8.99993836 C19.1216712,7.19180137 17.6506644,5.72079452 15.8424658,5.72079452 Z M15.8424658,10.995226 C14.7423082,10.995226 13.8471781,10.1002192 13.8471781,8.99993836 C13.8471781,7.89971918 14.7421849,7.00471233 15.8424658,7.00471233 C16.9426233,7.00471233 17.8376918,7.89971918 17.8376918,8.99993836 C17.8377534,10.1002192 16.9426233,10.995226 15.8424658,10.995226 Z" id="Shape"></path>
            </g>
        </g>
    </g>
</svg>