<?xml version="1.0" encoding="UTF-8"?>
<svg width="32px" height="32px" viewBox="0 0 32 32" version="1.1" xmlns="http://www.w3.org/2000/svg" xmlns:xlink="http://www.w3.org/1999/xlink">
    <!-- Generator: Sketch 47.1 (45422) - http://www.bohemiancoding.com/sketch -->
    <title>nav-monitoring</title>
    <desc>Created with Sketch.</desc>
    <defs></defs>
    <g id="Page-1" stroke="none" stroke-width="1" fill="none" fill-rule="evenodd">
        <g id="monitoring" fill-rule="nonzero" fill="#000000">
            <g id="monitor" transform="translate(1.000000, 3.000000)">
                <path d="M27.7272727,21 L2.27272727,21 C1.02,21 0,20.0190841 0,18.8124089 L0,2.18759115 C0,0.980915871 1.02,0 2.27272727,0 L27.7272727,0 C28.98,0 30,0.980915871 30,2.18759115 L30,18.8124089 C30,20.0190841 28.98,21 27.7272727,21 Z M2.27272727,0.87503646 C1.52090909,0.87503646 0.909090909,1.463936 0.909090909,2.18759115 L0.909090909,18.8124089 C0.909090909,19.536064 1.52090909,20.1249635 2.27272727,20.1249635 L27.7272727,20.1249635 C28.4790909,20.1249635 29.0909091,19.536064 29.0909091,18.8124089 L29.0909091,2.18759115 C29.0909091,1.463936 28.4790909,0.87503646 27.7272727,0.87503646 L2.27272727,0.87503646 Z" id="Shape" stroke="#000000" stroke-width="0.2"></path>
                <path d="M21.5272727,26 L9.47272727,26 C9.21178182,26 9,25.776 9,25.5 C9,25.224 9.21178182,25 9.47272727,25 L21.5272727,25 C21.7882182,25 22,25.224 22,25.5 C22,25.776 21.7882182,26 21.5272727,26 Z" id="Shape" stroke="#000000" stroke-width="0.2"></path>
                <g id="Group" transform="translate(10.000000, 4.000000)">
                    <path d="M5,10 C2.24194429,10 0,7.756384 0,4.99931722 C0,2.24225044 2.24330967,0 5,0 C7.75669033,0 10,2.243616 10,4.99931722 C9.99863463,7.756384 7.75669033,10 5,10 Z M5,1.364195 C2.9956308,1.364195 1.36537411,2.99330875 1.36537411,4.99795166 C1.36537411,7.00259457 2.9956308,8.63307388 5,8.63307388 C7.0043692,8.63307388 8.63462589,7.00259457 8.63462589,4.99795166 C8.63462589,2.99330875 7.00300382,1.364195 5,1.364195 Z" id="Shape" stroke="#000000" stroke-width="0.1"></path>
                    <path d="M12.2175991,12 C12.0170036,12 11.8164081,11.9232035 11.6628271,11.7711778 L8.22919605,8.33727764 C7.92360132,8.03165896 7.92360132,7.53483269 8.22919605,7.22921401 C8.53479079,6.92359533 9.03157812,6.92359533 9.33717286,7.22921401 L12.7708039,10.6631142 C13.0763987,10.9687329 13.0763987,11.4655591 12.7708039,11.7711778 C12.6187902,11.9232035 12.4181946,12 12.2175991,12 Z" id="Shape"></path>
                </g>
                <path d="M15.5,26 C15.224,26 15,25.8062619 15,25.5675489 L15,21.4324511 C15,21.1937381 15.224,21 15.5,21 C15.776,21 16,21.1937381 16,21.4324511 L16,25.5675489 C16,25.8071268 15.776,26 15.5,26 Z" id="Shape" stroke="#000000" stroke-width="0.2"></path>
            </g>
        </g>
    </g>
</svg>