<?xml version="1.0" encoding="UTF-8"?>
<svg width="24px" height="24px" viewBox="0 0 24 24" version="1.1" xmlns="http://www.w3.org/2000/svg" xmlns:xlink="http://www.w3.org/1999/xlink">
    <!-- Generator: Sketch 47.1 (45422) - http://www.bohemiancoding.com/sketch -->
    <title>nav-run</title>
    <desc>Created with Sketch.</desc>
    <defs></defs>
    <g id="Page-1" stroke="none" stroke-width="1" fill="none" fill-rule="evenodd">
        <g id="run" stroke="#0080FF" fill="#0080FF">
            <path d="M6.72058926,21.643308 C5.77170729,21.643308 5.00038755,20.8719882 5.00038755,19.9243085 L5.00038755,4.36230752 C5.00038755,3.41408675 5.7717674,2.64330799 6.72058926,2.64330799 C7.12416164,2.64330799 7.51805645,2.78612717 7.82803899,3.04627927 L18.2386315,10.7172801 C18.701772,11.0078474 18.9996125,11.5500313 18.9996125,12.143308 C18.9996125,12.732918 18.7029741,13.2745008 18.2051507,13.5936199 L7.79828499,21.2634186 C7.51805645,21.4998276 7.12476273,21.643308 6.72058926,21.643308 Z M6.72058926,3.85901417 C6.44216399,3.85901417 6.21603362,4.08448334 6.21603362,4.36230752 L6.21603362,19.9243085 C6.21603362,20.2020725 6.44216399,20.4276018 6.72058926,20.4276018 C6.87314611,20.4276018 6.98254464,20.3631649 7.04698157,20.3084656 L17.5177433,12.5925032 C17.6969885,12.4764325 17.7845675,12.3165424 17.7845675,12.1439091 C17.7845675,11.9706747 17.6981907,11.8126479 17.5535683,11.7214624 L7.07673557,4.00123226 C6.98254464,3.923391 6.87314611,3.85901417 6.72058926,3.85901417 Z" id="Combined-Shape"></path>
        </g>
    </g>
</svg>