<?xml version="1.0" encoding="utf-8"?>
<!-- Generator: Adobe Illustrator 21.1.0, SVG Export Plug-In . SVG Version: 6.00 Build 0)  -->
<svg version="1.1" id="Layer_1" xmlns="http://www.w3.org/2000/svg" xmlns:xlink="http://www.w3.org/1999/xlink" x="0px" y="0px"
	 viewBox="0 0 32 32" style="enable-background:new 0 0 32 32;" xml:space="preserve">
<title>nav-admindashboard</title>
<desc>Created with Sketch.</desc>
<g id="Page-1">
	<g id="admindashboard">
		<g id="_x30_01-dashboard-1" transform="translate(5.000000, 4.000000)">
			<ellipse id="Oval" cx="11" cy="2.2" rx="1.2" ry="1.2"/>
			<ellipse id="Oval_1_" cx="1.2" cy="12" rx="1.2" ry="1.2"/>
			<ellipse id="Oval_2_" cx="4.1" cy="5.1" rx="1.2" ry="1.2"/>
			<ellipse id="Oval_3_" cx="20.8" cy="12" rx="1.2" ry="1.2"/>
		</g>
		<path d="M20,30.8h-8c-1.6,0-2.9-1.3-2.9-2.8v-1c0-1.6,1.3-2.8,2.9-2.8h8c1.6,0,2.8,1.3,2.8,2.8v1C22.8,29.6,21.6,30.8,20,30.8z
			 M12,25.8c-0.6,0-1.1,0.5-1.1,1.2v1c0,0.6,0.5,1.2,1.1,1.2h8c0.6,0,1.2-0.5,1.2-1.2v-1c0-0.6-0.5-1.2-1.2-1.2H12z"/>
		<path d="M25.9,25.7c-0.2,0-0.4-0.1-0.6-0.2c-0.3-0.3-0.3-0.9,0-1.2c2.5-2.5,3.9-5.8,3.9-9.3s-1.4-6.8-3.9-9.3
			c-2.5-2.5-5.8-3.9-9.3-3.9c-3.5,0-6.8,1.4-9.3,3.9c-5.1,5.1-5.1,13.5,0,18.6c0.3,0.3,0.3,0.9,0,1.2c-0.3,0.3-0.9,0.3-1.2,0
			c-5.8-5.8-5.8-15.2,0-21C8.3,1.7,12,0.1,16,0.1c4,0,7.7,1.5,10.5,4.3c2.8,2.8,4.4,6.5,4.4,10.5s-1.5,7.7-4.4,10.5
			C26.3,25.7,26.1,25.7,25.9,25.7z"/>
		
			<g id="Group" transform="translate(18.345686, 13.259301) rotate(-44.000000) translate(-18.345686, -13.259301) translate(12.845686, 11.259301)">
			<ellipse id="Oval-3" transform="matrix(0.7193 -0.6947 0.6947 0.7193 -0.828 1.9506)" cx="2" cy="2" rx="2" ry="2"/>
			<path id="Rectangle-2" d="M4,1l6,0c0.6,0,1,0.4,1,1l0,0c0,0.6-0.4,1-1,1L4,3C3.4,3,3,2.6,3,2l0,0C3,1.4,3.4,1,4,1z"/>
		</g>
	</g>
</g>
</svg>
