<?xml version="1.0" encoding="UTF-8"?>
<svg width="32px" height="32px" viewBox="0 0 32 32" version="1.1" xmlns="http://www.w3.org/2000/svg" xmlns:xlink="http://www.w3.org/1999/xlink">
    <!-- Generator: Sketch 47.1 (45422) - http://www.bohemiancoding.com/sketch -->
    <title>nav-models</title>
    <desc>Created with Sketch.</desc>
    <defs></defs>
    <g id="Page-1" stroke="none" stroke-width="1" fill="none" fill-rule="evenodd">
        <g id="models" fill="#000000">
            <g id="002-science" transform="translate(2.000000, 0.000000)" fill-rule="nonzero">
                <path d="M19.6968965,10.1145349 L19.6968965,1.53095886 L22.1008382,1.53095886 L22.1008382,0 L5.89919986,0 L5.89919986,1.53095886 L8.30314155,1.53095886 L8.30314155,10.1144328 L0.79342725,23.1810646 C-0.264526549,25.0217875 -0.26442495,27.219632 0.79342725,29.0603549 C1.85138105,30.9010777 3.74610691,32 5.86191291,32 L22.1381252,32 C24.2539312,32 26.1486571,30.9010777 27.2066109,29.0603549 C28.264463,27.219632 28.264463,25.0217875 27.2066109,23.1810646 L19.6968965,10.1145349 Z M9.82713147,10.5247298 L9.82713147,1.53095886 L18.1730082,1.53095886 L18.1730082,10.5247298 L21.2179401,15.8228681 L6.78219962,15.8228681 L9.82713147,10.5247298 Z M25.886734,28.2948754 C25.1043176,29.6563061 23.702958,30.4690411 22.1381252,30.4690411 L5.86191291,30.4690411 C4.29708006,30.4690411 2.89572054,29.6563061 2.11330411,28.2948754 C1.33088769,26.9334448 1.33088769,25.3078726 2.11330411,23.946544 L3.8992171,20.8392079 L4.77906727,19.308249 L5.90234944,17.3538269 L22.0977903,17.3538269 L25.8868356,23.946544 C26.6691504,25.3078726 26.6691504,26.9334448 25.886734,28.2948754 Z" id="Shape"></path>
                <rect id="Rectangle-path" x="9" y="27" width="5" height="1" rx="0.5"></rect>
                <rect id="Rectangle-path" x="17" y="23" width="6" height="1" rx="0.5"></rect>
                <rect id="Rectangle-path-Copy" x="3" y="20" width="8" height="1" rx="0.5"></rect>
            </g>
            <path d="M18,6 C18.5514,6 19,5.5548 19,5 C19,4.4452 18.5514,4 18,4 C17.4486,4 17,4.4452 17,5 C17,5.5548 17.4486,6 18,6 Z" id="Path"></path>
            <path d="M14,8 C14.552,8 15,7.5555 15,7 C15,6.4445 14.552,6 14,6 C13.4475,6 13,6.4445 13,7 C13,7.5555 13.4475,8 14,8 Z" id="Path"></path>
        </g>
    </g>
</svg>