<?xml version="1.0" encoding="UTF-8"?>
<svg width="32px" height="32px" viewBox="0 0 32 32" version="1.1" xmlns="http://www.w3.org/2000/svg" xmlns:xlink="http://www.w3.org/1999/xlink">
    <!-- Generator: Sketch 47.1 (45422) - http://www.bohemiancoding.com/sketch -->
    <title>nav-models</title>
    <desc>Created with Sketch.</desc>
    <defs></defs>
    <g id="Page-1" stroke="none" stroke-width="1" fill="none" fill-rule="evenodd">
        <g id="models" fill-rule="nonzero" fill="#010002">
            <g id="004-atomic-structure" transform="translate(0.000000, 2.000000)">
                <path d="M15.9996744,11 C14.3457893,11 13,12.3461858 13,14 C13,15.6543567 14.3457893,17 15.9996744,17 C17.6542107,17 19,15.6543567 19,14 C19,12.3462944 17.6542107,11 15.9996744,11 Z" id="Shape"></path>
                <path d="M31.9992112,14.3380491 C32.0206813,13.3678348 31.6037361,12.4346129 30.7604272,11.5642274 C30.7604272,11.5637207 30.7604272,11.5619978 30.7604272,11.5619978 C30.7604272,10.7345843 30.0878663,10.0615253 29.2604575,10.0615253 C29.1204967,10.0615253 28.9817513,10.0807817 28.8473607,10.1205105 C28.3301541,9.82173354 27.7638297,9.54393584 27.1612492,9.29198215 C26.7596976,9.1244522 26.304167,8.9568209 25.7780484,8.78260191 C26.9034055,4.70391146 26.4919291,1.69860861 24.6323352,0.506237246 C22.6835189,-0.746234094 19.4588523,0.357963612 15.999635,3.50008766 C12.5415317,0.359686545 9.32020711,-0.748869169 7.36693475,0.506237246 C6.18375017,1.2647334 5.57448556,2.76581392 5.59767731,4.85613771 C5.22752071,5.13667183 5.00502165,5.57389155 5.00502165,6.0456713 C5.00502165,6.64160361 5.35644256,7.16963207 5.88580195,7.40942388 C5.95021224,7.72472071 6.03062382,8.06596291 6.12987238,8.44247456 C2.27406595,9.61113025 0.0475562367,11.4953101 0.000767631414,13.6445177 C-0.0416661903,15.5761289 1.67644786,17.3686892 4.83761566,18.6900779 C5.24139525,18.8598375 5.69966027,19.0279756 6.22962731,19.2027013 C6.08034938,19.7357972 5.9652008,20.2098066 5.87871277,20.6453034 C5.21222833,24.0084697 5.74098008,26.4344615 7.36764367,27.4779511 C9.32699247,28.7304225 12.5443674,27.6223735 16.0003439,24.4824791 C18.4994833,26.7524948 20.8851958,27.9988852 22.7447897,28 C23.4564424,28 24.0916331,27.8246662 24.6336518,27.4774444 C26.2597077,26.4344615 26.7879531,24.0084697 26.1214687,20.6453034 C26.0559444,20.3151083 25.9710767,19.9512653 25.8642326,19.5439435 C29.7231785,18.3742743 31.9524226,16.489081 31.9992112,14.3380491 Z M8.18107674,26.2035884 C7.1455497,25.5398536 6.838183,23.5713513 7.35974429,20.9386075 C7.43630746,20.5532785 7.53991081,20.1260923 7.67541547,19.6409345 C9.11198769,20.024642 10.6829506,20.3134867 12.3558964,20.4997662 C13.184318,21.5658567 14.0408938,22.5492464 14.9067868,23.4301721 C12.1179024,25.9429187 9.49318317,27.0436705 8.18107674,26.2035884 Z M8.18107674,1.778573 C9.48933475,0.943963716 12.1179024,2.0398508 14.9067868,4.55300275 C14.0777576,5.3958213 13.2581468,6.33076613 12.4670953,7.33847955 C10.7297392,7.46364561 9.09760678,7.70171448 7.60543511,8.04903762 C7.53656876,7.77894245 7.47327249,7.50935402 7.41544501,7.23317791 C7.78063919,6.95315053 8.00313825,6.51491732 8.00313825,6.04577265 C8.00313825,5.44821875 7.64614727,4.91573094 7.11962355,4.67705397 C7.12012992,3.60650414 7.32237417,2.32920229 8.18107674,1.778573 Z M8.11666645,18.1956973 C8.40367707,17.3644326 8.7456795,16.5133034 9.13791384,15.6549784 C9.51526091,16.3264158 9.91235641,16.9884277 10.3238328,17.6306765 C10.5727644,18.0203635 10.8333425,18.4106586 11.1109346,18.8092644 C10.0484687,18.6460924 9.04585574,18.440962 8.11666645,18.1956973 Z M10.3244405,10.3519917 C9.91073602,10.9985985 9.51475454,11.6573672 9.14348392,12.3177575 C8.71823423,11.3768331 8.35030565,10.4396586 8.04344532,9.51687565 C9.04818505,9.28539446 10.1206771,9.10397969 11.2476546,8.97557047 C10.928135,9.43032358 10.6196543,9.89115763 10.3244405,10.3519917 Z M9.96360107,13.986368 C10.4731108,13.0117957 11.0217122,12.0652971 11.5962398,11.1673446 C12.0930903,10.3912138 12.6483758,9.59795488 13.2476143,8.8053041 C14.1939189,8.7523999 15.1469076,8.73638675 16.1130619,8.75848084 C17.0241231,8.77834525 17.9396404,8.83013461 18.834194,8.914457 C19.4021388,9.67133158 19.9297766,10.4275981 20.4035365,11.1668379 C20.9775577,12.0642836 21.5266656,13.0124038 22.0356689,13.9864693 C21.5205891,14.9754332 20.9719877,15.9262898 20.4035365,16.8149181 C19.9039517,17.5949003 19.3497801,18.3881591 18.7526684,19.1764519 C17.8068702,19.2282413 16.8549955,19.2437477 15.8861068,19.2227684 C14.9772736,19.2040188 14.0628703,19.1516214 13.1649747,19.067299 C12.5959159,18.3099177 12.0693921,17.552435 11.5962398,16.8149181 C11.0283963,15.9279114 10.4796936,14.9769534 9.96360107,13.986368 Z M20.7512103,19.0070977 C21.0712362,18.5501149 21.3813373,18.0897876 21.6749308,17.6306765 C22.0869136,16.9868061 22.4846167,16.3247942 22.8608497,15.6539649 C23.2915682,16.6009703 23.6639529,17.5408812 23.9696992,18.4620426 C22.961111,18.6956521 21.8831502,18.8780804 20.7512103,19.0070977 Z M21.6749308,10.3519917 C21.4231635,9.95845338 21.1626867,9.56815826 20.8872213,9.17289704 C21.942598,9.33495414 22.941869,9.53947648 23.8710583,9.7842344 C23.5840476,10.6138776 23.244172,11.4627771 22.8558873,12.3182642 C22.4857307,11.6595969 22.0902556,11.0014363 21.6749308,10.3519917 Z M24.3123093,8.3383891 C22.8751294,7.95528976 21.3069009,7.6686747 19.6433736,7.48290192 C18.8149519,6.41681145 17.9588825,5.43342179 17.0924831,4.55361085 C19.8813676,2.0404589 22.5121632,0.94457181 23.8186996,1.77918109 C25.0503944,2.5689941 25.2294469,5.00714777 24.3123093,8.3383891 Z M16.1461785,7.24686003 C15.8548131,7.24077909 15.5644604,7.23753592 15.2769434,7.23753592 C15.015859,7.23753592 14.7563949,7.2397656 14.4991588,7.24523844 C14.9921609,6.66754896 15.4939737,6.119048 16.000749,5.6058165 C16.5278804,6.14104074 17.0484289,6.70991286 17.5552042,7.30696 C17.0583538,7.27665664 16.5917843,7.25740033 16.1461785,7.24686003 Z M6.55552716,9.91102204 C6.98239723,11.2042357 7.55641847,12.575184 8.26310871,13.9946786 C7.61860073,15.2923516 7.08377254,16.5557686 6.67178976,17.7574641 C6.19478904,17.599765 5.78331262,17.4471334 5.41923246,17.2955152 C2.94429753,16.260843 1.48291317,14.9086442 1.51045971,13.6771521 C1.54074065,12.2576575 3.41856385,10.8624868 6.55552716,9.91102204 Z M15.8542055,20.7353014 C16.4088834,20.7468552 16.9597129,20.74797 17.5012251,20.736923 C17.0082231,21.3146124 16.5059039,21.8636201 15.999635,22.3779665 C15.474124,21.8448706 14.9535754,21.2759985 14.4446734,20.6757081 C14.9481066,20.7060115 15.4085997,20.7253692 15.8542055,20.7353014 Z M19.5321747,20.644898 C21.2700372,20.5203401 22.906018,20.281055 24.4043674,19.9316035 C24.5018943,20.3047707 24.5795714,20.6360807 24.6401333,20.939317 C25.1617959,23.5709459 24.8555432,25.5394482 23.8199149,26.2036898 C22.5089225,27.0437719 19.8819752,25.9412971 17.0930908,23.4309829 C17.921006,22.5890765 18.7395028,21.6547398 19.5321747,20.644898 Z M25.4315899,18.0743825 C24.9991498,16.7607977 24.4301922,15.391471 23.7355536,13.9935638 C24.3778336,12.7042014 24.9143834,11.4396695 25.3308222,10.226927 C25.8105574,10.3862476 26.214337,10.535028 26.5795311,10.6872543 C27.0086292,10.8675542 27.4151432,11.0610295 27.7929966,11.264437 C27.7720329,11.3625429 27.7616017,11.4617636 27.7616017,11.5615924 C27.7616017,12.3884991 28.4347702,13.0615581 29.2604575,13.0615581 C29.4928814,13.0615581 29.7198365,13.0070323 29.9248151,12.903859 C30.309859,13.3807062 30.4993428,13.8508643 30.4889115,14.3057188 C30.4596433,15.7261255 28.5774653,17.1219043 25.4315899,18.0743825 Z" id="Shape"></path>
            </g>
        </g>
    </g>
</svg>