<?xml version="1.0" encoding="UTF-8"?>
<svg width="32px" height="32px" viewBox="0 0 32 32" version="1.1" xmlns="http://www.w3.org/2000/svg" xmlns:xlink="http://www.w3.org/1999/xlink">
    <!-- Generator: Sketch 47.1 (45422) - http://www.bohemiancoding.com/sketch -->
    <title>nav-reports</title>
    <desc>Created with Sketch.</desc>
    <defs></defs>
    <g id="Page-1" stroke="none" stroke-width="1" fill="none" fill-rule="evenodd">
        <g id="reports" fill-rule="nonzero" fill="#000000">
            <g id="003-document" transform="translate(3.000000, 2.000000)">
                <path d="M15.3230958,7 C12.1076986,7 8.8923014,7 5.6769042,7 C4.77436527,7 4.77436527,8 5.6769042,8 C8.8923014,8 12.1076986,8 15.3230958,8 C16.2256347,8 16.2256347,7 15.3230958,7 Z" id="Shape"></path>
                <path d="M15.3230958,13 C12.1076986,13 8.8923014,13 5.6769042,13 C4.77436527,13 4.77436527,14 5.6769042,14 C8.8923014,14 12.1076986,14 15.3230958,14 C16.2256347,14 16.2256347,13 15.3230958,13 Z" id="Shape"></path>
                <path d="M15.3230958,20 C12.1076986,20 8.8923014,20 5.6769042,20 C4.77436527,20 4.77436527,21 5.6769042,21 C8.8923014,21 12.1076986,21 15.3230958,21 C16.2256347,21 16.2256347,20 15.3230958,20 Z" id="Shape"></path>
                <path d="M26.9184103,21.8836624 C26.9184103,19.1516676 26.9184103,16.4196173 26.9184103,13.6876226 C26.9184103,11.5984337 26.9184103,9.50924493 26.9184103,7.42005612 C26.9184103,5.49158268 25.8955285,4.47379267 23.9574075,4.47379267 C23.1498663,4.47379267 22.3423252,4.47379267 21.480907,4.47379267 C21.480907,4.20597072 21.480907,3.88453998 21.480907,3.61671803 C21.480907,1.95606654 21.2655664,0.241861764 19.165926,0.0811463947 C17.6584861,-0.0260156833 16.097225,0.0811463947 14.5897851,0.0811463947 C11.8441228,0.0811463947 9.09840483,0.0811463947 6.4065638,0.0811463947 C4.9529451,0.0811463947 3.3378628,-0.133122266 1.8842441,0.134699686 C0,0.509683716 0,2.27749728 0,3.7774334 C0,8.70577908 0,13.6341248 0,18.5624149 C0,20.5980505 0,22.6336305 0,24.669266 C0,26.2763087 0.376859975,27.7762448 2.31498105,27.8834069 C3.93006336,27.990569 5.59902265,27.8834069 7.21416073,27.8834069 C9.95982296,27.8834069 12.651664,27.8834069 15.397382,27.8834069 C16.9586431,27.8834069 18.466083,27.8834069 20.0273441,27.8834069 C21.4270858,27.8834069 22.8268833,27.8834069 24.226625,27.8834069 C25.4648474,27.8834069 26.5954273,27.3477075 26.8646448,26.0084867 C27.1338066,24.7763726 26.9184103,23.2228832 26.9184103,21.8836624 Z M25.4110262,26.0084867 C24.926468,26.9191702 23.3113857,26.5977394 22.3961464,26.5977394 C20.6733659,26.5977394 18.9505854,26.5977394 17.2278049,26.5977394 C12.7054852,26.5977394 8.23704247,26.5977394 3.71477854,26.5977394 C2.58419862,26.5977394 1.4536187,26.7049015 1.34597629,25.2585187 C1.23827811,23.7585826 1.34597629,22.2050932 1.34597629,20.705157 C1.34597629,15.8839734 1.34597629,11.1163431 1.34597629,6.29515953 C1.34597629,5.06310086 1.1844569,3.72388011 1.34597629,2.49176594 C1.56131688,1.04538311 3.49943795,1.47397593 4.57619668,1.47397593 C9.0446394,1.47397593 13.5131379,1.47397593 17.9277594,1.47397593 C18.3046194,1.47397593 18.7353006,1.42042264 19.1121605,1.47397593 C20.0273999,1.6346913 20.0812211,2.27749728 20.0812211,2.97391205 C20.0812211,4.74167012 20.0812211,6.50948369 20.0812211,8.33079505 C20.0812211,12.7769946 20.0812211,17.2232497 20.0812211,21.6694493 C20.0812211,21.99088 20.0812211,22.2587019 20.0812211,22.5801327 C20.0812211,23.4372073 21.4271416,23.4372073 21.4271416,22.5801327 C21.4271416,18.5624704 21.4271416,14.5448082 21.4271416,10.4735926 C21.4271416,8.92010323 21.4271416,7.36661382 21.4271416,5.81312441 C22.1270403,5.81312441 22.8268833,5.81312441 23.5267821,5.81312441 C24.4420214,5.81312441 25.3572607,5.70596234 25.5187243,6.88452321 C25.7340649,8.33090604 25.5187243,9.88439545 25.5187243,11.3307228 C25.5187243,15.7769224 25.5187243,20.2767307 25.5187243,24.7229303 C25.5724898,25.2049654 25.6263667,25.6335027 25.4110262,26.0084867 Z" id="Shape"></path>
            </g>
        </g>
    </g>
</svg>