<?xml version="1.0" encoding="utf-8"?>
<!-- Generator: Adobe Illustrator 21.1.0, SVG Export Plug-In . SVG Version: 6.00 Build 0)  -->
<svg version="1.1" id="Layer_1" xmlns="http://www.w3.org/2000/svg" xmlns:xlink="http://www.w3.org/1999/xlink" x="0px" y="0px"
	 viewBox="0 0 32 32" style="enable-background:new 0 0 32 32;" xml:space="preserve">
<title>nav-models</title>
<desc>Created with Sketch.</desc>
<g id="Page-1">
	<g id="models">
		<g id="_x30_02-science" transform="translate(2.000000, 0.000000)">
			<g>
				<path id="Shape_1_" d="M19.7,10.1V1.5h2.4V0H5.9v1.5h2.4v8.6L0.8,23.2c-1.1,1.8-1.1,4,0,5.9c1.1,1.8,3,2.9,5.1,2.9h16.3
					c2.1,0,4-1.1,5.1-2.9s1.1-4,0-5.9L19.7,10.1z M9.8,10.5v-9h8.3v9l3,5.3H6.8L9.8,10.5z M25.9,28.3c-0.8,1.4-2.2,2.2-3.7,2.2H5.9
					c-1.6,0-3-0.8-3.7-2.2c-0.8-1.4-0.8-3,0-4.3L4,20.9l0.9-1.5l1.1-2h16.2L26,24C26.7,25.3,26.7,26.9,25.9,28.3z"/>
				<path d="M22.2,32.3H5.9c-2.2,0-4.2-1.1-5.4-3.1c-1.2-2-1.2-4.4,0-6.3l7.4-13V1.9H5.5v-2.2h16.9v2.2H20V10l7.6,13
					c1.2,2,1.2,4.3,0,6.3C26.4,31.2,24.4,32.3,22.2,32.3z M6.2,1.2h2.4v9L1.1,23.4c-1,1.7-1,3.8,0,5.5c1,1.7,2.8,2.7,4.8,2.7h16.3
					c2,0,3.8-1,4.8-2.7c1-1.7,1-3.8,0-5.5l-7.6-13.2v-9h2.4V0.4H6.2V1.2z M22.2,30.8H5.9c-1.8,0-3.3-0.9-4-2.4C1,27,1,25.2,1.9,23.8
					l2.7-4.6l1.2-2.2h16.6l3.9,6.8c0.8,1.4,0.7,3.2-0.1,4.6l0,0C25.4,30,23.9,30.8,22.2,30.8z M6.2,17.7l-1,1.8l-0.9,1.5l-1.8,3.1
					c-0.7,1.2-0.7,2.7,0,4c0.6,1.3,1.9,2,3.4,2h16.3c1.4,0,2.7-0.8,3.4-2c0.7-1.3,0.8-2.7,0.1-4L22,17.7H6.2z M21.7,16.2H6.2
					l3.2-5.7V1.2h9v9.3L21.7,16.2z M7.4,15.4h13.1l-2.7-4.9V1.9h-7.6v8.7L7.4,15.4z"/>
			</g>
			<g>
				<path id="Rectangle-path_1_" d="M9.5,27h4c0.3,0,0.5,0.2,0.5,0.5l0,0c0,0.3-0.2,0.5-0.5,0.5h-4C9.2,28,9,27.8,9,27.5l0,0
					C9,27.2,9.2,27,9.5,27z"/>
				<path d="M13.5,28.3h-4c-0.5,0-0.9-0.4-0.9-0.8s0.4-0.8,0.9-0.8h4c0.5,0,0.9,0.4,0.9,0.8S14,28.3,13.5,28.3z M9.5,27.3
					c-0.1,0-0.1,0-0.1,0.2s0,0.2,0.1,0.2h4c0.1,0,0.1,0,0.1-0.2s0-0.2-0.1-0.2H9.5z"/>
			</g>
			<g>
				<path id="Rectangle-path_2_" d="M17.5,23h5c0.3,0,0.5,0.2,0.5,0.5l0,0c0,0.3-0.2,0.5-0.5,0.5h-5c-0.3,0-0.5-0.2-0.5-0.5l0,0
					C17,23.2,17.2,23,17.5,23z"/>
				<path d="M22.5,24.3h-5c-0.5,0-0.8-0.4-0.8-0.8s0.4-0.8,0.8-0.8h5c0.5,0,0.8,0.4,0.8,0.8S23,24.3,22.5,24.3z M17.5,23.3
					c-0.1,0-0.2,0-0.2,0.2s0,0.2,0.2,0.2h5c0.1,0,0.2,0,0.2-0.2s0-0.2-0.2-0.2H17.5z"/>
			</g>
			<g>
				<path id="Rectangle-path-Copy_1_" d="M3.5,20h7c0.3,0,0.5,0.2,0.5,0.5l0,0c0,0.3-0.2,0.5-0.5,0.5h-7C3.2,21,3,20.8,3,20.5l0,0
					C3,20.2,3.2,20,3.5,20z"/>
				<path d="M10.5,21.3h-7c-0.5,0-0.9-0.4-0.9-0.8s0.4-0.8,0.9-0.8h7c0.5,0,0.9,0.4,0.9,0.8S11,21.3,10.5,21.3z M3.5,20.3
					c-0.1,0-0.1,0-0.1,0.2s0,0.2,0.1,0.2h7c0.1,0,0.1,0,0.1-0.2s0-0.2-0.1-0.2H3.5z"/>
			</g>
		</g>
		<g>
			<path id="Path_1_" d="M18,6c0.6,0,1-0.4,1-1s-0.4-1-1-1s-1,0.4-1,1S17.4,6,18,6z"/>
			<path d="M18,6.4c-0.8,0-1.4-0.6-1.4-1.4s0.6-1.4,1.4-1.4s1.3,0.6,1.3,1.4S18.8,6.4,18,6.4z M18,4.4c-0.4,0-0.7,0.2-0.7,0.6
				s0.2,0.6,0.7,0.6s0.7-0.2,0.7-0.6S18.4,4.4,18,4.4z"/>
		</g>
		<g>
			<path id="Path_2_" d="M14,8c0.6,0,1-0.4,1-1s-0.4-1-1-1s-1,0.4-1,1S13.4,8,14,8z"/>
			<path d="M14,8.4c-0.8,0-1.4-0.6-1.4-1.4s0.6-1.4,1.4-1.4s1.4,0.6,1.4,1.4S14.8,8.4,14,8.4z M14,6.4c-0.4,0-0.6,0.2-0.6,0.6
				s0.2,0.6,0.6,0.6s0.6-0.2,0.6-0.6S14.4,6.4,14,6.4z"/>
		</g>
	</g>
</g>
</svg>
