<?xml version="1.0" encoding="UTF-8"?>
<svg width="32px" height="32px" viewBox="0 0 32 32" version="1.1" xmlns="http://www.w3.org/2000/svg" xmlns:xlink="http://www.w3.org/1999/xlink">
    <!-- Generator: Sketch 47.1 (45422) - http://www.bohemiancoding.com/sketch -->
    <title>nav-db</title>
    <desc>Created with Sketch.</desc>
    <defs></defs>
    <g id="Page-1" stroke="none" stroke-width="1" fill="none" fill-rule="evenodd">
        <g id="db" fill-rule="nonzero" fill="#000000">
            <g id="006-technology" transform="translate(0.000000, 2.000000)">
                <path d="M24.2207862,4.39035461 L15.3319556,4.39035461 C14.8977311,4.39035461 14.5465201,4.74081833 14.5465201,5.17411893 C14.5465201,5.60741953 14.8977311,5.95788325 15.3319556,5.95788325 L24.2207862,5.95788325 C24.6550107,5.95788325 25.0062216,5.60741953 25.0062216,5.17411893 C25.0062216,4.74081833 24.6550107,4.39035461 24.2207862,4.39035461 Z" id="Shape"></path>
                <ellipse id="Oval" cx="8.0778525" cy="5.16774686" rx="1.00893336" ry="1.00678669"></ellipse>
                <path d="M24.2207862,13.1774359 L15.3319556,13.1774359 C14.8977311,13.1774359 14.5465201,13.5278996 14.5465201,13.9612002 C14.5465201,14.3945008 14.8977311,14.7449645 15.3319556,14.7449645 L24.2207862,14.7449645 C24.6550107,14.7449645 25.0062216,14.3945008 25.0062216,13.9612002 C25.0062216,13.5278996 24.6550107,13.1774359 24.2207862,13.1774359 Z" id="Shape"></path>
                <ellipse id="Oval" cx="8.0778525" cy="13.9548282" rx="1.00893336" ry="1.00678669"></ellipse>
                <path d="M31.2833197,23.3854883 L31.2833197,22.0919585 C31.2833197,20.537174 30.4914986,19.1608074 29.2909956,18.3451828 C30.4914986,17.5295581 31.2833197,16.1531915 31.2833197,14.598407 L31.2833197,13.3048773 C31.2833197,11.7500927 30.4914986,10.3737261 29.2909956,9.55810147 C30.4914986,8.74247681 31.2833197,7.3661102 31.2833197,5.8113257 L31.2833197,4.52416803 C31.2833197,2.02631751 29.246296,0 26.7431196,0 L4.54658575,0 C2.04340933,0 0.00638565415,2.02631751 0.00638565415,4.52416803 L0.00638565415,5.81769776 C0.00638565415,7.37248227 0.798206768,8.74884888 1.99870975,9.56447354 C0.798206768,10.3800982 0.00638565415,11.7564648 0.00638565415,13.3112493 L0.00638565415,14.6047791 C0.00638565415,16.1595636 0.798206768,17.5359302 1.99870975,18.3515548 C0.798206768,19.1671795 0.00638565415,20.5435461 0.00638565415,22.0983306 L0.00638565415,23.3854883 C0.00638565415,25.8833388 2.04340933,27.9160284 4.54658575,27.9160284 L26.7495052,27.9160284 C29.246296,27.9096563 31.2833197,25.8833388 31.2833197,23.3854883 Z M1.57087092,5.81769776 L1.57087092,4.52416803 C1.57087092,2.88654664 2.90547264,1.56115657 4.54658575,1.56115657 L26.7495052,1.56115657 C28.3906183,1.56115657 29.7252201,2.89291871 29.7252201,4.52416803 L29.7252201,5.81769776 C29.7252201,7.45531915 28.3906183,8.78708129 26.7495052,8.78708129 L4.54658575,8.78708129 C2.90547264,8.78070922 1.57087092,7.44894708 1.57087092,5.81769776 Z M1.57087092,14.598407 L1.57087092,13.3048773 C1.57087092,11.6672559 2.90547264,10.3354937 4.54658575,10.3354937 L26.7495052,10.3354937 C28.3906183,10.3354937 29.7252201,11.6672559 29.7252201,13.3048773 L29.7252201,14.598407 C29.7252201,16.2360284 28.3906183,17.5677905 26.7495052,17.5677905 L4.54658575,17.5677905 C2.90547264,17.5677905 1.57087092,16.2360284 1.57087092,14.598407 Z M1.57087092,23.3854883 L1.57087092,22.0919585 C1.57087092,20.4543372 2.90547264,19.1289471 4.54658575,19.1289471 L26.7495052,19.1289471 C28.3906183,19.1289471 29.7252201,20.4607092 29.7252201,22.0919585 L29.7252201,23.3854883 C29.7252201,25.0231097 28.3906183,26.3548718 26.7495052,26.3548718 L4.54658575,26.3548718 C2.90547264,26.3484997 1.57087092,25.0231097 1.57087092,23.3854883 Z" id="Shape"></path>
                <path d="M24.2207862,21.9581451 L15.3319556,21.9581451 C14.8977311,21.9581451 14.5465201,22.3086088 14.5465201,22.7419094 C14.5465201,23.17521 14.8977311,23.5256738 15.3319556,23.5256738 L24.2207862,23.5256738 C24.6550107,23.5256738 25.0062216,23.17521 25.0062216,22.7419094 C25.0062216,22.3086088 24.6550107,21.9581451 24.2207862,21.9581451 Z" id="Shape"></path>
                <ellipse id="Oval" cx="8.0778525" cy="22.7419094" rx="1.00893336" ry="1.00678669"></ellipse>
            </g>
        </g>
    </g>
</svg>