<?xml version="1.0" encoding="UTF-8"?>
<svg width="32px" height="32px" viewBox="0 0 32 32" version="1.1" xmlns="http://www.w3.org/2000/svg" xmlns:xlink="http://www.w3.org/1999/xlink">
    <!-- Generator: Sketch 47.1 (45422) - http://www.bohemiancoding.com/sketch -->
    <title>nav-db</title>
    <desc>Created with Sketch.</desc>
    <defs></defs>
    <g id="Page-1" stroke="none" stroke-width="1" fill="none" fill-rule="evenodd">
        <g id="db" fill-rule="nonzero" fill="#999999">
            <g id="006-technology" transform="translate(0.000000, 2.000000)">
                <path d="M23.2207862,4.39035461 L14.3319556,4.39035461 C13.8977311,4.39035461 13.5465201,4.74081833 13.5465201,5.17411893 C13.5465201,5.60741953 13.8977311,5.95788325 14.3319556,5.95788325 L23.2207862,5.95788325 C23.6550107,5.95788325 24.0062216,5.60741953 24.0062216,5.17411893 C24.0062216,4.74081833 23.6550107,4.39035461 23.2207862,4.39035461 Z" id="Shape"></path>
                <ellipse id="Oval" cx="7.0778525" cy="5.16774686" rx="1.00893336" ry="1.00678669"></ellipse>
                <path d="M23.2207862,13.1774359 L14.3319556,13.1774359 C13.8977311,13.1774359 13.5465201,13.5278996 13.5465201,13.9612002 C13.5465201,14.3945008 13.8977311,14.7449645 14.3319556,14.7449645 L23.2207862,14.7449645 C23.6550107,14.7449645 24.0062216,14.3945008 24.0062216,13.9612002 C24.0062216,13.5278996 23.6550107,13.1774359 23.2207862,13.1774359 Z" id="Shape"></path>
                <ellipse id="Oval" cx="7.0778525" cy="13.9548282" rx="1.00893336" ry="1.00678669"></ellipse>
                <path d="M30.6416598,22.9986709 L30.6416598,21.7582158 C30.6416598,20.2672254 29.8823278,18.9473323 28.7310825,18.1651734 C29.8823278,17.3830146 30.6416598,16.0631215 30.6416598,14.5721311 L30.6416598,13.331676 C30.6416598,11.8406857 29.8823278,10.5207926 28.7310825,9.7386337 C29.8823278,8.95647483 30.6416598,7.63658173 30.6416598,6.14559137 L30.6416598,4.9112469 C30.6416598,2.51588535 28.688217,0.572709399 26.2877481,0.572709399 L5.00195725,0.572709399 C2.60148832,0.572709399 0.648045487,2.51588535 0.648045487,4.9112469 L0.648045487,6.15170199 C0.648045487,7.64269234 1.4073775,8.96258544 2.5586228,9.74474431 C1.4073775,10.5269032 0.648045487,11.8467963 0.648045487,13.3377866 L0.648045487,14.5782417 C0.648045487,16.0692321 1.4073775,17.3891252 2.5586228,18.1712841 C1.4073775,18.9534429 0.648045487,20.273336 0.648045487,21.7643264 L0.648045487,22.9986709 C0.648045487,25.3940324 2.60148832,27.343319 5.00195725,27.343319 L26.2938717,27.343319 C28.688217,27.3372084 30.6416598,25.3940324 30.6416598,22.9986709 Z M2.14833857,6.15170199 L2.14833857,4.9112469 C2.14833857,3.34081854 3.42818042,2.06981037 5.00195725,2.06981037 L26.2938717,2.06981037 C27.8676485,2.06981037 29.1474904,3.34692915 29.1474904,4.9112469 L29.1474904,6.15170199 C29.1474904,7.72213035 27.8676485,8.99924914 26.2938717,8.99924914 L5.00195725,8.99924914 C3.42818042,8.99313852 2.14833857,7.71601974 2.14833857,6.15170199 Z M2.14833857,14.5721311 L2.14833857,13.331676 C2.14833857,11.7612477 3.42818042,10.4841289 5.00195725,10.4841289 L26.2938717,10.4841289 C27.8676485,10.4841289 29.1474904,11.7612477 29.1474904,13.331676 L29.1474904,14.5721311 C29.1474904,16.1425595 27.8676485,17.4196783 26.2938717,17.4196783 L5.00195725,17.4196783 C3.42818042,17.4196783 2.14833857,16.1425595 2.14833857,14.5721311 Z M2.14833857,22.9986709 L2.14833857,21.7582158 C2.14833857,20.1877874 3.42818042,18.9167792 5.00195725,18.9167792 L26.2938717,18.9167792 C27.8676485,18.9167792 29.1474904,20.193898 29.1474904,21.7582158 L29.1474904,22.9986709 C29.1474904,24.5690992 27.8676485,25.846218 26.2938717,25.846218 L5.00195725,25.846218 C3.42818042,25.8401074 2.14833857,24.5690992 2.14833857,22.9986709 Z" id="Shape"></path>
                <path d="M23.2207862,21.9581451 L14.3319556,21.9581451 C13.8977311,21.9581451 13.5465201,22.3086088 13.5465201,22.7419094 C13.5465201,23.17521 13.8977311,23.5256738 14.3319556,23.5256738 L23.2207862,23.5256738 C23.6550107,23.5256738 24.0062216,23.17521 24.0062216,22.7419094 C24.0062216,22.3086088 23.6550107,21.9581451 23.2207862,21.9581451 Z" id="Shape"></path>
                <ellipse id="Oval" cx="7.0778525" cy="22.7419094" rx="1.00893336" ry="1.00678669"></ellipse>
            </g>
        </g>
    </g>
</svg>