<?xml version="1.0" encoding="UTF-8"?>
<svg width="24px" height="24px" viewBox="0 0 24 24" version="1.1" xmlns="http://www.w3.org/2000/svg" xmlns:xlink="http://www.w3.org/1999/xlink">
    <!-- Generator: Sketch 47.1 (45422) - http://www.bohemiancoding.com/sketch -->
    <title>publish</title>
    <desc>Created with Sketch.</desc>
    <defs></defs>
    <g id="Page-1" stroke="none" stroke-width="1" fill="none" fill-rule="evenodd">
        <g id="publish" stroke="#0080FF" stroke-width="0.4" fill="#0080FF" fill-rule="nonzero">
            <g id="export" transform="translate(3.000000, 3.000000)">
                <path d="M12.4884946,1.26755358 L15.8338416,1.26755358 L8.18574993,8.91722099 C7.93808336,9.16481892 7.93808336,9.56762749 8.18574993,9.81522542 C8.30773496,9.93717664 8.47038167,10 8.63302837,10 C8.79567508,10 8.95832178,9.93717664 9.08030681,9.81522542 L16.732095,2.16555802 L16.732095,5.50997783 C16.732095,5.86104952 17.0167267,6.14560237 17.3641992,6.14560237 C17.7153683,6.14560237 18,5.86104952 18,5.50997783 L18,0.635624538 C18,0.284552846 17.7153683,0 17.3641992,0 L12.4884946,0 C12.1373256,0 11.8526938,0.284552846 11.8526938,0.635624538 C11.8563904,0.983000739 12.1373256,1.26755358 12.4884946,1.26755358 Z" id="Shape"></path>
                <path d="M3.77922873,18 L14.2207713,18 C16.3068761,18 18,16.3035496 18,14.2215422 L18,9.30477356 C18,8.95593635 17.7172006,8.67686659 17.3682922,8.67686659 C17.0193838,8.67686659 16.7402571,8.95960832 16.7402571,9.30477356 L16.7402571,14.2178703 C16.7402571,15.6058752 15.6090594,16.7368421 14.2207713,16.7368421 L3.77922873,16.7368421 C2.39094062,16.7368421 1.25974291,15.6058752 1.25974291,14.2178703 L1.25974291,5.92656059 L1.25974291,3.78212974 C1.25974291,2.39412485 2.39094062,1.26315789 3.77922873,1.26315789 L8.65292797,1.26315789 C9.00183636,1.26315789 9.28096307,0.980416157 9.28096307,0.631578947 C9.28096307,0.282741738 8.99816364,0 8.65292797,0 L3.77922873,0 C1.69312385,0 0,1.69645043 0,3.77845777 L0,5.92288862 L0,14.2178703 C0,16.3035496 1.69679657,18 3.77922873,18 Z" id="Shape"></path>
            </g>
        </g>
    </g>
</svg>