<?xml version="1.0" encoding="iso-8859-1"?>
<!-- Generator: Adobe Illustrator 19.0.0, SVG Export Plug-In . SVG Version: 6.00 Build 0)  -->
<svg version="1.1" id="Capa_1" xmlns="http://www.w3.org/2000/svg" xmlns:xlink="http://www.w3.org/1999/xlink" x="0px" y="0px"
	 viewBox="0 0 512 512" style="enable-background:new 0 0 512 512;" xml:space="preserve">
<g>
	<g transform="translate(1 1)">
		<g>
			<path style="fill:#CFD8DC;" d="M289.133,41.667v460.8H16.067c-4.707-0.014-8.519-3.826-8.533-8.533V41.667H289.133z"/>
			<path style="fill:#CFD8DC;" d="M502.467,58.733v435.2c-0.014,4.707-3.826,8.519-8.533,8.533H246.467V50.2h247.467L502.467,58.733
				z"/>
		</g>
		<path style="fill:#F5F5F5;" d="M476.867,58.733v435.2c-0.014,4.707-3.826,8.519-8.533,8.533H246.467V50.2h221.867L476.867,58.733z
			"/>
		<polygon style="fill:#FEC108;" points="400.067,331.8 331.8,331.8 306.2,297.667 374.467,297.667 		"/>
		<g>
			<polygon style="fill:#FFEB3A;" points="306.2,297.667 331.8,331.8 246.467,331.8 246.467,297.667 			"/>
			<polygon style="fill:#FFEB3A;" points="502.467,297.667 502.467,331.8 400.067,331.8 374.467,297.667 			"/>
			<polyline style="fill:#FFEB3A;" points="306.2,365.933 280.6,408.6 331.8,408.6 306.2,365.933 			"/>
		</g>
		<polygon style="fill:#FEC108;" points="400.067,92.867 331.8,92.867 306.2,58.733 374.467,58.733 		"/>
		<g>
			<polygon style="fill:#FFEB3A;" points="306.2,58.733 331.8,92.867 246.467,92.867 246.467,58.733 			"/>
			<polygon style="fill:#FFEB3A;" points="502.467,58.733 502.467,92.867 400.067,92.867 374.467,58.733 			"/>
		</g>
		<rect x="246.467" y="92.867" style="fill:#CFD8DC;" width="76.8" height="204.8"/>
		<path style="fill:#2296F3;" d="M50.2,101.4h153.6c4.713,0,8.533,3.82,8.533,8.533v102.4c0,4.713-3.821,8.533-8.533,8.533H50.2
			c-4.713,0-8.533-3.821-8.533-8.533v-102.4C41.667,105.221,45.487,101.4,50.2,101.4z"/>
		<polygon style="fill:#F4F4F4;" points="109.933,135.533 109.933,186.733 152.6,161.133 		"/>
		<g>
			<path style="fill:#E91E63;" d="M58.733,289.133H101.4c4.713,0,8.533,3.82,8.533,8.533V331.8c0,4.713-3.821,8.533-8.533,8.533
				H58.733c-4.713,0-8.533-3.82-8.533-8.533v-34.133C50.2,292.954,54.021,289.133,58.733,289.133z"/>
			<path style="fill:#E91E63;" d="M152.6,289.133h42.667c4.713,0,8.533,3.82,8.533,8.533V331.8c0,4.713-3.821,8.533-8.533,8.533
				H152.6c-4.713,0-8.533-3.82-8.533-8.533v-34.133C144.067,292.954,147.887,289.133,152.6,289.133z"/>
			<path style="fill:#E91E63;" d="M58.733,408.6H101.4c4.713,0,8.533,3.82,8.533,8.533v34.133c0,4.713-3.821,8.533-8.533,8.533
				H58.733c-4.713,0-8.533-3.82-8.533-8.533v-34.133C50.2,412.421,54.021,408.6,58.733,408.6z"/>
			<path style="fill:#E91E63;" d="M152.6,408.6h42.667c4.713,0,8.533,3.82,8.533,8.533v34.133c0,4.713-3.821,8.533-8.533,8.533
				H152.6c-4.713,0-8.533-3.82-8.533-8.533v-34.133C144.067,412.421,147.887,408.6,152.6,408.6z"/>
		</g>
		<path style="fill:#00838F;" d="M502.467,16.067v42.667H7.533V16.067c0.014-4.707,3.826-8.519,8.533-8.533h477.867
			C498.64,7.547,502.453,11.36,502.467,16.067z"/>
		<path style="fill:#00BCD4;" d="M476.867,16.067l0.002,42.667H7.531l0.002-42.667c-0.105-4.584,3.508-8.395,8.092-8.533h453.149
			C473.358,7.672,476.972,11.482,476.867,16.067z"/>
		<g>
			<rect x="476.867" y="297.667" style="fill:#FDD834;" width="25.6" height="34.133"/>
			<rect x="476.867" y="58.733" style="fill:#FDD834;" width="25.6" height="34.133"/>
		</g>
	</g>
	<g>
		<path d="M494.933,0H17.067C7.645,0.009,0.009,7.645,0,17.067v477.867c0.009,9.422,7.645,17.057,17.067,17.067h477.867
			c9.422-0.009,17.057-7.645,17.067-17.067V17.067C511.991,7.645,504.355,0.009,494.933,0z M494.941,324.268l-0.008-0.002h-89.601
			l-12.8-17.067h102.409V324.268z M337.066,324.267l-12.8-17.067h46.935l12.8,17.067H337.066z M302.934,68.267l12.8,17.067H256
			V68.267H302.934z M494.935,85.334l-0.002-0.001h-89.601l-12.8-17.067h102.403V85.334z M452.267,204.8v17.067
			c-4.713,0-8.533,3.82-8.533,8.533s3.82,8.533,8.533,8.533v51.2h-25.6v-17.067c4.713,0,8.533-3.82,8.533-8.533
			S431.38,256,426.667,256v-85.333h25.6v17.067c-4.713,0-8.533,3.821-8.533,8.533S447.554,204.8,452.267,204.8z M375.467,290.133
			v-17.067H409.6v17.067H375.467z M332.8,290.133V102.4h25.6v17.067h-8.533c-4.713,0-8.533,3.821-8.533,8.533
			c0,4.713,3.821,8.533,8.533,8.533h8.533V256c-4.713,0-8.533,3.821-8.533,8.533s3.82,8.533,8.533,8.533v17.067H332.8z M256,290.133
			V102.4h59.733v187.733H256z M409.6,102.4v17.067h-34.133V102.4H409.6z M401.067,170.667h8.533V256h-34.133V136.533H409.6V153.6
			h-8.533c-4.713,0-8.533,3.821-8.533,8.533C392.533,166.846,396.354,170.667,401.067,170.667z M426.667,153.6v-17.067h8.533
			c4.713,0,8.533-3.821,8.533-8.533c0-4.713-3.821-8.533-8.533-8.533h-8.533V102.4h25.6v51.2H426.667z M371.201,68.267l12.8,17.067
			h-46.935l-12.8-17.067H371.201z M256,307.2h46.934l12.8,17.067H256V307.2z M469.333,290.133v-51.2
			c4.713,0,8.533-3.821,8.533-8.533s-3.821-8.533-8.533-8.533V204.8c4.713,0,8.533-3.821,8.533-8.533s-3.821-8.533-8.533-8.533
			v-17.067c4.713,0,8.533-3.821,8.533-8.533c0-4.713-3.821-8.533-8.533-8.533v-51.201l25.6,0.001l0.002-0.001l0.005,187.734H469.333
			z M494.934,17.067V51.2H17.067V17.067H494.934z M17.067,68.267h221.867v426.667H17.067V68.267z M256,494.933V341.332
			l238.933,0.002l0.009-0.002l0.004,153.602H256z"/>
		<path d="M42.667,42.667h51.2c4.713,0,8.533-3.821,8.533-8.533S98.579,25.6,93.867,25.6h-51.2c-4.713,0-8.533,3.821-8.533,8.533
			S37.954,42.667,42.667,42.667z"/>
		<path d="M128,42.667h17.067c4.713,0,8.533-3.821,8.533-8.533s-3.821-8.533-8.533-8.533H128c-4.713,0-8.533,3.821-8.533,8.533
			S123.287,42.667,128,42.667z"/>
		<path d="M179.2,42.667h17.067c4.713,0,8.533-3.821,8.533-8.533s-3.821-8.533-8.533-8.533H179.2c-4.713,0-8.533,3.821-8.533,8.533
			S174.487,42.667,179.2,42.667z"/>
		<path d="M230.4,42.667h17.067c4.713,0,8.533-3.821,8.533-8.533s-3.82-8.533-8.533-8.533H230.4c-4.713,0-8.533,3.821-8.533,8.533
			S225.687,42.667,230.4,42.667z"/>
		<path d="M281.6,42.667h17.067c4.713,0,8.533-3.821,8.533-8.533s-3.82-8.533-8.533-8.533H281.6c-4.713,0-8.533,3.821-8.533,8.533
			S276.887,42.667,281.6,42.667z"/>
		<path d="M469.333,42.667h8.533c4.713,0,8.533-3.821,8.533-8.533s-3.82-8.533-8.533-8.533h-8.533c-4.713,0-8.533,3.821-8.533,8.533
			S464.621,42.667,469.333,42.667z"/>
		<path d="M204.8,93.867H51.2c-9.422,0.009-17.057,7.645-17.067,17.067v102.4c0.009,9.422,7.645,17.057,17.067,17.067h153.6
			c9.422-0.009,17.057-7.645,17.067-17.067v-102.4C221.857,101.512,214.222,93.876,204.8,93.867z M51.2,213.333v-102.4h153.6
			l0.012,102.4H51.2z"/>
		<path d="M157.992,154.817l-42.667-25.6c-2.636-1.582-5.92-1.623-8.595-0.109c-2.675,1.515-4.33,4.351-4.33,7.425v51.2
			c0,3.075,1.654,5.912,4.33,7.426s5.959,1.473,8.595-0.11l42.667-25.6c2.57-1.542,4.142-4.32,4.142-7.317
			C162.134,159.136,160.561,156.359,157.992,154.817z M119.467,172.663v-21.058l17.546,10.529L119.467,172.663z"/>
		<path d="M45.908,263.85c1.033-0.434,1.986-1.04,2.817-1.791c0.341-0.429,0.683-0.854,1.021-1.279
			c0.324-0.476,0.583-0.993,0.771-1.538c0.245-0.485,0.418-1.003,0.512-1.538c0.098-0.563,0.155-1.133,0.171-1.704
			c0.03-1.121-0.205-2.232-0.683-3.246c-0.434-1.032-1.04-1.983-1.791-2.813c-0.83-0.754-1.782-1.362-2.817-1.796
			c-1.557-0.679-3.287-0.857-4.95-0.508c-0.535,0.091-1.053,0.263-1.538,0.508c-0.543,0.188-1.058,0.448-1.533,0.771
			c-0.448,0.314-0.876,0.656-1.279,1.025c-0.754,0.828-1.362,1.78-1.796,2.813c-0.436,1.027-0.667,2.13-0.679,3.246
			c0.013,0.572,0.071,1.141,0.171,1.704c0.091,0.535,0.263,1.053,0.508,1.538c0.187,0.544,0.447,1.062,0.771,1.538
			c0.316,0.447,0.658,0.874,1.025,1.279c0.404,0.368,0.831,0.709,1.279,1.021c0.475,0.323,0.991,0.582,1.533,0.771
			c0.485,0.245,1.003,0.418,1.538,0.512c0.565,0.098,1.136,0.155,1.708,0.171C43.781,264.52,44.883,264.287,45.908,263.85z"/>
		<path d="M61.183,260.779c0.316,0.447,0.658,0.874,1.025,1.279c0.83,0.752,1.781,1.358,2.812,1.792
			c1.027,0.438,2.13,0.67,3.246,0.683c0.571-0.016,1.141-0.073,1.704-0.171c0.535-0.095,1.053-0.268,1.538-0.512
			c0.544-0.187,1.062-0.447,1.538-0.771c0.447-0.314,0.874-0.655,1.279-1.021c0.366-0.405,0.707-0.833,1.021-1.279
			c0.324-0.476,0.583-0.993,0.771-1.538c0.245-0.485,0.418-1.003,0.512-1.538c0.098-0.563,0.155-1.133,0.171-1.704
			c-0.013-1.116-0.245-2.219-0.683-3.246c-0.434-1.032-1.04-1.983-1.791-2.813c-0.405-0.367-0.833-0.709-1.279-1.025
			c-0.476-0.324-0.993-0.583-1.538-0.771c-0.484-0.245-1.003-0.417-1.538-0.508c-1.663-0.348-3.393-0.171-4.95,0.508
			c-2.139,0.784-3.824,2.469-4.608,4.608c-0.437,1.027-0.668,2.13-0.68,3.246c0.013,0.572,0.071,1.141,0.171,1.704
			c0.091,0.535,0.263,1.053,0.508,1.538C60.6,259.786,60.859,260.303,61.183,260.779z"/>
		<path d="M219.392,249.941c-0.405-0.367-0.833-0.709-1.279-1.025c-0.476-0.324-0.993-0.583-1.538-0.771
			c-0.484-0.246-1.002-0.417-1.538-0.508c-1.663-0.348-3.393-0.171-4.95,0.508c-2.139,0.784-3.824,2.469-4.608,4.608
			c-0.476,1.015-0.709,2.126-0.68,3.246c0.013,0.572,0.071,1.141,0.171,1.704c0.091,0.535,0.263,1.053,0.508,1.538
			c0.187,0.544,0.447,1.062,0.771,1.538c0.316,0.447,0.658,0.874,1.025,1.279c0.83,0.752,1.781,1.358,2.813,1.792
			c1.027,0.438,2.13,0.67,3.246,0.683c0.571-0.016,1.141-0.073,1.704-0.171c0.535-0.095,1.053-0.268,1.538-0.512
			c0.544-0.187,1.062-0.447,1.538-0.771c0.929-0.585,1.715-1.371,2.3-2.3c0.324-0.476,0.583-0.993,0.771-1.538
			c0.245-0.485,0.418-1.003,0.513-1.538c0.098-0.563,0.155-1.133,0.171-1.704c-0.013-1.116-0.245-2.219-0.683-3.246
			C220.749,251.722,220.144,250.771,219.392,249.941z"/>
		<path d="M179.2,264.533c4.713,0,8.533-3.821,8.533-8.533c0-4.713-3.82-8.533-8.533-8.533H93.867c-4.713,0-8.533,3.821-8.533,8.533
			c0,4.713,3.821,8.533,8.533,8.533H179.2z"/>
		<path d="M102.4,281.6H59.733c-9.422,0.009-17.057,7.645-17.067,17.067V332.8c0.009,9.422,7.645,17.057,17.067,17.067H102.4
			c9.422-0.009,17.057-7.645,17.067-17.067v-34.133C119.457,289.245,111.822,281.609,102.4,281.6z M59.733,332.8v-34.133H102.4
			l0.012,34.133H59.733z"/>
		<path d="M110.933,366.933H51.2c-4.713,0-8.533,3.821-8.533,8.533c0,4.713,3.821,8.533,8.533,8.533h59.733
			c4.713,0,8.533-3.821,8.533-8.533C119.467,370.754,115.646,366.933,110.933,366.933z"/>
		<path d="M196.267,281.6H153.6c-9.422,0.009-17.057,7.645-17.067,17.067V332.8c0.009,9.422,7.645,17.057,17.067,17.067h42.667
			c9.422-0.009,17.057-7.645,17.067-17.067v-34.133C213.324,289.245,205.688,281.609,196.267,281.6z M153.6,332.8v-34.133h42.667
			l0.012,34.133H153.6z"/>
		<path d="M204.8,366.933h-59.733c-4.713,0-8.533,3.821-8.533,8.533c0,4.713,3.821,8.533,8.533,8.533H204.8
			c4.713,0,8.533-3.821,8.533-8.533C213.333,370.754,209.513,366.933,204.8,366.933z"/>
		<path d="M102.4,401.067H59.733c-9.422,0.009-17.057,7.645-17.067,17.067v34.133c0.009,9.422,7.645,17.057,17.067,17.067H102.4
			c9.422-0.009,17.057-7.645,17.067-17.067v-34.133C119.457,408.712,111.822,401.076,102.4,401.067z M59.733,452.267v-34.133H102.4
			l0.012,34.133H59.733z"/>
		<path d="M196.267,401.067H153.6c-9.422,0.009-17.057,7.645-17.067,17.067v34.133c0.009,9.422,7.645,17.057,17.067,17.067h42.667
			c9.422-0.009,17.057-7.645,17.067-17.067v-34.133C213.324,408.712,205.688,401.076,196.267,401.067z M153.6,452.267v-34.133
			h42.667l0.012,34.133H153.6z"/>
		<path d="M281.6,136.533h8.533c4.713,0,8.533-3.821,8.533-8.533c0-4.713-3.821-8.533-8.533-8.533H281.6
			c-4.713,0-8.533,3.821-8.533,8.533C273.067,132.713,276.887,136.533,281.6,136.533z"/>
		<path d="M290.133,153.6H281.6c-4.713,0-8.533,3.821-8.533,8.533c0,4.713,3.82,8.533,8.533,8.533h8.533
			c4.713,0,8.533-3.821,8.533-8.533C298.667,157.421,294.846,153.6,290.133,153.6z"/>
		<path d="M290.133,187.733H281.6c-4.713,0-8.533,3.821-8.533,8.533s3.82,8.533,8.533,8.533h8.533c4.713,0,8.533-3.821,8.533-8.533
			S294.846,187.733,290.133,187.733z"/>
		<path d="M290.133,221.867H281.6c-4.713,0-8.533,3.82-8.533,8.533s3.82,8.533,8.533,8.533h8.533c4.713,0,8.533-3.821,8.533-8.533
			S294.846,221.867,290.133,221.867z"/>
		<path d="M290.133,256H281.6c-4.713,0-8.533,3.821-8.533,8.533s3.82,8.533,8.533,8.533h8.533c4.713,0,8.533-3.82,8.533-8.533
			S294.846,256,290.133,256z"/>
		<path d="M281.6,418.133h51.2c3.074,0,5.911-1.655,7.425-4.33c1.515-2.675,1.473-5.959-0.109-8.595l-25.6-42.667
			c-1.654-2.413-4.391-3.856-7.317-3.856s-5.663,1.443-7.317,3.856l-25.6,42.667c-1.582,2.636-1.623,5.92-0.109,8.595
			C275.689,416.479,278.526,418.133,281.6,418.133z M307.2,383.521l10.529,17.546h-21.058L307.2,383.521z"/>
		<path d="M358.4,384h8.533c4.713,0,8.533-3.821,8.533-8.533c0-4.713-3.82-8.533-8.533-8.533H358.4
			c-4.713,0-8.533,3.821-8.533,8.533C349.867,380.18,353.687,384,358.4,384z"/>
		<path d="M401.067,384h17.067c4.713,0,8.533-3.821,8.533-8.533c0-4.713-3.82-8.533-8.533-8.533h-17.067
			c-4.713,0-8.533,3.821-8.533,8.533C392.533,380.18,396.354,384,401.067,384z"/>
		<path d="M469.333,366.933h-17.067c-4.713,0-8.533,3.821-8.533,8.533c0,4.713,3.82,8.533,8.533,8.533h17.067
			c4.713,0,8.533-3.821,8.533-8.533C477.867,370.754,474.046,366.933,469.333,366.933z"/>
		<path d="M418.133,401.067h-42.667c-4.713,0-8.533,3.821-8.533,8.533c0,4.713,3.821,8.533,8.533,8.533h42.667
			c4.713,0,8.533-3.821,8.533-8.533C426.667,404.887,422.846,401.067,418.133,401.067z"/>
		<path d="M307.2,435.2h-25.6c-4.713,0-8.533,3.821-8.533,8.533c0,4.713,3.82,8.533,8.533,8.533h25.6
			c4.713,0,8.533-3.821,8.533-8.533C315.733,439.021,311.913,435.2,307.2,435.2z"/>
		<path d="M384,435.2h-42.667c-4.713,0-8.533,3.821-8.533,8.533c0,4.713,3.82,8.533,8.533,8.533H384
			c4.713,0,8.533-3.821,8.533-8.533C392.533,439.021,388.713,435.2,384,435.2z"/>
		<path d="M460.8,435.2h-42.667c-4.713,0-8.533,3.821-8.533,8.533c0,4.713,3.82,8.533,8.533,8.533H460.8
			c4.713,0,8.533-3.821,8.533-8.533C469.333,439.021,465.513,435.2,460.8,435.2z"/>
		<path d="M469.333,401.067h-17.067c-4.713,0-8.533,3.821-8.533,8.533c0,4.713,3.82,8.533,8.533,8.533h17.067
			c4.713,0,8.533-3.821,8.533-8.533C477.867,404.887,474.046,401.067,469.333,401.067z"/>
	</g>
</g>
<g>
</g>
<g>
</g>
<g>
</g>
<g>
</g>
<g>
</g>
<g>
</g>
<g>
</g>
<g>
</g>
<g>
</g>
<g>
</g>
<g>
</g>
<g>
</g>
<g>
</g>
<g>
</g>
<g>
</g>
</svg>
