<?xml version="1.0" encoding="utf-8"?>
<!-- Generator: Adobe Illustrator 21.1.0, SVG Export Plug-In . SVG Version: 6.00 Build 0)  -->
<svg version="1.1" id="Layer_1" xmlns="http://www.w3.org/2000/svg" xmlns:xlink="http://www.w3.org/1999/xlink" x="0px" y="0px"
	 viewBox="0 0 24 24" style="enable-background:new 0 0 24 24;" xml:space="preserve">
<title>run</title>
<desc>Created with Sketch.</desc>
<g id="Page-1">
	<g id="run">
		<g>
			<path id="Combined-Shape_1_" d="M6.7,21.6c-0.9,0-1.7-0.8-1.7-1.7V4.4c0-0.9,0.8-1.7,1.7-1.7c0.4,0,0.8,0.1,1.1,0.4l10.4,7.7
				c0.5,0.3,0.8,0.8,0.8,1.4c0,0.6-0.3,1.1-0.8,1.5L7.8,21.3C7.5,21.5,7.1,21.6,6.7,21.6z M6.7,3.9c-0.3,0-0.5,0.2-0.5,0.5v15.6
				c0,0.3,0.2,0.5,0.5,0.5c0.2,0,0.3-0.1,0.3-0.1l10.5-7.7c0.2-0.1,0.3-0.3,0.3-0.4c0-0.2-0.1-0.3-0.2-0.4L7.1,4
				C7,3.9,6.9,3.9,6.7,3.9z"/>
			<path d="M6.7,21.9c-1.1,0-2-0.9-2-2V4.4c0-1.1,0.9-2,2-2c0.5,0,0.9,0.2,1.3,0.5l10.4,7.7c0.5,0.3,0.9,1,0.9,1.6
				c0,0.7-0.3,1.3-0.9,1.7L7.9,21.5C7.6,21.7,7.2,21.9,6.7,21.9z M6.7,2.9c-0.8,0-1.5,0.7-1.5,1.5v15.6c0,0.8,0.7,1.5,1.5,1.5
				c0.3,0,0.7-0.1,0.9-0.3l10.4-7.7c0.4-0.3,0.7-0.7,0.7-1.2c0-0.5-0.2-1-0.6-1.2L7.7,3.2C7.4,3,7.1,2.9,6.7,2.9z M6.7,20.7
				c-0.4,0-0.8-0.3-0.8-0.8V4.4c0-0.4,0.3-0.8,0.8-0.8c0.2,0,0.4,0.1,0.5,0.2l10.5,7.7c0.2,0.1,0.3,0.4,0.3,0.6
				c0,0.3-0.1,0.5-0.4,0.7L7.2,20.5C7.1,20.6,7,20.7,6.7,20.7z M6.7,4.1c-0.1,0-0.3,0.1-0.3,0.3v15.6c0,0.1,0.1,0.3,0.3,0.3
				c0.1,0,0.1,0,0.2-0.1l10.5-7.7c0.1-0.1,0.2-0.2,0.2-0.2c0-0.1,0-0.2-0.1-0.2L6.9,4.2C6.8,4.1,6.8,4.1,6.7,4.1z"/>
		</g>
	</g>
</g>
</svg>
