<?xml version="1.0" encoding="utf-8"?>
<!-- Generator: Adobe Illustrator 21.1.0, SVG Export Plug-In . SVG Version: 6.00 Build 0)  -->
<svg version="1.1" id="Layer_1" xmlns="http://www.w3.org/2000/svg" xmlns:xlink="http://www.w3.org/1999/xlink" x="0px" y="0px"
	 viewBox="0 0 24 24" style="enable-background:new 0 0 24 24;" xml:space="preserve">
<title>stop</title>
<desc>Created with Sketch.</desc>
<g id="Page-1">
	<g id="stop">
		<path d="M18.2,21H5.8C4.3,21,3,19.7,3,18.2V5.8C3,4.3,4.3,3,5.8,3h12.4C19.7,3,21,4.3,21,5.8v12.4C21,19.7,19.7,21,18.2,21z
			 M5.8,4.6c-0.7,0-1.2,0.5-1.2,1.2v12.4c0,0.7,0.5,1.2,1.2,1.2h12.4c0.7,0,1.2-0.5,1.2-1.2V5.8c0-0.7-0.5-1.2-1.2-1.2H5.8z"/>
	</g>
</g>
</svg>
