<svg id="Layer_1" data-name="Layer 1" xmlns="http://www.w3.org/2000/svg" viewBox="0 0 131.33 105.02"><defs><style>.cls-1{fill:#333e47;}.cls-2{fill:#cd8104;}.cls-3{fill:#29d34d;}.cls-4{fill:#5aa104;}.cls-5{fill:#5aa103;}</style></defs><title>Untitled-1</title><path class="cls-1" d="M96.34,45c.67.49.7,1,.05,1.54a15.45,15.45,0,0,1-6.09-1,29.33,29.33,0,0,0-4.54-1.37,5.18,5.18,0,0,0-2.9,0A46.72,46.72,0,0,0,77.75,47a6,6,0,0,0-.85.71c1.17.28,2.5.23,3.24.87,1.34,1.17,2.77,1.09,4.26,1,3.1-.17,6,.41,8.32,2.58l-.16,1.38-1.64-.6-.28-.16h0a14.7,14.7,0,0,0-3.31-1.4c-1.72-.28-3.5-.13-5.25-.26a3.53,3.53,0,0,1-2-.63,3.71,3.71,0,0,0-4.1-.65c-.21.1-.55.14-.62.3a27.67,27.67,0,0,0-2,5.05C73,56.86,74.84,58.62,76.81,59c3,.55,6-.07,8.88-.75a4.12,4.12,0,0,1,1.3.13l-.35,1.35c-.27,0-.55.08-.82.15a24,24,0,0,1-8.86.82c-4.26-.56-6.39-4.36-4.57-8.19.44-.93.8-1.89,1.2-2.84.33-.67.62-1.36,1-2,1-1.6,2-3.16,3.05-4.74a22,22,0,0,0,4-8.44,37,37,0,0,0-5.36,2.37c-.43.23-.65.83-1,1.26-1.23,2.75-2.58,5.46-3.63,8.28a38.23,38.23,0,0,0-1.21,5.42,14.3,14.3,0,0,1-.59,2.92A4.17,4.17,0,0,0,70,58.19c1,2.36,2.16,4.69,3.24,7-.53,1.06-.83,1.09-1.88.17l-2.91-6.46a9,9,0,0,1,0-5.22c.77-2.65,1.13-5.42,1.66-8.14h0l.19-.27a3.85,3.85,0,0,0,.43-1.2c0-1.19-.08-2.39-.19-3.58-.3-3.15-1.95-5.81-3-9C66.56,35,65.72,38,65,41.13a32.46,32.46,0,0,0-.45,3.67l.18.29h0a40.53,40.53,0,0,1,.94,4.75c.26,3.19.33,6.41.48,9.61l-.89,6.34c-.76,1-1.08,1-1.73,0L64.44,59a23,23,0,0,1-5.76,5.72c-.26.08-.53.16-.78.25-.93.35-1.47.12-1.49-1a18,18,0,0,0,2.24-1.29C62.13,60,64.6,56.78,64,52a4.82,4.82,0,0,0-2.83-5.48c-1.7-.92-3.21-2.2-4.84-3.27a5.61,5.61,0,0,0-2.05-1,7.41,7.41,0,0,1-4.83-2.61,2.2,2.2,0,0,0-2.17-.87L35.28,40c-.84-.42-.91-1-.28-1.65l1.91-.18c3.66-.3,7.32-.6,11-.88a3.05,3.05,0,0,1,2.81,1.25,5.08,5.08,0,0,0,4.24,2,21.78,21.78,0,0,0-2.06-3.44c-1.57-1.77-3.14-3.69-5.66-4.13a11.92,11.92,0,0,0-3.57,0c-2.92.39-5.83.91-8.75,1.37-.94-.64-1-.89-.06-1.67,4.19-.46,8.27-1.82,12.67-1.39A7.83,7.83,0,0,0,42,26.82c-2-.42-4-.77-6-1.15-.67-1.06-.54-1.35.7-1.53l20.28,4.75c-.73-1.55-1.13-3.1-3.14-3.28a7.32,7.32,0,0,1-2-.77,22,22,0,0,0-3.08-1.28c-3.63-.9-7.29-1.7-10.63-3.48-.46-1.26-.28-1.49,1.13-1.45a12.64,12.64,0,0,0,1.88,1C45.06,20.93,49,22.19,53,23.47l.13.09-.1-.12c-1-1.09-2-2.14-2.88-3.27-2.25-2.76-5.41-3.91-8.64-4.94l-.24-1.3,1.4-.13c4.72,1.26,8.24,4.31,11.32,8l.33-.26L51.48,10.21,51.3,10l0,0L50.5,6.5c.15-1.55.54-1.73,2-1a22.3,22.3,0,0,0,2.66.34A3.84,3.84,0,0,1,58.07,7c.82.83,1.78,1.53,2.79,2.38.26-.75.44-1.32.65-1.87s.47-1.19.72-1.77l1.33-3.18c.73-1,1-1.08,1.75-.2-.35,1-.68,1.94-1,2.9C63.67,6.84,63,8.39,62.49,10a1.18,1.18,0,0,0,.14,1c1.05,1.33,2.16,2.62,3.26,3.94l.51-.92a48.68,48.68,0,0,0,4.69-11.2c.75-.64,1.36-.68,1.68.42a6.21,6.21,0,0,0-.54,1.2c-.81,3.68-2.67,6.9-4.31,10.24-1.06,2.17-1.86,4.47-2.78,6.71a2.71,2.71,0,0,0,.06.88c1.15,2.68,2.32,5.34,3.49,8l3.79,10.32c1.82-3.33,1.94-4.27.67-8.1a9.79,9.79,0,0,1-.32-5.06c.23-1.21.37-2.44.55-3.66l-.46-6.94a73.27,73.27,0,0,1,.55-7.35,45.09,45.09,0,0,1,1.82-5.92c.76-.67,1.28-.51,1.56.46-.72,2.52-1.6,5-2.1,7.57a22.3,22.3,0,0,0,.25,8,10.8,10.8,0,0,1,1.28-1.71c2-1.71,2.39-3.89,2.1-6.36a13.15,13.15,0,0,1,1.3-6.7A1,1,0,0,1,81,5.51a13.44,13.44,0,0,1-.44,1.6,12.19,12.19,0,0,0-.45,6.67l6.22-4.72c1-.23,1.36.21,1.21,1.17l-7.89,6.25A19.27,19.27,0,0,0,78,18.21c-1.44,1.94-3.07,3.8-3,6.45-.59,2.6-1.37,5.2-.2,7.6,1.37-.92,2.66-1.88,4-2.69a6.66,6.66,0,0,0,3-3l4.69-8.67,1-2,2-4c.85,0,1.24.39,1.1,1.25l-1.2,2.64q-2,4.05-4.07,8.1c-.28.56-.53,1.14-.79,1.71l-.08.16.16-.09c1.61-.41,3.21-.86,4.82-1.22,2.26-.51,4.55-.92,6-3,1.34.22,1.52.6.76,1.53-1.76,2.08-4.24,2.6-6.74,3.12-1.36.28-2.88,0-4,1.19-2.38,1.43-4.74,2.88-7.13,4.29a4.72,4.72,0,0,0-2.39,3c2.24-.66,4.5-1.38,6.79-2,1.81-.48,3.68-.72,5.46-1.27,3.12-1,6.19-2.06,9.29-3.1,1,.61,1,.88.2,1.68l-.68.21c-4,1.25-7.94,2.58-12,3.71a2.63,2.63,0,0,0-1.89,1.65c-1.2,2.55-2.49,5.05-3.73,7.58-.17.34-.28.7-.42,1.05l-.14.05s.05,0,.06,0a.42.42,0,0,0,.06-.08c1.83-1.16,3.64-2.36,5.51-3.46a22.14,22.14,0,0,1,4.41-2.25c3-1,6.13-1.62,9.21-2.41l.68,1-1.33.94c-3.08.8-6.18,1.51-9.22,2.44a17.65,17.65,0,0,0-3.32,1.89,31,31,0,0,1,5,1.43A16.14,16.14,0,0,0,96.34,45Zm-33.52.53a.33.33,0,0,0,0,.09s0,0,.07,0l-.12-.09a17.62,17.62,0,0,0-2.44-7.44c-.49-1.17-1.06-2.31-1.44-3.52a6.75,6.75,0,0,0-5.6-4.89l-5.13-1-.37-.13.2.3c1.19,1.59,2.15,3.45,3.62,4.7A16.34,16.34,0,0,1,55.91,39c.4.82.72,1.67,1.08,2.51A16.94,16.94,0,0,0,62.82,45.54ZM65.2,26.6h0c-.66-1.42-1-3.21-2.05-4.18a18.7,18.7,0,0,0-8-4.48c.65,3.57,1.09,7.25,3.37,10.33L63.07,40.4l.61-.06c.75-3.56,1.47-7.12,2.27-10.67a3.34,3.34,0,0,0-.53-2.81Zm-1.64-6.35c1.31-3,1.28-4-.3-6.16a8.29,8.29,0,0,0-1.11-1.25c-1.36-1.23-2.86-2.32-4.09-3.67-1.53-1.67-3.32-2-5.57-1.6.65,2.53,1.29,5.06,2,7.58.08.28.45.53.75.68C58,17.3,60.75,18.76,63.56,20.25Z"/><path class="cls-1" d="M36.61,45c3.17-.18,6.31-.41,9.4.86a16.83,16.83,0,0,0,8.38,1.4,6.61,6.61,0,0,1,7.25,4.08c.16,1.3.42,2.59.44,3.9.05,2.31-.88,3.43-3.08,4a3.83,3.83,0,0,0-1.46.45c-1.74,1.53-3.74,1.35-5.77,1-1.2-.22-2.39-.5-3.58-.75h0l-.52-.25c-.46-.22-.92-.46-1.4-.66s-1.51-.38-1.12-1.31,1.13-.39,1.75-.19c1.51.49,3,1.05,4.55,1.44,1.82.46,3.67.82,5.29-.72.36-.34,1-.35,1.57-.49a2.41,2.41,0,0,0,2.08-2.54c0-1.73.06-3.53-1.36-4.88a5.49,5.49,0,0,0-5.63-1.22c-1.36.52-2.8.84-4.21,1.25-1.62.16-3.25.28-4.87.51a3.76,3.76,0,0,0-2.69,1.6c-.23.32-.84.38-1.27.55l-.26-1.37c2.3-3.09,5.88-2.45,9.17-3.08-.87-.24-1.59-.41-2.31-.64a20.94,20.94,0,0,0-3.7-1.21c-2-.24-4-.15-6-.21C36.38,46.34,36.11,45.83,36.61,45Z"/><path class="cls-2" d="M90.65,52.75l.28.16Z"/><path class="cls-3" d="M51.48,10.21,51.3,10Z"/><path class="cls-4" d="M53,23.45l.1.12L53,23.47Z"/><path class="cls-5" d="M65.43,26.86l-.22-.26Z"/><path class="cls-4" d="M84.69,25.66l-.16.09.08-.16Z"/><path class="cls-1" d="M1.8,87.4V75.77H8.44v6.64H21.73v3.32H25V99H18.41V85.74h-10V99H1.8Z"/><path class="cls-1" d="M31.69,84.08V82.41H48.3v3.32h3.32V99H31.69V95.7H28.37V92.38h3.32V89.06H45V85.74H31.69ZM45,94V92.38H35V95.7H45Z"/><path class="cls-1" d="M58.26,84.08V82.41H74.87v3.32H61.58v3.32H74.87v3.32h3.32V95.7H74.87V99H54.94V95.7H71.55V92.38H58.26V89.06H54.94V85.74h3.32Z"/><path class="cls-1" d="M81.51,87.4V75.77h6.64v10H94.8V82.41h10v3.32h-3.32v3.32H98.12v3.32h3.32V95.7h3.32V99h-10V95.7H91.47V92.38H88.15V99H81.51Z"/><path class="cls-1" d="M111.4,84.08V82.41H128v3.32h3.32V99H111.4V95.7h-3.32V92.38h3.32V89.06h13.28V85.74H111.4Zm13.28,10V92.38h-10V95.7h10Z"/></svg>