<?xml version="1.0" encoding="UTF-8"?>
<svg width="100px" height="100px" viewBox="0 0 100 100" version="1.1" xmlns="http://www.w3.org/2000/svg" xmlns:xlink="http://www.w3.org/1999/xlink">
    <!-- Generator: Sketch 47.1 (45422) - http://www.bohemiancoding.com/sketch -->
    <title>admindashboard copy</title>
    <desc>Created with Sketch.</desc>
    <defs></defs>
    <g id="Page-1" stroke="none" stroke-width="1" fill="none" fill-rule="evenodd">
        <g id="admindashboard-copy">
            <g id="Page-1" transform="translate(1.000000, 0.000000)">
                <g id="Group-3" transform="translate(0.000000, 1.122121)" fill="#333E47">
                    <path d="M44.509697,28.4139394 C46.4975758,23.8048485 46.4566667,22.3593939 44.0551515,19.0745455 C43.559697,18.3957576 43.0006061,17.7412121 42.3778788,17.1775758 C40.3218182,15.3139394 38.0460606,13.6563636 36.1839394,11.6184848 C33.8672727,9.08363636 31.1612121,8.55181818 27.7475758,9.19272727 C28.7339394,13.0260606 29.6960606,16.8654545 30.7460606,20.6821212 C30.8627273,21.1033333 31.4324242,21.4790909 31.8763636,21.7184848 C36.0536364,23.9578788 40.2490909,26.1624242 44.509697,28.4139394 M47.0021212,38.0412121 L46.9945455,38.0487879 C45.9930303,35.8987879 45.5036364,33.1912121 43.8869697,31.7169697 C40.4748485,28.6033333 36.4793939,26.1260606 31.8051515,24.9366667 C32.7990909,30.3427273 33.4506061,35.9154545 36.9112121,40.5942424 C39.2006061,46.7154545 41.4884848,52.8366667 43.7763636,58.9578788 C44.0869697,58.9260606 44.3960606,58.8942424 44.7066667,58.8609091 C45.8445455,53.47 46.9384848,48.0684848 48.1475758,42.6912121 C48.5066667,41.089697 48.2430303,39.7336364 47.34,38.4351515 C47.2263636,38.3033333 47.1142424,38.1715152 47.0021212,38.0412121 M43.3930303,66.7412121 C43.4142424,66.789697 43.4263636,66.8457576 43.4612121,66.8821212 C43.4778788,66.900303 43.5339394,66.8851515 43.5718182,66.8851515 C43.5112121,66.8381818 43.4506061,66.7912121 43.39,66.7442424 C42.909697,62.7427273 41.8687879,58.9245455 39.7006061,55.4760606 C38.9627273,53.7033333 38.0975758,51.97 37.5157576,50.1472727 C36.1718182,45.9275758 33.3157576,43.550303 29.0339394,42.7427273 C26.4384848,42.2533333 23.8490909,41.7366667 21.2566667,41.2321212 C21.0718182,41.1669697 20.8869697,41.1018182 20.7036364,41.0351515 C20.8051515,41.1881818 20.9081818,41.3427273 21.0127273,41.4957576 C22.8127273,43.9063636 24.2687879,46.7230303 26.5036364,48.6230303 C29.2718182,50.9760606 31.3748485,53.6321212 32.9233333,56.8215152 C33.5248485,58.0609091 34.0187879,59.3533333 34.5612121,60.6230303 C36.9657576,63.4412121 40.1248485,65.17 43.3930303,66.7412121 M94.1793939,65.9457576 C95.1960606,66.6881818 95.2384848,67.4654545 94.2627273,68.2806061 C91.0915152,68.339697 88.0293939,67.9048485 85.04,66.7184848 C82.8187879,65.8381818 80.4945455,65.1563636 78.1581818,64.6472727 C76.7354545,64.3366667 75.0051515,64.0487879 73.7642424,64.5775758 C71.0566667,65.7275758 68.5657576,67.3912121 66.0081818,68.8821212 C65.49,69.1866667 65.070303,69.6578788 64.720303,69.9548485 C66.4854545,70.3836364 68.5157576,70.3018182 69.6263636,71.2730303 C71.6551515,73.0457576 73.8157576,72.9306061 76.0839394,72.8093939 C80.7854545,72.5563636 85.1051515,73.4351515 88.6975758,76.72 L88.4612121,78.8033333 C87.6339394,78.5018182 86.8081818,78.200303 85.9809091,77.8987879 C85.8369697,77.8184848 85.6930303,77.739697 85.5490909,77.6609091 L85.5763636,77.6775758 C83.9066667,76.939697 82.2975758,75.8336364 80.5551515,75.550303 C77.9521212,75.1260606 75.2490909,75.3563636 72.6006061,75.150303 C71.570303,75.07 70.3309091,74.8306061 69.6066667,74.1881818 C67.6718182,72.47 65.6475758,72.3806061 63.3960606,73.2063636 C63.070303,73.3548485 62.5551515,73.4184848 62.4506061,73.6609091 C61.359697,76.1881818 59.9551515,78.6669697 59.3975758,81.3184848 C58.8566667,83.8836364 61.6066667,86.5639394 64.5915152,87.1033333 C69.1793939,87.9336364 73.6142424,87.000303 78.0521212,85.9669697 C78.6627273,85.8245455 79.3672727,86.0881818 80.0278788,86.1654545 C79.8536364,86.8442424 79.6778788,87.5230303 79.5036364,88.2033333 C79.09,88.2775758 78.6733333,88.3290909 78.2672727,88.4290909 C73.8521212,89.5048485 69.420303,90.2639394 64.8384848,89.6654545 C58.3824242,88.8245455 55.1506061,83.0548485 57.9157576,77.250303 C58.5869697,75.8442424 59.1354545,74.3806061 59.74,72.9427273 C60.2445455,71.9336364 60.6748485,70.8790909 61.2687879,69.9245455 C62.7718182,67.5078788 64.3475758,65.1366667 65.8945455,62.7472727 C68.5733333,58.8593939 71.0142424,54.8593939 71.9384848,49.9593939 C69.0612121,50.9578788 66.3915152,52.1624242 63.8157576,53.5427273 C63.170303,53.8881818 62.8278788,54.800303 62.3475758,55.4518182 C60.4869697,59.6260606 58.4354545,63.7275758 56.84,67.9987879 C55.8672727,70.6033333 55.5960606,73.47 55.009697,76.2184848 C54.7293939,77.6987879 54.6854545,79.2790909 54.1112121,80.6351515 C53.3233333,82.4942424 53.5036364,84.2109091 54.2460606,85.8987879 C55.8187879,89.4775758 57.5127273,93.0018182 59.1551515,96.550303 C58.3581818,98.1624242 57.9036364,98.2033333 56.3142424,96.8063636 C54.8445455,93.5427273 53.3763636,90.2806061 51.9066667,87.0184848 C51.1490909,84.3866667 51.0521212,81.8730303 51.8612121,79.1093939 C53.0339394,75.0987879 53.570303,70.900303 54.3778788,66.7821212 L54.3430303,66.800303 L54.6384848,66.3987879 C54.8642424,65.7912121 55.2839394,65.1836364 55.2824242,64.5760606 C55.2778788,62.7669697 55.1642424,60.9533333 54.9945455,59.150303 C54.5445455,54.3821212 52.04,50.3533333 50.3915152,45.5563636 C49.0536364,50.7457576 47.7869697,55.3821212 46.6869697,60.0593939 C46.2627273,61.8669697 46.2218182,63.7654545 46.0051515,65.6215152 C46.0945455,65.7654545 46.1824242,65.9093939 46.2733333,66.0533333 L46.2430303,66.0412121 C46.7354545,68.4381818 47.470303,70.8154545 47.6687879,73.2366667 C48.0687879,78.0775758 48.1733333,82.9427273 48.3990909,87.7972727 C47.9490909,90.9987879 47.4990909,94.200303 47.0490909,97.4018182 C45.9021212,98.8578788 45.4081818,98.8487879 44.4218182,97.3563636 C44.8975758,93.9624242 45.3748485,90.5684848 45.8521212,87.1760606 C43.370303,90.5821212 40.5687879,93.5275758 37.1233333,95.8381818 C36.7263636,95.9654545 36.3248485,96.0760606 35.9369697,96.2230303 C34.5293939,96.7548485 33.7051515,96.3987879 33.6854545,94.7775758 C34.8218182,94.1321212 36.0581818,93.6139394 37.0763636,92.8169697 C42.3506061,88.6987879 46.0854545,83.7715152 45.1748485,76.5548485 C45.7839394,72.7306061 44.3384848,70.1063636 40.8809091,68.2487879 C38.2975758,66.8593939 36.0187879,64.9154545 33.5536364,63.2942424 C32.5869697,62.6593939 31.5339394,61.9260606 30.44,61.7609091 C27.4854545,61.3109091 24.9869697,60.0866667 23.1263636,57.8109091 C22.1869697,56.6609091 21.1915152,56.3563636 19.8415152,56.500303 C13.7839394,57.1442424 7.72333333,57.7639394 1.66272727,58.3912121 C0.388484848,57.750303 0.280909091,56.9139394 1.2430303,55.8972727 C2.20818182,55.8063636 3.17030303,55.7048485 4.13545455,55.6260606 C9.67787879,55.1760606 15.220303,54.7169697 20.7672727,54.2942424 C22.4960606,54.1624242 23.8657576,54.7366667 25.0218182,56.1836364 C26.4869697,58.0184848 28.4536364,59.1412121 31.4445455,59.1593939 C30.2915152,57.1866667 29.5627273,55.339697 28.3233333,53.9472727 C25.9415152,51.2715152 23.5657576,48.3533333 19.7551515,47.6881818 C18.0006061,47.3821212 16.1187879,47.4654545 14.34,47.7033333 C9.90818182,48.2972727 5.50212121,49.0790909 1.0869697,49.7866667 C-0.338787879,48.82 -0.352424242,48.4321212 0.993030303,47.2593939 C7.33545455,46.5654545 13.5157576,44.5063636 20.1930303,45.1487879 C18.3263636,41.4866667 15.6339394,39.1790909 11.7687879,38.3715152 C8.75363636,37.7412121 5.71878788,37.2033333 2.6930303,36.6230303 C1.67030303,35.0184848 1.87333333,34.5730303 3.74757576,34.3048485 C13.8975758,36.6821212 24.0475758,39.0578788 34.4733333,41.500303 C33.3718182,39.1533333 32.7566667,36.8033333 29.709697,36.5275758 C28.6809091,36.4351515 27.6975758,35.7821212 26.7021212,35.3639394 C25.1460606,34.7139394 23.6521212,33.8260606 22.0369697,33.4275758 C16.5324242,32.0684848 10.9945455,30.8563636 5.93545455,28.1533333 C5.24151515,26.250303 5.51575758,25.8972727 7.65060606,25.9533333 C8.59757576,26.4639394 9.49454545,27.1230303 10.5006061,27.4593939 C16.4763636,29.450303 22.4763636,31.3654545 28.4672727,33.3063636 C28.5339394,33.3518182 28.5990909,33.3987879 28.6642424,33.4442424 C28.6127273,33.3851515 28.5612121,33.3245455 28.5081818,33.2639394 C27.0490909,31.6184848 25.5293939,30.02 24.1415152,28.3154545 C20.7309091,24.1275758 15.9506061,22.3881818 11.0521212,20.8351515 L10.6930303,18.8654545 C11.4021212,18.800303 12.1112121,18.7351515 12.8187879,18.6684848 C19.9778788,20.5851515 25.3112121,25.1927273 29.9778788,30.7821212 C30.1445455,30.6518182 30.309697,30.52 30.4763636,30.3881818 C29.0566667,24.6593939 27.6354545,18.9321212 26.2142424,13.2033333 C26.1218182,13.1018182 26.0278788,13.000303 25.9339394,12.900303 L25.9642424,12.9275758 C25.5506061,11.1457576 25.1384848,9.36545455 24.7248485,7.58363636 C24.9551515,5.24272727 25.5369697,4.96393939 27.7657576,6.13212121 C29.1081818,6.31393939 30.4506061,6.62454545 31.7960606,6.64121212 C33.5248485,6.66242424 34.9369697,7.11090909 36.1884848,8.38060606 C37.4354545,9.64424242 38.89,10.7033333 40.4172727,11.989697 C40.8112121,10.8472727 41.0854545,9.99424242 41.4006061,9.15787879 C41.7415152,8.25333333 42.1142424,7.36090909 42.4854545,6.47 C43.1536364,4.85939394 43.8309091,3.25333333 44.5036364,1.64575758 C45.6157576,0.0563636364 46.020303,0.00939393939 47.159697,1.33515152 C46.6309091,2.80181818 46.1218182,4.27606061 45.5733333,5.73515152 C44.6839394,8.10030303 43.7354545,10.4442424 42.8960606,12.8245455 C42.7490909,13.2427273 42.8445455,13.9381818 43.1142424,14.2790909 C44.7081818,16.2987879 46.3854545,18.2518182 48.0536364,20.2487879 C48.2551515,19.8806061 48.5339394,19.3669697 48.8187879,18.8563636 C51.8248485,13.4669697 54.3384848,7.8730303 55.9278788,1.88969697 C57.0687879,0.918484848 57.9809091,0.865454545 58.4733333,2.51848485 C58.1945455,3.12151515 57.7930303,3.69878788 57.6521212,4.33212121 C56.4278788,9.90787879 53.6066667,14.7912121 51.1293939,19.8412121 C49.5172727,23.1290909 48.309697,26.6139394 46.9218182,30.0109091 C46.9445455,30.4578788 46.8445455,30.9578788 47.009697,31.3442424 C48.7460606,35.4018182 50.5263636,39.4412121 52.2945455,43.4851515 C54.2415152,48.7942424 56.1884848,54.1048485 58.0309091,59.1275758 C60.7930303,54.0806061 60.9778788,52.6609091 59.0445455,46.8593939 C58.1975758,44.3154545 58.0566667,41.800303 58.5581818,39.1881818 C58.909697,37.3548485 59.1172727,35.4957576 59.3884848,33.6472727 C59.1566667,30.1427273 58.9263636,26.6381818 58.6945455,23.1336364 C58.9460606,19.4139394 58.9127273,15.6472727 59.5354545,11.9912121 C60.0551515,8.93515152 61.3430303,6.00939394 62.29,3.02606061 C63.4475758,2.01242424 64.2354545,2.25030303 64.6551515,3.72606061 C63.5687879,7.54575758 62.2263636,11.3154545 61.4672727,15.200303 C60.709697,19.0851515 61.1218182,23.0578788 61.84,27.3260606 C62.6324242,26.2487879 63.0809091,25.3427273 63.7869697,24.7351515 C66.8021212,22.1412121 67.4142424,18.8381818 66.9642424,15.1033333 C66.5339394,11.5306061 67.5763636,8.20333333 68.9354545,4.95787879 C69.9506061,4.71848485 70.6354545,5.07757576 70.9642424,6.08060606 C70.7460606,6.88969697 70.6112121,7.73363636 70.2960606,8.50333333 C68.9536364,11.7927273 69.0763636,15.1442424 69.6157576,18.6124242 C72.8430303,16.1654545 75.94,13.8154545 79.0354545,11.4669697 C80.5627273,11.1109091 81.0945455,11.7836364 80.8687879,13.239697 C76.8854545,16.3972727 72.9021212,19.5548485 68.9187879,22.7124242 C68.0945455,23.5790909 67.170303,24.37 66.4642424,25.3230303 C64.2884848,28.2609091 61.8172727,31.0881818 61.9324242,35.0957576 C61.0369697,39.0366667 59.8581818,42.9775758 61.6293939,46.6078788 C63.7081818,45.2063636 65.6581818,43.7563636 67.7384848,42.5290909 C69.6566667,41.3987879 71.3157576,40.1033333 72.24,38.0230303 C74.6081818,33.6427273 76.9778788,29.2624242 79.3475758,24.8821212 C79.8627273,23.8654545 80.3824242,22.8487879 80.8945455,21.8290909 C81.9127273,19.7972727 82.9248485,17.7654545 83.94,15.7321212 C85.2233333,15.7260606 85.8127273,16.3275758 85.6066667,17.6306061 C85.0006061,18.9624242 84.3945455,20.2957576 83.7884848,21.6275758 C81.7309091,25.72 79.6687879,29.8078788 77.620303,33.9048485 C77.1945455,34.7578788 76.8172727,35.6351515 76.4187879,36.5018182 C76.3763636,36.5851515 76.3339394,36.6669697 76.2915152,36.7487879 C76.3718182,36.7048485 76.4536364,36.6593939 76.5324242,36.6154545 C78.9687879,35.9942424 81.3915152,35.3169697 83.8430303,34.7669697 C87.2687879,34.000303 90.74,33.3775758 92.9990909,30.2639394 C95.0233333,30.6018182 95.3066667,31.1715152 94.1551515,32.5821212 C91.4824242,35.7351515 87.7248485,36.52 83.9475758,37.3048485 C81.8915152,37.7306061 79.5824242,37.3533333 77.9187879,39.1063636 C74.3187879,41.2790909 70.7339394,43.4775758 67.1112121,45.6124242 C65.1975758,46.7381818 63.9172727,48.2669697 63.4915152,50.1639394 C66.89,49.1624242 70.3112121,48.0790909 73.7733333,47.1548485 C76.509697,46.4245455 79.3475758,46.0578788 82.0506061,45.2306061 C86.7778788,43.7821212 91.4354545,42.1063636 96.1218182,40.5260606 C97.6430303,41.4548485 97.6915152,41.8518182 96.4309091,43.0639394 L95.4036364,43.3881818 C89.3718182,45.2866667 83.3733333,47.300303 77.2884848,49.0018182 C75.7157576,49.4412121 75.0506061,50.189697 74.4293939,51.5033333 C72.6081818,55.3624242 70.6627273,59.1609091 68.7793939,62.989697 C68.5278788,63.5018182 68.3506061,64.050303 68.1384848,64.5821212 C68.070303,64.6093939 68.0006061,64.6381818 67.9309091,64.6654545 C67.9642424,64.6684848 68.009697,64.6881818 68.0263636,64.6730303 C68.0627273,64.6412121 68.0854545,64.5912121 68.1142424,64.5487879 C70.8930303,62.7912121 73.6324242,60.9669697 76.4642424,59.300303 C78.620303,58.0321212 80.7869697,56.6230303 83.14,55.8836364 C87.720303,54.4442424 92.4339394,53.4290909 97.0945455,52.239697 C97.4384848,52.72 97.7824242,53.2018182 98.1278788,53.6821212 C97.4551515,54.1548485 96.7839394,54.6275758 96.1127273,55.100303 C91.4475758,56.3109091 86.7445455,57.3927273 82.14,58.7972727 C80.4187879,59.3215152 78.9248485,60.5942424 77.1066667,61.6533333 C80.0066667,62.4442424 82.5384848,62.7684848 84.7233333,63.8169697 C87.7687879,65.2806061 90.9112121,65.7563636 94.1793939,65.9457576" id="Fill-1"></path>
                </g>
                <path d="M1.66227273,59.5136364 C7.72287879,58.8848485 13.7834848,58.2666667 19.8425758,57.6212121 C21.1925758,57.4787879 22.1865152,57.7833333 23.1274242,58.9333333 C24.9865152,61.2090909 27.485,62.4333333 30.4410606,62.8833333 C31.5334848,63.0484848 32.5880303,63.780303 33.5531818,64.4166667 C36.0183333,66.0378788 38.2986364,67.9818182 40.8819697,69.369697 C44.3380303,71.2287879 45.785,73.8530303 45.1743939,77.6772727 C43.9834848,77.3181818 42.7910606,76.9606061 41.5986364,76.6 C39.6622727,72.1772727 35.7728788,69.8348485 30.6183333,70.419697 C26.1334848,70.9287879 21.9289394,69.9469697 17.9168182,68.3 C13.2365152,66.380303 8.48045455,66.7318182 3.67136364,66.9984848 C2.51833333,64.6333333 1.22136364,62.3060606 1.66227273,59.5136364" id="Fill-4" fill="#B3DFFF"></path>
                <path d="M3.67075758,66.9990909 C8.47984848,66.7324242 13.2359091,66.3809091 17.9162121,68.3006061 C21.9298485,69.9475758 26.1328788,70.9278788 30.6192424,70.4187879 C35.7722727,69.8354545 39.6616667,72.1778788 41.5980303,76.6006061 C41.8328788,78.5672727 42.2268182,80.5324242 42.2707576,82.5036364 C42.3465152,85.9960606 40.9434848,87.7066667 37.5980303,88.6339394 C36.8465152,88.8430303 35.9131818,88.8566667 35.3828788,89.3233333 C32.7404545,91.6430303 29.7237879,91.3612121 26.645,90.7930303 C24.8283333,90.4566667 23.025303,90.0415152 21.2177273,89.6627273 L21.2237879,89.6687879 C20.964697,89.5430303 20.7040909,89.4157576 20.4434848,89.2884848 C19.7374242,88.9536364 19.045,88.5930303 18.3268182,88.29 C17.4056061,87.9021212 16.0374242,87.7218182 16.6222727,86.3051515 C17.1874242,84.9384848 18.3389394,85.7157576 19.2813636,86.0172727 C21.575303,86.7551515 23.8404545,87.6112121 26.1737879,88.1930303 C28.9359091,88.8824242 31.7313636,89.4339394 34.1843939,87.1066667 C34.725303,86.5915152 35.7540909,86.5793939 36.5662121,86.3627273 C38.6480303,85.8081818 39.7192424,84.659697 39.7207576,82.5112121 C39.7222727,79.8839394 39.8192424,77.1687879 37.6677273,75.1127273 C35.3662121,72.8809091 31.8859091,72.2293939 29.1374242,73.2718182 C27.0692424,74.0551515 24.8919697,74.5490909 22.7631818,75.1733333 C20.3025758,75.420303 17.8313636,75.5930303 15.3859091,75.94 C13.7404545,76.1733333 12.3343939,76.9006061 11.3101515,78.3672727 C10.9677273,78.8551515 10.0434848,78.9354545 9.38590909,79.2036364 C9.25409091,78.5142424 9.12075758,77.8233333 8.98742424,77.1309091 C12.4722727,72.4506061 17.895,73.4248485 22.8813636,72.4642424 C21.5692424,72.1036364 20.4631818,71.8415152 19.3874242,71.4930303 C17.5116667,70.8854545 15.695,69.8960606 13.7813636,69.659697 C10.8071212,69.2945455 7.77227273,69.4278788 4.76318182,69.3490909 C3.32227273,69.0657576 2.91772727,68.3006061 3.67075758,66.9990909" id="Fill-6" fill="#333E47"></path>
                <path d="M97.0937879,53.3612121 C92.434697,54.5521212 87.7195455,55.5657576 83.1392424,57.0051515 C80.7862121,57.7460606 78.6210606,59.1536364 76.465,60.4218182 C73.6316667,62.0884848 70.8937879,63.9142424 68.1134848,65.6718182 L68.1392424,65.7036364 C68.3498485,65.1718182 68.5271212,64.6233333 68.7786364,64.1112121 C70.6634848,60.2824242 72.6074242,56.4839394 74.4286364,52.6263636 C75.0498485,51.3112121 75.715,50.5642424 77.2877273,50.1248485 C83.3740909,48.4233333 89.3725758,46.4081818 95.4028788,44.5112121 L96.4301515,44.1869697 C96.6513636,47.2445455 96.8725758,50.3021212 97.0937879,53.3612121" id="Fill-8" fill="#73C3FF"></path>
                <path d="M88.6968182,77.8419697 C85.1059091,74.5571212 80.7862121,73.6783333 76.0831818,73.9313636 C73.815,74.0540909 71.6543939,74.1677273 69.6256061,72.395 C68.515,71.425303 66.4862121,71.5056061 64.7210606,71.0768182 C65.0695455,70.7798485 65.4907576,70.3086364 66.0089394,70.0056061 C68.565,68.5131818 71.0574242,66.8510606 73.7634848,65.6995455 C75.0043939,65.1707576 76.734697,65.4586364 78.1574242,65.7692424 C80.4937879,66.2798485 82.8195455,66.9601515 85.0407576,67.8404545 C88.0301515,69.0268182 91.0907576,69.4616667 94.2619697,69.4025758 C93.9634848,70.045 93.7316667,70.7298485 93.3528788,71.3207576 C92.5983333,72.5010606 91.7740909,73.6374242 90.9589394,74.7768182 C90.2195455,75.8086364 89.4513636,76.8207576 88.6968182,77.8419697" id="Fill-10" fill="#B3DFFF"></path>
                <path d="M1.08666667,50.9087879 C5.50333333,50.2012121 9.90787879,49.4193939 14.339697,48.8254545 C16.1184848,48.5875758 18.000303,48.5042424 19.7548485,48.810303 C23.5654545,49.4754545 25.9412121,52.3936364 28.3230303,55.0693939 C29.5624242,56.4618182 30.2912121,58.3087879 31.4442424,60.2830303 C28.4533333,60.2633333 26.4866667,59.1406061 25.0215152,57.3057576 C23.8654545,55.8587879 22.4957576,55.2845455 20.7669697,55.4163636 C15.2215152,55.8390909 9.67757576,56.2981818 4.13515152,56.7481818 C3.17,56.8269697 2.20787879,56.9284848 1.24424242,57.0193939 C1.19121212,54.9830303 1.13969697,52.9451515 1.08666667,50.9087879" id="Fill-12" fill="#73C3FF"></path>
                <path d="M96.1216667,41.6477273 C91.435303,43.2280303 86.7777273,44.9037879 82.0504545,46.3522727 C79.3474242,47.1795455 76.5095455,47.5477273 73.7731818,48.2765152 C70.3110606,49.2022727 66.8913636,50.2840909 63.4913636,51.2871212 C63.9171212,49.3886364 65.1974242,47.8613636 67.1110606,46.7340909 C70.7337879,44.6007576 74.3186364,42.4007576 77.9186364,40.2280303 C79.4474242,39.9583333 80.9701515,39.6386364 82.5065152,39.4310606 C84.0337879,39.2219697 85.5777273,39.0356061 87.1171212,39.0022727 C90.0307576,38.9401515 92.8959091,39.1734848 95.2762121,41.1886364 C95.4262121,41.3159091 95.7443939,41.244697 95.985303,41.2674242 C96.0307576,41.394697 96.0762121,41.5204545 96.1216667,41.6477273" id="Fill-14" fill="#73C3FF"></path>
                <path d="M46.9221212,31.1333333 C48.31,27.7363636 49.5160606,24.2515152 51.1281818,20.9636364 C53.6069697,15.9136364 56.4281818,11.0287879 57.6524242,5.45454545 C57.7918182,4.81969697 58.1933333,4.24393939 58.4736364,3.64090909 C59.7448485,3.80909091 61.0190909,3.97878788 62.290303,4.1469697 C61.3433333,7.13181818 60.0554545,10.0575758 59.5357576,13.1121212 C58.9130303,16.769697 58.9463636,20.5363636 58.6948485,24.2545455 C56.4054545,23.0575758 55.9660606,23.2212121 54.9857576,25.6378788 C53.1236364,30.2318182 51.6887879,31.2090909 46.9221212,31.1333333" id="Fill-16" fill="#0B8FFF"></path>
                <path d="M59.7395455,74.0643939 C59.135,75.5022727 58.5865152,76.9674242 57.915303,78.3734848 C55.1501515,84.1780303 58.3819697,89.9462121 64.8380303,90.7886364 C69.4198485,91.3856061 73.8516667,90.6265152 78.2683333,89.5507576 C78.6728788,89.4522727 79.0895455,89.3992424 79.5031818,89.325 C77.6759091,90.3325758 75.9304545,91.544697 74.004697,92.3098485 C69.115303,94.255303 64.5016667,96.9916667 59.154697,97.6719697 C57.5122727,94.125 55.8183333,90.5992424 54.2456061,87.0219697 C53.5031818,85.3325758 53.3243939,83.6159091 54.1107576,81.7583333 C54.6865152,80.4022727 54.7289394,78.8204545 55.0092424,77.3401515 C56.5865152,76.2477273 58.1622727,75.1568182 59.7395455,74.0643939" id="Fill-18" fill="#D2EEFF"></path>
                <path d="M5.93469697,29.275 C10.9937879,31.9795455 16.5331818,33.1901515 22.0377273,34.5492424 C23.6528788,34.9477273 25.1468182,35.8371212 26.7013636,36.4871212 C27.6968182,36.9037879 28.6801515,37.5568182 29.7104545,37.6492424 C32.7559091,37.925 33.3710606,40.275 34.4740909,42.6219697 C24.0483333,40.1810606 13.8968182,37.8037879 3.74833333,35.4265152 C4.47712121,33.3765152 5.20590909,31.3265152 5.93469697,29.275" id="Fill-20" fill="#36A9FF"></path>
                <path d="M55.9272727,3.01212121 C54.3393939,8.99545455 51.8242424,14.5893939 48.819697,19.9787879 C48.5348485,20.4893939 48.2560606,21.0030303 48.0530303,21.3712121 C46.3863636,19.3742424 44.7075758,17.4212121 43.1136364,15.4015152 C42.8439394,15.0606061 42.7484848,14.3651515 42.8954545,13.9469697 C43.7363636,11.5666667 44.6833333,9.22272727 45.5727273,6.85757576 C46.1212121,5.39848485 46.6318182,3.92424242 47.1590909,2.45757576 C50.0833333,2.64242424 53.0045455,2.82727273 55.9272727,3.01212121" id="Fill-22" fill="#0B8FFF"></path>
                <path d="M26.214697,14.3254545 C27.6359091,20.0542424 29.0556061,25.7830303 30.4768182,31.510303 C30.3101515,31.6421212 30.1434848,31.7739394 29.9768182,31.9057576 C25.3101515,26.3148485 19.9768182,21.7072727 12.8192424,19.7906061 C14.6389394,18.2315152 16.4586364,16.6709091 18.2783333,15.1118182 L18.6025758,14.6739394 L18.5465152,14.710303 C19.0692424,14.4224242 19.6025758,14.1542424 20.1101515,13.8421212 C22.1116667,12.6133333 24.0662121,12.4860606 25.964697,14.049697 L25.9343939,14.0224242 C26.0283333,14.1224242 26.1207576,14.2239394 26.214697,14.3254545" id="Fill-24" fill="#36A9FF"></path>
                <path d="M2.69272727,37.7459091 C5.71848485,38.324697 8.75333333,38.8625758 11.7684848,39.4928788 C15.6336364,40.3019697 18.3260606,42.6095455 20.1927273,46.2701515 C13.5169697,45.6292424 7.33515152,47.6883333 0.992727273,48.3822727 C1.00939394,47.2216667 0.866969697,46.0307576 1.07454545,44.905 C1.5169697,42.5004545 2.14272727,40.1307576 2.69272727,37.7459091" id="Fill-26" fill="#73C3FF"></path>
                <path d="M92.999697,31.3863636 C90.7390909,34.5 87.2678788,35.1212121 83.8436364,35.8893939 C81.3921212,36.4378788 78.9693939,37.1166667 76.5330303,37.7378788 L76.4178788,37.6242424 C76.8178788,36.7575758 77.1936364,35.880303 77.6209091,35.0272727 C79.6693939,30.930303 81.7315152,26.8409091 83.7875758,22.7484848 C84.5557576,23.1272727 85.3572727,23.4515152 86.0860606,23.8954545 C87.0345455,24.4727273 87.9269697,25.1439394 88.8436364,25.7757576 C90.2284848,27.6454545 91.6133333,29.5166667 92.999697,31.3863636" id="Fill-28" fill="#36A9FF"></path>
                <path d="M94.179697,67.0671212 C90.9115152,66.8792424 87.7690909,66.4019697 84.7236364,64.9398485 C82.5387879,63.8898485 80.0069697,63.5656061 77.1069697,62.7762121 C78.9251515,61.7156061 80.4190909,60.4428788 82.140303,59.9186364 C86.7448485,58.5156061 91.4478788,57.4337879 96.1115152,56.2231818 C95.4675758,59.8383333 94.8236364,63.4519697 94.179697,67.0671212" id="Fill-30" fill="#73C3FF"></path>
                <path d="M68.9348485,6.07939394 C67.5757576,9.32636364 66.5348485,12.6521212 66.9651515,16.2263636 C67.4151515,19.959697 66.8030303,23.2627273 63.7863636,25.8566667 C63.080303,26.4642424 62.6318182,27.3718182 61.8393939,28.4475758 C61.1227273,24.1793939 60.7106061,20.2081818 61.4681818,16.3218182 C62.2257576,12.4369697 63.5681818,8.66727273 64.6560606,4.84757576 L68.9348485,6.07939394 Z" id="Fill-32" fill="#0B8FFF"></path>
                <path d="M21.2171212,89.6627273 C23.0262121,90.0415152 24.8277273,90.4566667 26.6443939,90.7930303 C29.7231818,91.3612121 32.7398485,91.6430303 35.3822727,89.3233333 C35.9140909,88.8566667 36.8459091,88.8415152 37.5989394,88.6339394 C40.9428788,87.7066667 42.3459091,85.9960606 42.2701515,82.5036364 C42.2277273,80.5324242 41.8337879,78.5672727 41.5989394,76.6006061 C42.7898485,76.959697 43.9822727,77.3187879 45.174697,77.6778788 C46.085303,84.8945455 42.3504545,89.820303 37.0762121,93.94 C36.0580303,94.7354545 34.8216667,95.2536364 33.685303,95.8990909 C30.0140909,94.24 26.3322727,92.5990909 22.6822727,90.8960606 C22.1231818,90.6354545 21.7019697,90.0809091 21.2171212,89.6627273" id="Fill-34" fill="#D2EEFF"></path>
                <path d="M11.0519697,21.9566667 C15.9504545,23.509697 20.7307576,25.2490909 24.1413636,29.4369697 C25.5292424,31.1415152 27.0489394,32.74 28.5080303,34.3869697 L28.4671212,34.4278788 C22.4762121,32.4869697 16.4762121,30.5718182 10.5004545,28.5809091 C9.49439394,28.2460606 8.59742424,27.5854545 7.65045455,27.0763636 C8.3580303,25.0869697 9.06712121,23.0975758 11.0519697,21.9566667" id="Fill-36" fill="#36A9FF"></path>
                <path d="M68.9192424,23.835 C72.9025758,20.6774242 76.8843939,17.5198485 80.8677273,14.3622727 C81.8919697,15.1925758 82.914697,16.0228788 83.9389394,16.854697 C82.925303,18.8865152 81.9116667,20.9198485 80.8934848,22.9516667 C80.3828788,23.9713636 79.8631818,24.9865152 79.3465152,26.004697 C78.2359091,25.8228788 76.9207576,25.9562121 76.0525758,25.3986364 C73.8162121,23.9607576 71.5495455,23.215303 68.9192424,23.835" id="Fill-38" fill="#0B8FFF"></path>
                <path d="M44.5037879,2.76787879 C43.8310606,4.37545455 43.1537879,5.98151515 42.4856061,7.59212121 C42.1143939,8.4830303 41.7416667,9.37545455 41.4007576,10.28 C41.0856061,11.1163636 40.8113636,11.9693939 40.4174242,13.1118182 C38.8886364,11.8254545 37.4340909,10.7663636 36.1886364,9.50272727 C34.9371212,8.2330303 33.525,7.78454545 31.7962121,7.76333333 C30.4507576,7.74666667 29.1083333,7.43606061 27.7659091,7.25424242 C32.8234848,3.81484848 38.8280303,3.90424242 44.5037879,2.76787879" id="Fill-40" fill="#0B8FFF"></path>
                <path d="M63.3957576,74.3292424 C65.6472727,73.5034848 67.6715152,73.5913636 69.6078788,75.3110606 C70.3306061,75.9534848 71.57,76.1913636 72.600303,76.2731818 C75.2487879,76.4792424 77.9518182,76.2489394 80.5548485,76.6716667 C82.2972727,76.9565152 83.9078788,78.0610606 85.5760606,78.7989394 C82.0260606,77.8898485 78.9730303,79.074697 75.9684848,80.8731818 C73.7669697,82.1913636 71.9230303,81.8883333 69.989697,80.1080303 C68.7457576,78.9640909 67.7351515,77.5656061 66.4836364,76.4322727 C65.57,75.6034848 64.4336364,75.0216667 63.3957576,74.3292424" id="Fill-42" fill="#B3DFFF"></path>
                <path d="M79.0356061,12.5890909 C75.9401515,14.9375758 72.8431818,17.2875758 69.6159091,19.7345455 C69.0765152,16.2663636 68.9537879,12.9148485 70.2962121,9.62545455 C70.6098485,8.85575758 70.7462121,8.01181818 70.9643939,7.20272727 C73.655303,8.99818182 76.344697,10.7936364 79.0356061,12.5890909" id="Fill-44" fill="#0B8FFF"></path>
                <path d="M4.76272727,69.3487879 C7.77181818,69.4275758 10.8066667,69.2942424 13.7809091,69.6609091 C15.6945455,69.8957576 17.5127273,70.8851515 19.3869697,71.4927273 C20.4642424,71.8427273 21.570303,72.1033333 22.8809091,72.4639394 C17.8945455,73.4245455 12.4718182,72.450303 8.9869697,77.1321212 C7.57939394,74.5381818 6.17030303,71.9427273 4.76272727,69.3487879" id="Fill-46" fill="#B3DFFF"></path>
                <path d="M47.0493939,98.5236364 C47.4993939,95.3221212 47.9493939,92.1206061 48.3993939,88.9206061 C49.5690909,88.66 50.7387879,88.3993939 51.9084848,88.140303 C53.3766667,91.4024242 54.8448485,94.6660606 56.3145455,97.9281818 C53.2266667,98.1266667 50.1372727,98.3251515 47.0493939,98.5236364" id="Fill-48" fill="#D2EEFF"></path>
                <path d="M22.7633333,75.1725758 C24.8921212,74.5498485 27.0693939,74.0559091 29.1375758,73.2725758 C31.8860606,72.2301515 35.3663636,72.8801515 37.6678788,75.1134848 C34.0860606,77.8816667 30.2663636,78.3089394 26.1527273,76.3665152 C25.0754545,75.8574242 23.8966667,75.565 22.7633333,75.1725758" id="Fill-50" fill="#B3DFFF"></path>
                <path d="M95.9856061,41.2674242 C95.744697,41.244697 95.4265152,41.3159091 95.2765152,41.1886364 C92.8962121,39.1734848 90.0310606,38.9401515 87.1159091,39.0022727 C85.5765152,39.0356061 84.0340909,39.2219697 82.5068182,39.4310606 C80.9689394,39.6386364 79.4477273,39.9583333 77.9189394,40.2280303 C79.5825758,38.475 81.8916667,38.8537879 83.9477273,38.4265152 C87.725,37.6416667 91.4825758,36.8568182 94.155303,33.705303 C94.7643939,36.225 95.375,38.7462121 95.9856061,41.2674242" id="Fill-52" fill="#36A9FF"></path>
                <path d="M37.1225758,96.9610606 C40.5680303,94.6504545 43.3710606,91.7034848 45.8513636,88.2974242 C45.3740909,91.6913636 44.8983333,95.085303 44.4210606,98.4792424 C41.9877273,97.9731818 39.5559091,97.4671212 37.1225758,96.9610606" id="Fill-54" fill="#D2EEFF"></path>
                <path d="M88.8433333,25.7756061 C87.9266667,25.1437879 87.0357576,24.4725758 86.0857576,23.895303 C85.3569697,23.4513636 84.5554545,23.1271212 83.7887879,22.7483333 C84.3933333,21.4180303 84.9993939,20.084697 85.6069697,18.7528788 C87.71,20.6210606 88.9509091,22.8877273 88.8433333,25.7756061" id="Fill-56" fill="#0B8FFF"></path>
                <path d="M25.9645455,14.0493939 C24.0660606,12.4857576 22.1115152,12.6130303 20.11,13.8418182 C19.6024242,14.1539394 19.0690909,14.4221212 18.5463636,14.7115152 C19.8751515,11.96 22.2781818,10.3115152 24.7251515,8.7069697 C25.1387879,10.4872727 25.5509091,12.2675758 25.9645455,14.0493939" id="Fill-58" fill="#0B8FFF"></path>
                <path d="M20.4433333,89.2890909 C20.7039394,89.4163636 20.9645455,89.5421212 21.2251515,89.6693939 C20.9645455,89.5421212 20.7039394,89.4163636 20.4433333,89.2890909" id="Fill-60" fill="#D9A02B"></path>
                <path d="M85.5489394,78.7836364 C85.6928788,78.8624242 85.8368182,78.9412121 85.9807576,79.02 C85.8368182,78.9412121 85.6928788,78.8624242 85.5489394,78.7836364" id="Fill-62" fill="#CD8104"></path>
                <path d="M18.6018182,14.6737879 L18.2775758,15.1116667 L18.6018182,14.6737879 Z" id="Fill-64" fill="#29D34D"></path>
                <path d="M44.509697,29.5360606 C40.2490909,27.2845455 36.0536364,25.08 31.8763636,22.8406061 C31.4324242,22.6012121 30.8627273,22.2254545 30.7460606,21.8042424 C29.6960606,17.9875758 28.7339394,14.1481818 27.7475758,10.3148485 C31.1612121,9.67393939 33.8672727,10.2057576 36.1839394,12.7406061 C38.0460606,14.7784848 40.3218182,16.4360606 42.3778788,18.299697 C43.0006061,18.8633333 43.559697,19.5178788 44.0551515,20.1966667 C46.4566667,23.4815152 46.4975758,24.9269697 44.509697,29.5360606" id="Fill-66" fill="#0B8FFF"></path>
                <path d="M68.9192424,23.835 C71.5495455,23.215303 73.8162121,23.9607576 76.0525758,25.3986364 C76.9207576,25.9562121 78.2359091,25.8228788 79.3465152,26.004697 C76.9768182,30.385 74.6086364,34.765303 72.2389394,39.1440909 C68.464697,39.3622727 65.0677273,38.2501515 61.9313636,36.2183333 C61.8177273,32.2092424 64.2874242,29.3834848 66.4631818,26.4456061 C67.1707576,25.4925758 68.095,24.7001515 68.9192424,23.835" id="Fill-68" fill="#36A9FF"></path>
                <path d="M47.3393939,39.5569697 C48.2439394,40.8554545 48.5075758,42.2115152 48.1469697,43.8145455 C46.9378788,49.190303 45.8439394,54.5918182 44.7060606,59.9827273 C44.3969697,60.0160606 44.0863636,60.0478788 43.7757576,60.079697 C41.4878788,53.9584848 39.2,47.8372727 36.9121212,41.7160606 C37.7257576,39.7948485 38.9136364,38.2721212 41.2318182,38.429697 C43.1606061,38.5615152 45.0742424,38.9160606 46.9939394,39.1706061 L47.0015152,39.1630303 C47.1136364,39.2948485 47.2272727,39.4251515 47.3393939,39.5569697" id="Fill-70" fill="#73C3FF"></path>
                <path d="M21.2563636,42.355 C23.8487879,42.8595455 26.4381818,43.374697 29.0336364,43.8656061 C33.3154545,44.6731818 36.1715152,47.0489394 37.5154545,51.2686364 C38.0972727,53.0928788 38.9639394,54.824697 39.700303,56.5989394 C37.639697,56.3459091 36.7230303,57.5322727 36.0851515,59.2807576 C35.7609091,60.1701515 35.0806061,60.9277273 34.5609091,61.7459091 C34.0184848,60.4762121 33.5260606,59.1822727 32.9230303,57.9428788 C31.3745455,54.7534848 29.2730303,52.0974242 26.5033333,49.7443939 C24.2684848,47.8459091 22.8124242,45.0277273 21.0124242,42.6171212 C21.100303,42.5368182 21.1821212,42.4489394 21.2563636,42.355" id="Fill-72" fill="#73C3FF"></path>
                <path d="M46.0056061,66.7431818 C46.2222727,64.8871212 46.2631818,62.9886364 46.6874242,61.1825758 C47.7859091,56.505303 49.0540909,51.8674242 50.3919697,46.6795455 C52.0404545,51.475 54.545,55.505303 54.995,60.2719697 C55.1631818,62.075 55.2783333,63.8886364 55.2828788,65.6992424 C55.2843939,66.305303 54.864697,66.9128788 54.6374242,67.5204545 C54.5389394,67.655303 54.4404545,67.7886364 54.3419697,67.9234848 L54.3768182,67.9037879 C51.4904545,69.5780303 48.8071212,69.025 46.2434848,67.1628788 L46.2722727,67.1765152 C46.1828788,67.0310606 46.095,66.8871212 46.0056061,66.7431818" id="Fill-74" fill="#73C3FF"></path>
                <path d="M46.9221212,31.1333333 C51.6887879,31.2090909 53.1236364,30.2318182 54.9857576,25.6378788 C55.9660606,23.2212121 56.4054545,23.0575758 58.6948485,24.2545455 C58.9266667,27.7590909 59.1569697,31.2651515 59.3887879,34.769697 C56.8357576,35.2227273 53.9130303,39.0075758 53.5327273,42.069697 C53.4236364,42.9530303 52.7236364,43.7636364 52.2933333,44.6075758 C50.5251515,40.5636364 48.7463636,36.5242424 47.01,32.4666667 C46.8448485,32.080303 46.9448485,31.580303 46.9221212,31.1333333" id="Fill-76" fill="#36A9FF"></path>
                <path d="M46.9939394,39.1707576 C45.0742424,38.9162121 43.1606061,38.5616667 41.2318182,38.4298485 C38.9136364,38.2722727 37.7257576,39.795 36.9121212,41.7162121 C33.4515152,37.0374242 32.7984848,31.464697 31.8060606,26.0586364 C36.4787879,27.2480303 40.4742424,29.7268182 43.8878788,32.8389394 C45.5030303,34.3131818 45.9939394,37.0222727 46.9939394,39.1707576" id="Fill-78" fill="#36A9FF"></path>
                <path d="M52.2940909,44.6069697 C52.7228788,43.7630303 53.4228788,42.9524242 53.5334848,42.0690909 C53.9137879,39.0069697 56.8365152,35.2236364 59.3895455,34.7690909 C59.1168182,36.6175758 58.9107576,38.4781818 58.5577273,40.31 C58.0562121,42.9221212 58.1971212,45.4372727 59.0440909,47.9827273 C60.9774242,53.7842424 60.7925758,55.2039394 58.0319697,60.2493939 C56.1895455,55.2266667 54.2410606,49.9160606 52.2940909,44.6069697" id="Fill-80" fill="#73C3FF"></path>
                <path d="M59.7395455,74.0643939 C58.1622727,75.1568182 56.5865152,76.2477273 55.0092424,77.3401515 C55.5956061,74.5916667 55.8668182,71.7265152 56.8395455,69.1219697 C58.4365152,64.8492424 60.4880303,60.7477273 62.3471212,56.5734848 C64.5334848,56.0219697 65.4486364,56.4916667 65.5804545,58.2810606 C65.635,58.9992424 65.5425758,59.7280303 65.5880303,60.4462121 C65.6592424,61.5886364 65.7895455,62.7280303 65.8940909,63.8689394 C64.3486364,66.2583333 62.7713636,68.6310606 61.2683333,71.0477273 C60.6759091,72.0007576 60.2440909,73.055303 59.7395455,74.0643939" id="Fill-82" fill="#B3DFFF"></path>
                <path d="M46.2430303,67.1633333 C48.8066667,69.0254545 51.49,69.5769697 54.3778788,67.9042424 C53.570303,72.0224242 53.0339394,76.2209091 51.8612121,80.2315152 C51.0521212,82.9951515 51.1490909,85.5087879 51.9066667,88.1406061 C50.7384848,88.399697 49.5687879,88.660303 48.3990909,88.9193939 C48.1733333,84.0648485 48.0687879,79.199697 47.6687879,74.3587879 C47.470303,71.9375758 46.7354545,69.560303 46.2430303,67.1633333" id="Fill-84" fill="#B3DFFF"></path>
                <path d="M61.9316667,36.2181818 C65.0680303,38.25 68.465,39.3621212 72.2392424,39.1454545 C71.3165152,41.2257576 69.6559091,42.5212121 67.7392424,43.6515152 C65.6574242,44.8787879 63.7089394,46.3287879 61.6301515,47.730303 C59.8589394,44.1 61.0362121,40.1590909 61.9316667,36.2181818" id="Fill-86" fill="#73C3FF"></path>
                <path d="M34.5612121,61.7456061 C35.0809091,60.9274242 35.7612121,60.1698485 36.0854545,59.2819697 C36.7218182,57.5319697 37.64,56.3456061 39.7006061,56.5986364 C41.8687879,60.0471212 42.909697,63.8637879 43.39,67.8668182 L43.3930303,67.8637879 C40.1248485,66.2910606 36.9657576,64.5622727 34.5612121,61.7456061" id="Fill-88" fill="#B3DFFF"></path>
                <path d="M65.8940909,63.8689394 C65.7895455,62.7280303 65.6592424,61.5886364 65.5880303,60.4462121 C65.5425758,59.7280303 65.635,58.9992424 65.5804545,58.2810606 C65.4486364,56.4916667 64.5334848,56.0219697 62.3471212,56.5734848 C62.8289394,55.9219697 63.1698485,55.0098485 63.815303,54.6643939 C66.3910606,53.2840909 69.0607576,52.0810606 71.9380303,51.0810606 C71.0137879,55.9810606 68.5728788,59.9810606 65.8940909,63.8689394" id="Fill-90" fill="#73C3FF"></path>
                <path d="M21.0122727,42.6175758 C20.9092424,42.4645455 20.8062121,42.31 20.7031818,42.1569697 C20.8865152,42.2236364 21.0728788,42.2887879 21.2562121,42.3554545 C21.1819697,42.4493939 21.1016667,42.5372727 21.0122727,42.6175758" id="Fill-92" fill="#C5CC08"></path>
                <path d="M26.214697,14.3254545 C26.1207576,14.2239394 26.0283333,14.1224242 25.9343939,14.0224242 C26.0268182,14.1224242 26.1207576,14.2239394 26.214697,14.3254545" id="Fill-94" fill="#29D34D"></path>
                <path d="M43.390303,67.8662121 C43.4509091,67.9131818 43.5115152,67.9601515 43.5721212,68.0071212 C43.5342424,68.0071212 43.4781818,68.0237879 43.46,68.0040909 C43.4266667,67.9677273 43.4145455,67.9116667 43.3918182,67.8631818 L43.390303,67.8662121 Z" id="Fill-96" fill="#CD8001"></path>
                <path d="M54.3425758,67.9231818 C54.4410606,67.7898485 54.5395455,67.655 54.6380303,67.5201515 C54.5395455,67.655 54.4410606,67.7898485 54.3425758,67.9231818" id="Fill-98" fill="#CD8001"></path>
                <path d="M46.0056061,66.7431818 C46.095,66.8871212 46.1828788,67.0310606 46.2722727,67.1765152 C46.1828788,67.0310606 46.095,66.8871212 46.0056061,66.7431818" id="Fill-100" fill="#CD8001"></path>
                <path d="M68.1136364,65.6710606 C68.0848485,65.7134848 68.0621212,65.7634848 68.0257576,65.795303 C68.0090909,65.8104545 67.9636364,65.7907576 67.9318182,65.7877273 C68.0015152,65.7604545 68.069697,65.7316667 68.1393939,65.7043939 C68.1393939,65.7043939 68.1136364,65.6710606 68.1136364,65.6710606" id="Fill-102" fill="#C5CC09"></path>
                <path d="M28.5087879,34.3863636 C28.5618182,34.4469697 28.6133333,34.5075758 28.6648485,34.5666667 C28.599697,34.5212121 28.5330303,34.4742424 28.4678788,34.4287879 L28.5087879,34.3863636 Z" id="Fill-104" fill="#5AA104"></path>
                <path d="M47.3393939,39.5569697 C47.2272727,39.4251515 47.1136364,39.2948485 47.0015152,39.1630303 C47.1136364,39.2948485 47.2272727,39.4251515 47.3393939,39.5569697" id="Fill-106" fill="#5AA103"></path>
                <path d="M76.5327273,37.7377273 C76.4524242,37.7816667 76.3721212,37.8271212 76.2918182,37.8710606 C76.3342424,37.7892424 76.3766667,37.7074242 76.4190909,37.6240909 L76.5327273,37.7377273 Z" id="Fill-108" fill="#5AA104"></path>
            </g>
        </g>
    </g>
</svg>